{"glyphs":{"0":{"ha":757,"x_min":57,"x_max":707,"o":"m 553 4 l 353 6 l 224 4 q 206 5 213 4 q 197 6 200 6 q 193 6 194 6 q 190 8 192 7 q 136 71 181 19 q 81 136 114 97 q 67 175 67 153 l 57 782 q 69 818 57 803 q 147 913 122 881 q 178 949 168 938 q 193 964 188 961 q 207 967 199 967 l 378 965 l 529 967 q 560 965 550 967 q 575 961 571 964 q 585 953 579 958 q 585 951 585 951 l 696 817 q 707 781 707 801 q 706 726 707 756 q 704 596 706 664 q 703 478 703 528 l 701 478 l 696 169 q 694 153 696 160 q 682 135 692 147 q 650 97 672 122 q 578 14 625 69 q 567 6 572 8 q 553 4 561 4 m 439 201 q 444 203 442 201 q 450 208 447 204 q 467 231 461 222 q 476 245 474 240 q 479 257 479 250 l 469 701 q 467 713 469 708 q 460 722 464 718 q 447 740 454 729 q 426 753 442 753 l 378 754 l 329 753 q 326 752 328 753 q 321 749 324 751 q 306 725 313 733 q 294 703 294 714 l 289 478 l 288 478 q 285 293 288 332 q 285 264 285 274 q 285 249 285 253 q 289 242 286 244 l 314 207 q 314 207 314 207 q 317 203 315 204 q 323 202 318 203 q 338 201 328 201 l 439 201 z "},"1":{"ha":757,"x_min":168,"x_max":610,"o":"m 590 -1 l 190 -1 q 171 1 174 -1 q 168 21 168 4 q 169 182 169 101 q 173 201 169 199 q 190 204 176 204 l 279 204 q 288 206 286 204 q 289 214 289 207 l 289 626 q 288 635 289 633 q 279 638 286 638 l 182 638 q 176 640 178 639 q 172 646 174 642 q 172 647 172 646 q 169 674 169 660 q 169 700 169 685 q 172 758 172 721 l 172 776 q 174 783 172 779 q 180 792 175 786 q 195 810 185 799 q 225 843 206 822 q 318 946 256 876 q 340 957 328 957 l 508 953 q 522 951 518 953 q 526 943 525 950 q 528 922 528 936 q 529 574 528 747 l 531 574 l 531 213 q 531 206 531 207 q 536 204 532 204 l 582 204 q 606 200 601 204 q 610 181 610 196 l 610 38 q 610 23 610 28 q 609 15 610 18 q 608 10 608 13 q 604 0 607 1 q 590 -1 601 -1 z "},"2":{"ha":757,"x_min":26,"x_max":725,"o":"m 701 3 l 40 3 q 32 4 35 3 q 28 9 29 6 q 28 21 28 13 l 26 185 q 42 221 26 208 l 478 636 q 486 653 486 643 l 486 700 q 485 713 486 708 q 481 719 483 717 q 468 738 472 731 q 461 747 464 744 q 451 749 458 749 l 319 751 q 310 750 314 751 q 303 744 307 749 q 285 729 292 733 q 278 722 281 725 q 274 713 275 718 q 274 697 274 708 l 274 649 q 270 632 274 635 q 254 629 267 629 l 68 625 q 42 626 50 625 q 31 631 33 628 q 28 638 28 633 l 28 792 q 43 828 28 815 q 150 925 118 894 q 181 953 171 943 q 198 965 192 963 q 213 967 204 967 l 563 971 q 576 969 569 971 q 588 961 582 968 q 675 856 647 889 q 706 818 696 831 q 717 799 715 806 q 719 782 719 792 q 718 578 718 681 q 704 543 718 557 l 417 235 q 417 235 417 235 q 417 235 417 235 q 417 234 417 235 q 417 233 417 233 q 418 233 418 233 q 523 233 479 233 q 598 233 567 233 q 649 233 629 233 q 681 233 669 233 q 699 233 693 233 q 708 233 704 233 q 714 232 711 232 q 715 232 714 232 q 720 231 718 232 q 724 223 722 229 q 725 203 725 217 q 725 164 725 189 l 725 28 q 721 8 725 13 q 701 3 717 3 z "},"3":{"ha":757,"x_min":22,"x_max":724,"o":"m 182 4 q 163 13 172 4 q 74 99 103 71 q 42 128 53 118 q 29 144 32 139 q 26 156 26 150 l 26 297 q 28 306 26 304 q 38 310 31 308 q 47 311 43 311 l 68 311 q 146 313 100 311 q 243 314 197 314 q 258 311 254 314 q 261 296 261 308 l 261 253 q 262 242 261 246 q 265 236 263 239 q 286 213 281 219 q 292 206 290 208 q 297 203 294 204 q 303 203 299 203 l 421 203 q 450 218 438 203 q 460 232 454 226 q 468 243 465 238 q 469 253 469 249 l 468 274 q 468 299 468 288 q 467 327 468 318 q 464 340 467 336 q 457 350 461 344 q 440 368 451 356 q 433 374 438 372 q 419 376 429 376 l 369 375 l 349 375 q 344 375 347 375 q 332 377 336 375 q 326 386 328 379 q 324 410 324 393 l 325 457 l 324 567 q 325 587 324 581 q 331 594 326 593 q 342 596 335 596 l 346 596 q 424 597 385 597 q 436 601 432 597 q 447 613 440 604 q 461 629 453 619 q 465 642 465 636 q 465 706 465 688 q 467 721 467 715 q 466 729 467 726 q 465 733 465 732 q 463 736 464 735 q 463 736 463 736 q 443 758 449 751 q 436 767 439 764 q 431 770 433 769 q 426 771 429 771 q 331 768 360 769 q 312 768 319 768 q 300 767 304 768 q 293 767 296 767 q 290 766 290 767 q 288 764 289 765 q 288 764 288 764 q 269 743 276 750 q 260 732 263 736 q 258 718 258 728 l 258 671 q 256 659 258 661 q 244 657 254 657 q 222 657 244 657 q 167 657 199 657 q 107 658 136 657 q 63 658 78 658 l 43 657 l 33 658 q 27 660 29 658 q 24 667 25 663 q 24 683 24 672 q 24 714 24 694 q 22 806 24 744 q 33 833 22 822 l 157 956 q 157 957 157 956 q 163 961 160 960 q 175 964 167 963 q 201 965 183 965 q 250 965 218 965 l 558 965 q 592 950 578 965 q 706 832 647 890 q 719 796 719 817 l 718 567 q 710 546 718 554 q 675 501 692 525 q 669 489 669 494 q 675 475 669 482 l 708 432 q 715 426 713 429 q 718 413 717 422 q 720 384 719 404 q 721 329 721 364 q 724 182 722 278 q 708 144 724 160 l 597 26 q 558 8 582 8 l 182 4 z "},"4":{"ha":757,"x_min":29,"x_max":729,"o":"m 343 1 q 329 6 333 1 q 325 24 325 10 l 325 204 q 329 216 325 214 q 346 218 333 218 l 381 218 q 383 220 382 218 q 385 228 385 222 q 385 244 385 233 q 386 293 385 260 q 384 299 386 297 q 379 300 382 300 l 97 299 l 43 300 q 32 303 35 300 q 29 315 29 306 l 31 542 q 44 579 31 565 q 100 635 44 579 q 226 762 156 690 q 353 890 297 833 q 414 953 408 946 q 438 965 424 965 l 621 964 q 628 960 626 963 q 631 951 631 958 q 632 928 632 944 l 629 728 l 631 728 l 628 504 q 635 497 628 499 q 678 497 654 497 q 718 496 703 497 q 727 492 725 494 q 729 482 729 489 l 729 321 q 726 305 729 308 q 714 301 724 301 q 695 301 708 301 q 668 300 682 300 q 644 300 654 300 q 633 300 633 300 q 628 299 629 300 q 626 293 626 297 l 625 224 q 626 217 625 218 q 633 215 628 215 q 658 215 647 215 q 685 215 676 215 q 695 211 693 214 q 697 201 697 208 l 697 28 q 695 8 697 14 q 683 3 693 3 l 372 3 l 343 1 m 271 482 q 301 483 281 482 q 344 484 322 483 q 381 486 365 485 q 397 488 397 488 q 402 489 401 488 q 403 493 403 490 l 403 499 q 403 529 403 515 q 402 554 403 543 q 401 574 401 565 q 401 590 401 583 q 401 601 401 596 q 401 609 401 606 q 401 615 401 613 q 401 619 401 618 q 401 621 401 621 q 400 622 400 621 q 400 622 400 622 q 400 622 400 622 l 265 482 l 271 482 z "},"5":{"ha":757,"x_min":6,"x_max":753,"o":"m 175 0 q 150 11 161 0 l 17 150 q 7 162 8 154 q 6 176 6 169 q 10 247 8 213 q 11 301 10 275 q 11 306 11 304 q 15 322 13 318 q 29 326 18 326 l 260 322 q 277 319 274 322 q 281 308 281 315 q 282 289 282 299 l 282 243 q 283 232 282 236 q 289 224 285 228 q 297 217 293 221 q 311 204 303 208 q 313 203 313 204 q 316 203 314 203 q 321 203 318 203 l 444 203 q 461 210 456 203 q 481 231 474 225 q 488 239 486 236 q 490 246 490 242 l 490 435 q 488 447 490 442 q 481 457 486 451 q 438 476 465 476 l 172 475 q 160 479 165 476 q 150 488 156 482 l 44 601 q 29 638 29 617 l 32 943 q 35 960 32 956 q 49 965 38 965 l 56 965 q 183 965 76 965 q 417 963 289 964 q 640 962 544 963 q 743 961 735 961 q 753 953 751 961 l 751 783 q 749 766 751 769 q 736 763 746 763 l 728 763 q 704 764 717 763 q 681 765 692 765 l 292 765 q 280 764 282 765 q 278 751 278 763 l 276 713 q 278 702 276 706 q 283 694 279 699 q 296 676 288 690 q 303 669 299 671 q 313 668 307 668 q 469 671 417 671 q 575 674 529 671 q 600 663 590 674 l 728 532 q 735 522 732 528 q 738 506 738 517 q 739 476 739 496 l 738 397 q 742 181 738 324 q 721 126 742 147 q 639 39 663 67 q 609 9 618 17 q 585 1 600 1 l 175 0 z "},"6":{"ha":757,"x_min":21,"x_max":754,"o":"m 533 -1 q 458 -1 506 -1 q 192 0 376 0 q 151 17 167 0 q 36 132 94 75 q 21 169 21 147 q 22 244 21 169 q 23 424 22 319 q 24 628 24 529 q 25 775 25 726 l 25 804 q 35 832 25 821 l 169 960 q 203 972 185 972 l 213 972 q 360 969 232 969 q 593 968 454 969 q 636 950 621 968 q 715 871 692 893 q 736 851 729 858 q 745 840 743 843 q 747 831 747 836 l 747 692 q 725 669 747 669 l 558 672 l 524 672 q 511 676 514 672 q 508 689 508 679 l 508 717 q 508 724 508 721 q 504 729 507 726 q 483 753 490 744 q 476 762 479 758 q 470 766 472 765 q 464 767 468 767 q 364 767 394 767 q 338 768 347 768 q 322 767 326 768 q 315 765 317 767 q 311 763 313 764 q 311 761 311 761 q 294 704 294 736 l 299 581 q 307 574 299 574 l 590 574 q 626 558 614 574 q 739 442 681 500 q 754 403 754 426 l 750 160 q 747 141 750 149 q 733 123 744 133 q 700 93 722 113 q 607 10 669 68 q 606 8 607 10 q 599 3 603 6 q 590 1 596 1 q 570 -1 583 0 q 533 -1 557 -1 m 411 221 l 460 222 q 465 223 463 222 q 470 227 467 224 q 479 236 474 231 q 494 251 485 242 q 499 261 499 256 l 500 325 q 500 333 500 331 q 499 336 500 335 q 496 339 497 338 q 476 357 483 350 q 465 367 469 364 q 458 372 461 371 q 450 374 454 374 l 379 372 q 361 372 368 372 q 347 374 354 372 q 331 375 340 374 q 317 369 322 375 q 296 350 303 357 q 285 341 289 344 q 280 335 281 338 q 279 328 279 332 l 281 267 q 283 256 281 260 q 292 246 286 253 q 308 229 299 240 q 324 222 315 222 l 383 222 l 411 221 z "},"7":{"ha":757,"x_min":24,"x_max":732,"o":"m 444 -3 l 421 0 l 390 -1 q 224 -3 307 -3 l 218 -3 q 207 1 210 -3 q 204 11 204 4 l 204 38 q 205 54 204 49 q 207 64 206 60 q 210 74 208 68 q 211 76 211 75 l 481 760 l 235 760 q 228 758 229 760 q 226 751 226 757 l 225 715 q 215 706 225 706 l 46 706 q 28 708 33 706 q 24 722 24 711 l 24 729 q 28 875 28 811 q 31 958 28 935 q 35 967 32 965 q 50 968 39 968 l 672 971 q 695 971 686 971 q 710 970 704 971 q 718 969 715 969 q 722 969 721 969 q 724 969 722 969 q 724 969 724 969 q 730 967 728 968 q 732 961 732 965 l 732 793 q 731 765 732 775 q 725 743 729 754 l 454 4 q 444 -3 451 -3 z "},"8":{"ha":757,"x_min":11,"x_max":742,"o":"m 224 -1 q 206 1 213 -1 q 185 14 199 3 q 143 49 171 25 q 40 133 108 78 q 24 171 24 149 l 14 417 q 25 436 14 429 q 57 463 38 447 q 83 483 72 474 q 49 511 61 501 q 35 524 40 519 q 26 530 29 528 q 21 533 24 532 q 11 556 11 542 q 15 654 13 588 q 19 771 18 721 q 21 799 21 789 q 39 836 21 822 l 185 957 q 222 971 201 971 l 572 969 q 600 958 589 969 l 728 829 q 739 803 738 819 q 740 572 739 689 q 733 549 740 558 q 713 526 726 540 q 674 486 697 513 q 683 476 675 485 q 702 456 692 467 q 721 436 713 444 q 729 428 729 428 q 742 401 742 417 l 740 165 q 731 140 740 151 l 603 11 q 575 0 592 0 l 224 -1 m 444 590 q 456 592 450 590 q 471 606 464 597 q 481 617 475 613 q 483 624 483 619 l 483 626 q 482 689 482 668 q 482 709 482 701 q 481 720 482 717 q 479 726 481 724 q 476 729 478 728 q 457 747 463 740 q 449 753 451 751 q 444 756 447 756 q 439 757 442 757 q 332 760 386 760 q 319 754 324 760 q 301 738 308 743 q 292 728 296 732 q 288 722 289 725 q 286 715 286 719 q 283 643 285 660 q 282 631 282 635 q 283 624 282 626 q 285 619 283 622 q 297 604 289 613 q 306 596 301 600 q 317 590 310 590 l 321 590 q 333 592 328 592 l 389 592 l 389 590 l 444 590 m 393 210 q 428 211 415 211 q 441 212 436 211 q 448 213 446 213 q 453 217 450 214 q 469 233 464 228 q 481 244 478 240 q 483 254 483 247 l 485 317 l 486 338 q 485 349 486 343 q 469 368 479 360 q 463 374 465 371 q 450 379 458 379 q 363 378 407 378 l 342 378 q 321 379 332 378 l 318 379 q 313 378 315 379 q 308 374 311 376 q 296 361 300 365 q 287 352 289 356 q 285 342 285 349 q 288 275 286 294 q 288 258 288 264 q 288 249 288 253 q 290 244 289 246 q 293 242 292 243 q 311 225 304 231 q 322 215 318 218 q 328 211 325 213 q 336 210 332 210 l 393 210 z "},"9":{"ha":757,"x_min":14,"x_max":733,"o":"m 554 3 q 438 4 496 6 q 360 6 399 4 l 200 6 q 163 7 175 6 q 145 12 151 8 q 132 22 139 15 l 32 122 q 19 156 19 135 l 19 261 q 24 295 19 288 q 43 303 28 303 l 49 303 q 127 302 83 303 q 205 301 171 301 q 239 301 239 301 q 252 299 249 301 q 256 282 256 296 l 254 258 q 260 244 254 250 q 281 221 274 228 q 288 211 285 214 q 292 208 290 208 q 297 207 294 207 q 436 206 368 207 q 443 207 440 206 q 447 213 446 208 q 462 237 458 229 q 465 258 465 244 l 461 388 q 460 397 461 396 q 450 399 458 399 l 204 399 l 164 400 q 154 402 158 400 q 142 411 150 404 q 121 433 135 418 q 28 531 97 460 q 14 567 14 544 q 17 810 17 689 q 17 813 17 811 q 19 828 17 822 q 33 846 22 835 q 69 879 44 857 q 158 961 99 906 q 185 971 171 971 l 569 969 q 603 954 590 969 l 719 836 q 733 801 733 822 q 732 604 732 674 l 732 485 l 731 485 l 728 200 l 729 161 q 728 156 729 158 q 724 148 728 153 q 710 134 719 143 q 683 108 700 125 q 586 14 653 79 q 572 5 579 7 q 554 3 564 3 m 426 597 q 444 603 438 597 q 467 624 460 617 q 476 631 472 628 q 480 637 479 635 q 481 643 481 639 q 479 688 479 674 q 478 703 479 697 q 476 714 478 708 q 463 731 472 722 q 454 739 458 735 q 453 742 453 740 q 447 746 450 744 q 439 747 444 747 l 372 750 l 372 749 q 308 750 339 749 q 289 742 296 750 q 275 726 281 732 q 267 717 269 721 q 264 704 264 713 q 263 657 264 671 q 263 644 263 650 q 264 636 263 639 q 268 631 265 633 q 289 613 281 619 q 302 600 297 603 q 315 597 307 597 l 378 600 q 407 599 393 600 q 426 597 418 597 z "},"\u0000":{"ha":0,"x_min":0,"x_max":0,"o":""},"\u001d":{"ha":0,"x_min":0,"x_max":0,"o":""}," ":{"ha":556,"x_min":0,"x_max":0,"o":""}," ":{"ha":556,"x_min":0,"x_max":0,"o":""},"!":{"ha":338,"x_min":28,"x_max":310,"o":"m 108 194 q 101 197 103 194 q 100 208 100 200 q 92 289 97 249 l 88 326 q 76 439 83 383 q 39 782 58 611 q 29 881 35 832 l 28 904 q 31 934 29 932 q 293 936 33 936 q 307 933 304 936 q 310 913 310 931 q 306 851 310 879 l 282 622 l 238 213 q 233 199 236 203 q 108 194 231 196 m 164 -18 q 101 -16 104 -18 q 99 -7 99 -14 q 101 121 99 118 q 226 125 104 124 q 231 122 229 124 q 233 -10 233 121 q 226 -17 233 -15 q 164 -18 219 -18 z "},"\"":{"ha":372,"x_min":28,"x_max":344,"o":"m 119 888 l 63 890 q 53 899 57 890 l 28 1057 q 31 1100 29 1099 q 83 1101 33 1101 q 165 1099 163 1101 q 168 1057 168 1097 q 163 1024 167 1040 q 140 904 150 963 q 119 888 139 888 m 296 888 l 239 890 q 229 899 233 890 l 204 1057 q 208 1100 206 1099 q 260 1101 210 1101 q 342 1099 339 1101 q 344 1057 344 1097 q 339 1024 343 1040 q 317 904 326 963 q 296 888 315 888 z "},"#":{"ha":792,"x_min":28,"x_max":764,"o":"m 211 14 l 207 14 q 193 28 193 14 l 194 71 q 192 212 193 211 q 46 213 192 213 q 33 215 35 213 q 29 293 31 218 l 28 358 q 30 369 28 367 q 189 371 32 371 q 193 375 193 371 l 193 492 l 192 492 l 192 608 q 188 613 192 613 l 47 613 q 34 613 39 613 q 28 619 29 614 q 28 763 28 625 q 31 776 28 774 q 46 779 33 779 l 186 779 q 192 782 192 779 l 190 953 q 192 983 190 981 q 203 985 194 985 q 322 982 319 985 q 324 878 324 979 q 325 781 324 782 q 464 779 326 779 q 467 783 467 779 q 465 975 467 936 q 469 984 467 982 q 529 986 471 986 q 593 985 589 986 q 598 982 597 985 q 599 880 599 979 q 599 780 599 781 q 676 779 600 779 q 760 778 757 779 q 764 626 763 776 q 751 613 764 615 l 604 613 q 600 610 600 613 l 600 375 q 678 371 600 371 q 759 369 757 371 q 764 226 761 367 q 746 213 764 213 l 603 213 q 601 28 601 213 q 594 20 599 21 q 585 18 589 19 q 485 15 535 18 q 472 19 476 15 q 468 39 468 22 q 469 207 469 53 q 467 211 468 210 q 396 213 465 213 q 326 211 326 213 q 325 204 325 210 l 326 36 q 324 19 326 22 q 211 14 314 14 m 396 371 q 467 372 467 371 q 468 492 468 374 q 467 611 468 610 q 464 613 467 613 l 328 613 q 324 610 325 613 q 324 604 324 607 q 325 378 325 493 q 326 372 325 372 q 396 371 326 371 z "},"$":{"ha":549,"x_min":28,"x_max":521,"o":"m 274 -4 l 200 -4 q 191 -1 193 -3 q 189 31 189 1 q 188 90 189 61 l 188 99 q 183 103 188 103 q 143 101 157 103 q 128 110 135 101 l 36 214 q 29 232 29 222 q 31 350 29 349 q 113 351 33 351 q 193 350 192 351 q 194 294 194 349 q 199 281 194 286 l 218 257 q 229 251 224 251 l 304 253 l 319 251 q 338 264 332 254 l 343 269 q 356 294 356 279 q 355 364 356 361 q 351 369 354 367 q 330 391 332 390 q 138 392 328 392 q 122 400 129 392 l 33 503 q 28 518 28 510 l 28 711 q 35 729 28 722 l 121 828 q 142 838 128 838 q 188 839 186 838 l 189 892 q 192 958 189 956 q 203 961 194 961 q 350 958 346 961 q 354 944 354 956 l 353 840 l 356 839 q 414 838 411 839 q 513 728 417 836 q 519 708 519 721 l 519 606 q 517 591 518 592 q 497 590 517 590 q 357 592 360 590 q 354 646 354 593 q 350 660 354 654 q 324 690 326 689 q 274 690 322 690 q 222 688 225 689 q 206 674 219 688 q 193 654 193 661 l 193 582 q 196 572 193 576 q 210 557 204 564 q 225 550 217 550 l 408 550 q 426 542 421 550 q 515 439 469 489 q 521 422 521 431 l 521 232 q 513 211 521 219 l 426 113 q 410 104 421 104 l 365 104 q 356 103 357 104 l 356 3 q 353 -3 356 -1 q 274 -4 351 -4 z "},"%":{"ha":546,"x_min":28,"x_max":518,"o":"m 192 -1 l 89 -1 q 76 1 79 -1 q 74 25 74 3 q 82 65 74 46 l 332 814 q 376 949 374 944 q 386 954 379 954 q 487 948 485 950 q 489 939 489 946 q 481 882 489 910 q 221 40 226 65 q 215 17 218 29 q 209 1 213 4 q 192 -1 206 -1 m 504 104 l 397 106 q 392 107 393 106 q 390 169 390 108 q 392 233 390 231 q 454 235 394 235 q 516 233 514 235 q 518 119 518 231 q 504 104 517 104 m 146 703 l 46 703 q 29 706 31 704 q 28 764 28 707 q 31 831 28 828 q 96 833 33 833 q 154 831 153 832 q 156 824 156 829 l 156 713 q 146 703 154 704 z "},"&":{"ha":622,"x_min":28,"x_max":594,"o":"m 364 -4 q 216 -1 219 -4 q 213 117 213 3 q 211 124 213 122 q 157 125 210 125 q 132 135 143 125 l 38 226 q 28 251 28 238 q 31 424 31 338 q 37 434 33 433 q 40 438 40 435 q 72 474 56 453 l 74 478 l 36 524 q 32 531 32 526 q 31 703 32 618 q 43 731 31 719 l 133 817 q 164 829 146 829 q 213 831 211 829 q 214 950 214 832 q 218 956 214 956 l 228 957 q 376 953 374 956 q 378 890 378 950 q 381 830 378 831 q 469 829 383 829 q 486 822 481 829 l 586 732 q 594 715 594 725 q 593 613 594 639 q 583 603 593 603 l 510 603 q 494 601 503 601 l 422 601 q 406 604 408 601 q 404 636 404 607 q 403 657 404 656 q 390 672 394 667 q 381 681 385 678 q 276 686 378 683 q 259 683 264 686 q 239 660 254 679 q 236 651 236 657 q 238 588 236 593 q 258 563 239 583 q 268 558 263 558 q 349 555 346 557 q 351 542 351 553 l 350 478 l 351 418 q 349 401 351 401 q 340 394 346 396 l 268 394 q 257 390 263 394 q 235 363 236 368 l 233 303 q 235 296 233 300 q 257 271 238 292 q 265 267 261 267 l 367 268 q 382 276 375 268 q 397 292 389 283 q 401 301 401 296 q 404 347 401 344 q 422 350 407 350 q 553 347 488 347 l 563 346 l 582 347 q 590 344 588 346 q 592 238 592 343 q 583 218 592 225 l 482 128 q 465 121 472 121 l 388 122 q 379 122 382 122 q 376 113 376 121 l 378 8 q 376 -3 378 -1 q 364 -4 374 -4 z "},"'":{"ha":196,"x_min":28,"x_max":168,"o":"m 119 903 l 63 906 q 53 914 57 906 l 28 1072 q 31 1115 29 1114 q 83 1117 33 1117 q 165 1115 163 1117 q 168 1107 168 1113 q 163 1040 168 1068 q 152 983 158 1011 q 140 919 146 954 q 119 903 139 903 z "},"(":{"ha":460,"x_min":28,"x_max":432,"o":"m 251 -1 q 222 11 233 -1 q 99 179 146 85 q 28 488 28 324 l 29 528 q 115 810 38 681 q 231 939 161 885 q 261 949 243 949 l 404 950 q 418 939 411 950 q 432 915 432 921 q 399 888 432 911 q 290 740 331 825 q 238 485 238 625 q 325 163 238 314 q 419 46 363 97 q 429 35 429 38 q 406 8 429 32 q 388 1 399 1 l 315 1 l 315 0 l 251 -1 z "},")":{"ha":460,"x_min":28,"x_max":432,"o":"m 210 -1 l 74 1 q 53 10 61 1 q 32 35 32 32 q 35 40 35 38 q 39 44 36 43 q 186 269 140 139 q 224 488 224 375 q 74 875 224 726 q 40 903 60 890 q 36 907 39 906 q 28 915 28 913 q 47 946 28 919 q 58 951 53 951 q 200 949 129 949 q 229 939 217 949 q 361 782 313 874 q 432 481 432 646 q 296 75 432 257 q 238 10 269 40 q 210 -1 226 -1 z "},"*":{"ha":468,"x_min":28,"x_max":440,"o":"m 246 693 q 194 694 213 693 q 187 697 189 694 q 183 706 185 699 l 183 782 q 182 786 183 785 q 178 784 179 786 q 101 721 176 782 q 83 711 93 714 q 78 714 81 711 q 74 719 76 717 q 69 726 71 722 q 51 753 61 740 q 28 789 38 771 q 90 847 33 800 q 150 896 147 893 q 137 906 142 901 q 84 949 132 910 q 32 992 36 988 q 28 999 28 996 q 31 1006 28 1001 q 51 1036 39 1022 q 60 1051 56 1042 q 75 1072 65 1060 q 83 1079 81 1079 q 95 1073 92 1076 q 101 1068 99 1069 q 182 1003 174 1008 l 183 1013 q 186 1108 183 1106 q 221 1110 189 1110 q 265 1109 260 1110 q 272 1096 271 1108 l 272 996 q 367 1071 274 996 q 383 1081 375 1078 q 390 1078 388 1081 q 440 1001 440 1006 q 379 948 440 999 q 315 894 318 897 l 435 797 q 440 788 440 792 q 438 780 440 785 q 433 772 435 775 l 419 753 q 397 723 407 738 q 385 708 388 708 q 371 714 379 708 l 281 789 q 274 793 276 793 q 272 789 272 792 l 272 701 q 269 694 271 696 q 246 693 268 693 z "},"+":{"ha":571,"x_min":28,"x_max":543,"o":"m 240 206 q 227 209 231 206 q 224 222 224 213 q 221 405 224 404 q 36 406 218 406 q 29 413 31 406 q 28 471 28 419 q 30 532 28 531 q 44 535 32 533 q 219 535 217 535 q 221 544 221 536 l 219 690 q 222 723 219 721 q 235 725 225 725 q 348 723 346 725 q 351 625 350 721 q 352 538 351 539 q 358 536 353 536 q 521 538 442 536 q 536 537 531 538 q 542 531 542 536 q 543 522 543 526 q 541 408 543 411 q 528 406 539 406 q 354 406 357 406 q 351 400 351 406 l 351 308 l 353 308 q 350 208 353 211 q 240 206 347 206 z "},",":{"ha":183,"x_min":28,"x_max":156,"o":"m 78 -122 l 65 -121 q 50 -119 51 -121 q 49 -104 49 -117 l 49 -11 q 40 -10 47 -10 q 30 -8 32 -10 q 28 54 28 -6 q 30 116 28 113 q 42 119 32 119 q 153 117 151 119 q 156 4 156 115 q 151 -11 156 -4 l 100 -110 q 93 -119 96 -115 q 78 -122 90 -122 z "},"-":{"ha":575,"x_min":28,"x_max":547,"o":"m 538 392 l 35 392 q 30 395 32 393 q 28 504 28 397 q 31 517 28 514 q 328 524 35 521 l 483 525 q 544 523 543 525 q 547 515 546 521 q 546 393 547 394 q 538 392 544 392 z "},"­":{"ha":575,"x_min":28,"x_max":547,"o":"m 538 392 l 35 392 q 30 395 32 393 q 28 504 28 397 q 31 517 28 514 q 328 524 35 521 l 483 525 q 544 523 543 525 q 547 515 546 521 q 546 393 547 394 q 538 392 544 392 z "},".":{"ha":188,"x_min":28,"x_max":160,"o":"m 93 8 q 29 10 31 8 q 28 74 28 13 q 31 140 28 138 q 97 143 33 143 q 158 140 157 142 q 160 76 160 139 q 157 10 160 13 q 93 8 154 8 z "},"/":{"ha":471,"x_min":28,"x_max":443,"o":"m 147 -10 l 43 -10 q 31 -7 33 -10 q 28 17 28 -4 q 182 494 28 38 q 331 941 329 938 q 335 945 333 944 q 349 946 336 946 l 386 944 q 440 940 438 942 q 443 931 443 939 q 432 865 443 894 l 186 76 l 169 8 q 164 -7 167 -4 q 147 -10 161 -10 z "},":":{"ha":190,"x_min":28,"x_max":163,"o":"m 83 589 q 31 592 33 590 q 28 607 28 593 q 31 722 28 719 q 43 725 33 725 l 111 724 q 158 722 157 724 q 160 714 160 721 q 157 592 160 594 q 147 590 154 590 q 83 589 140 589 m 96 224 q 32 226 33 224 q 31 289 31 228 q 33 356 31 353 q 100 358 36 358 q 161 356 160 357 q 163 292 163 354 q 160 226 163 228 q 96 224 157 224 z "},";":{"ha":192,"x_min":28,"x_max":164,"o":"m 96 94 l 82 94 q 61 97 71 96 q 51 103 51 97 l 53 206 q 49 210 53 210 l 39 210 q 31 218 31 211 q 33 342 31 339 q 47 346 36 346 q 162 342 160 344 q 164 278 164 339 l 163 278 l 163 221 q 133 161 163 215 q 103 103 104 107 q 99 98 101 100 q 96 94 97 96 m 149 576 l 125 576 q 35 578 79 576 q 28 583 28 578 l 28 692 q 30 707 28 703 q 42 711 32 711 q 158 709 157 711 q 160 701 160 707 q 158 580 160 582 q 149 576 156 578 z "},";":{"ha":192,"x_min":28,"x_max":164,"o":"m 96 94 l 82 94 q 61 97 71 96 q 51 103 51 97 l 53 206 q 49 210 53 210 l 39 210 q 31 218 31 211 q 33 342 31 339 q 47 346 36 346 q 162 342 160 344 q 164 278 164 339 l 163 278 l 163 221 q 133 161 163 215 q 103 103 104 107 q 99 98 101 100 q 96 94 97 96 m 149 576 l 125 576 q 35 578 79 576 q 28 583 28 578 l 28 692 q 30 707 28 703 q 42 711 32 711 q 158 709 157 711 q 160 701 160 707 q 158 580 160 582 q 149 576 156 578 z "},"<":{"ha":572,"x_min":28,"x_max":544,"o":"m 526 3 l 417 3 q 381 6 386 3 q 215 226 376 10 q 33 469 39 460 q 28 482 28 478 q 31 488 28 483 q 76 549 33 493 l 149 646 q 375 947 371 942 q 383 953 379 953 q 388 954 386 954 q 424 957 406 957 l 538 956 q 542 953 540 954 q 544 932 543 951 q 543 915 543 922 q 538 903 543 907 l 221 481 q 299 376 221 479 q 535 63 451 169 q 544 35 544 51 l 543 11 q 538 4 543 6 q 526 3 532 3 z "},"=":{"ha":524,"x_min":28,"x_max":496,"o":"m 486 296 l 267 296 q 33 297 36 296 q 29 306 29 299 q 32 401 29 399 q 478 406 35 403 q 493 403 490 406 q 496 389 496 401 l 496 306 q 486 296 494 297 m 478 493 l 46 493 q 30 496 32 493 q 28 511 28 499 l 29 583 q 31 599 29 597 q 267 603 33 601 q 493 601 492 603 q 494 593 494 600 q 492 496 494 499 q 478 493 489 493 z "},">":{"ha":569,"x_min":26,"x_max":543,"o":"m 153 3 l 111 4 q 31 6 33 4 q 26 28 28 8 q 28 44 28 36 q 32 57 28 51 q 114 165 36 63 l 350 481 l 36 899 q 26 925 26 910 q 27 946 26 936 q 35 956 28 956 q 161 957 43 957 q 185 954 174 957 q 193 950 192 954 q 540 490 533 497 l 543 483 q 474 383 539 468 l 200 18 q 197 15 199 17 q 193 10 196 13 q 187 6 190 7 q 153 3 183 6 z "},"?":{"ha":574,"x_min":28,"x_max":546,"o":"m 356 175 l 163 175 q 149 177 151 175 q 143 368 146 179 q 153 393 143 383 q 317 594 183 426 q 324 614 324 601 l 324 676 q 318 693 324 685 q 315 697 317 694 q 313 703 314 700 q 303 708 311 707 q 271 707 290 707 q 260 701 265 707 q 254 690 254 696 l 256 639 q 253 592 256 594 q 36 589 250 589 q 28 597 29 590 l 29 671 l 28 776 q 31 801 28 796 q 142 958 35 807 q 163 972 146 972 l 414 969 q 438 958 431 969 q 535 822 485 890 q 543 797 543 813 q 544 660 543 729 q 546 524 544 592 q 535 491 546 506 q 415 314 524 476 q 406 281 406 300 l 407 194 q 405 178 407 181 q 356 175 403 176 m 386 -4 l 168 -4 q 154 -1 157 -4 q 151 13 151 1 l 153 115 q 159 128 153 125 q 176 131 165 131 l 390 131 q 399 122 399 129 q 397 1 399 6 q 386 -4 394 -3 z "},"@":{"ha":768,"x_min":28,"x_max":740,"o":"m 528 24 l 368 26 q 176 32 183 31 q 165 35 169 33 q 157 38 160 36 q 151 42 154 40 q 40 231 146 49 q 28 283 28 254 q 31 715 29 669 l 31 729 q 44 765 31 750 l 224 928 q 240 939 232 935 q 267 950 257 950 l 581 953 q 600 950 590 953 q 618 944 613 950 q 717 829 629 935 q 736 781 736 810 l 740 339 q 739 317 740 328 q 731 301 738 307 q 720 290 724 296 q 672 243 717 285 q 619 195 626 201 q 604 183 613 189 q 588 176 596 176 l 547 175 l 507 176 q 491 181 494 179 q 482 210 488 183 q 443 174 464 190 q 408 167 438 167 q 344 168 376 167 q 281 169 313 169 q 235 193 250 169 l 181 274 q 169 315 169 293 q 168 622 168 361 q 168 667 168 661 q 172 678 168 672 q 190 701 179 692 l 249 761 q 292 781 267 781 l 422 779 q 465 760 447 779 l 472 753 q 477 758 474 754 q 485 764 481 763 q 538 767 489 765 l 576 765 q 590 761 586 764 q 596 747 593 758 q 599 719 599 735 l 597 703 l 603 360 q 615 376 615 364 q 612 754 613 751 q 608 760 611 757 l 564 814 q 551 819 560 819 q 304 818 453 818 q 249 776 293 818 q 200 732 211 743 l 163 700 q 154 682 154 693 l 151 300 q 157 282 151 290 l 222 169 q 232 163 225 163 l 263 161 q 558 153 536 158 q 570 142 569 151 q 571 126 571 133 q 553 25 571 26 l 528 24 m 385 300 q 461 374 392 300 q 472 384 465 379 q 479 396 479 389 l 475 574 q 471 583 475 581 l 401 643 q 393 647 400 647 l 324 647 q 314 644 318 647 q 298 628 306 635 q 290 613 290 621 l 290 476 l 292 476 l 292 349 q 294 333 292 340 q 301 319 297 325 q 310 307 306 313 q 322 300 314 301 l 385 300 z "},"A":{"ha":693,"x_min":-6,"x_max":682,"o":"m 451 0 q 441 3 444 0 q 435 11 438 6 q 416 60 426 33 q 399 106 406 86 q 389 129 392 124 q 382 147 385 142 q 378 156 379 153 q 378 164 378 160 q 378 171 378 167 q 382 183 379 175 q 385 193 383 188 l 386 201 q 384 205 386 204 q 376 206 382 206 l 339 207 l 300 206 q 300 206 300 206 q 292 204 294 206 q 290 201 290 203 l 292 194 q 294 188 293 190 q 299 167 299 179 q 290 135 299 154 q 247 28 256 54 q 240 9 243 15 q 235 1 238 3 q 226 0 232 0 l 32 3 q 22 4 25 3 q 18 8 19 6 q 17 18 17 11 q 6 92 10 63 q -3 143 0 126 q -6 167 -6 160 q -4 173 -6 171 q -1 178 -3 175 q -1 178 -1 178 q 51 322 40 244 q 126 675 107 590 q 139 733 135 714 q 143 763 143 753 q 142 771 143 767 q 139 779 140 775 q 132 796 135 788 q 125 813 129 804 q 122 824 122 818 q 126 838 122 831 q 169 910 154 883 q 188 942 181 931 q 199 958 194 953 q 207 964 204 963 q 215 965 210 965 l 464 965 q 474 963 469 965 q 483 950 478 960 q 500 922 489 940 q 549 839 515 894 q 554 824 554 831 q 551 811 554 818 l 536 776 q 536 775 536 776 q 534 770 535 772 q 533 764 533 768 q 539 726 533 754 q 560 629 544 699 q 585 511 569 583 q 619 349 607 404 q 631 288 626 310 q 639 256 636 267 q 644 241 642 246 q 649 232 646 236 q 656 218 653 225 q 672 188 667 199 q 680 173 678 178 q 682 165 682 168 l 682 161 q 679 144 681 153 q 660 18 671 82 q 658 8 660 11 q 653 4 657 6 q 643 3 650 3 q 451 0 547 3 m 394 397 q 401 399 400 397 q 403 404 403 401 l 401 414 l 340 689 l 336 689 l 274 403 q 278 399 274 400 q 297 397 283 397 l 394 397 z "},"B":{"ha":713,"x_min":31,"x_max":676,"o":"m 293 -4 l 93 -4 q 84 -2 88 -4 q 77 9 81 0 q 68 38 74 18 q 33 144 58 69 q 31 157 31 151 l 33 171 l 58 225 q 65 261 65 243 l 65 389 q 65 604 65 536 q 67 668 67 643 q 66 708 67 696 q 63 726 65 721 q 58 738 61 732 q 58 739 58 739 l 35 794 q 35 794 35 794 q 32 801 33 799 q 31 808 31 804 q 36 835 31 817 q 57 894 42 853 q 76 954 65 919 q 81 965 79 961 q 87 969 83 968 q 99 969 90 969 q 349 968 264 968 q 424 967 394 967 q 469 966 453 967 q 494 965 486 965 q 506 963 503 964 q 511 958 510 961 q 513 958 513 958 l 663 835 q 669 828 667 831 q 671 824 671 826 l 668 813 q 651 765 657 781 q 644 745 646 751 q 641 735 642 739 q 640 728 640 732 q 638 681 639 699 q 636 653 636 664 q 640 629 636 639 q 653 600 643 619 q 672 558 660 585 l 676 549 q 670 538 676 544 q 650 518 664 532 q 619 490 638 508 q 614 483 614 486 q 619 475 614 481 q 650 446 639 457 q 671 427 665 433 q 676 417 676 421 q 672 408 676 414 q 671 406 672 407 q 650 361 658 376 q 639 335 642 343 q 636 321 636 328 l 636 317 q 638 267 638 283 q 640 239 639 249 q 643 220 640 229 q 653 194 646 211 q 668 153 658 179 l 671 142 q 669 137 671 139 q 663 131 667 135 q 590 71 619 94 q 542 31 560 46 q 516 10 525 17 q 502 1 507 3 q 493 0 497 0 l 293 -1 l 293 -4 m 382 197 q 403 203 396 197 q 425 224 411 208 q 430 229 428 226 q 433 237 432 232 q 434 251 433 242 q 435 278 435 261 q 439 353 436 304 q 438 362 439 358 q 432 369 436 365 q 411 390 418 382 q 403 398 407 394 q 397 402 400 401 q 390 403 394 403 q 386 403 389 403 q 276 406 331 406 l 271 406 q 265 403 265 406 q 264 393 264 400 l 264 304 l 267 304 l 267 214 q 268 204 267 207 q 278 201 269 201 q 303 200 286 200 q 360 199 324 200 l 382 197 m 279 560 l 371 561 q 422 586 403 561 q 429 593 425 590 q 436 601 433 597 q 439 615 439 606 q 435 688 436 663 q 432 722 433 711 q 425 741 431 733 q 408 760 419 749 q 406 763 407 761 q 404 764 406 763 q 401 766 403 765 q 395 767 399 767 q 385 768 392 768 l 279 764 q 268 763 269 764 q 267 751 267 761 l 267 663 l 264 663 l 264 575 q 266 562 264 564 q 279 560 268 560 z "},"C":{"ha":714,"x_min":18,"x_max":686,"o":"m 247 0 q 223 1 231 0 q 212 3 215 1 q 206 7 208 4 q 204 8 206 8 q 38 139 121 75 q 31 144 33 142 q 29 147 29 146 q 33 157 29 151 q 54 196 46 182 q 65 217 61 210 q 70 229 69 225 q 71 239 71 233 q 64 736 67 488 q 60 751 64 744 q 49 772 57 758 q 22 818 39 788 q 18 828 18 824 q 20 831 18 829 q 26 836 22 833 q 122 910 86 882 q 160 940 144 928 q 184 958 175 951 q 198 967 193 964 q 206 972 203 971 q 211 972 208 972 l 214 972 q 361 972 306 972 q 446 972 415 972 q 490 970 476 971 q 510 967 504 969 q 521 960 517 965 q 524 958 522 960 q 646 872 610 896 q 670 855 661 861 q 683 845 679 849 q 686 839 686 842 l 683 832 q 665 792 671 806 q 656 772 658 779 q 654 757 654 765 q 656 686 656 722 q 658 623 657 650 q 658 590 658 596 l 658 589 q 644 578 658 578 q 508 622 614 578 q 414 658 467 639 q 399 664 404 661 q 393 672 394 667 q 392 688 392 678 l 393 704 q 390 713 393 708 q 378 717 385 717 l 369 717 l 347 719 q 331 713 335 719 q 326 694 326 706 q 328 588 328 621 q 331 544 329 556 q 331 531 331 536 q 331 519 331 526 q 331 494 331 511 l 335 294 q 365 264 335 265 q 381 266 379 264 q 383 282 383 268 l 376 443 q 378 456 376 451 q 389 460 381 460 q 511 422 413 460 q 607 389 550 408 q 622 383 615 386 q 638 377 633 379 q 644 372 643 375 q 646 364 646 369 l 646 286 q 646 253 646 264 q 647 234 646 242 q 651 219 649 226 q 654 208 653 214 q 669 156 661 182 q 671 146 671 150 q 663 131 671 138 q 581 57 610 83 q 547 26 560 38 q 528 10 535 15 q 516 4 521 6 q 504 3 511 3 l 503 3 q 304 1 365 1 q 247 0 268 0 z "},"D":{"ha":746,"x_min":25,"x_max":719,"o":"m 92 -4 q 80 3 83 -4 q 72 24 76 10 q 65 43 69 32 q 43 99 53 78 q 29 138 33 125 q 25 156 25 150 q 26 160 25 158 q 28 165 26 163 q 47 205 40 190 q 58 227 54 219 q 62 240 61 235 q 63 249 63 244 q 64 471 64 360 l 64 693 q 53 740 64 718 q 39 769 44 754 q 28 790 33 781 q 25 804 25 797 l 26 813 q 60 901 49 871 q 75 942 69 929 q 84 957 81 954 q 94 960 88 960 l 543 956 q 574 940 563 956 q 671 818 639 857 q 701 781 690 794 q 715 761 711 768 q 718 751 718 754 q 715 744 718 747 q 715 743 715 743 l 690 697 q 683 675 683 686 l 685 489 q 683 326 685 368 q 682 293 682 306 q 683 272 682 278 q 689 260 685 265 l 714 217 l 719 204 q 717 199 719 201 q 711 190 715 196 q 638 97 667 133 q 596 44 611 64 q 572 15 581 25 q 558 3 564 6 q 547 1 553 1 l 92 -4 m 364 219 q 399 220 388 219 q 416 224 410 221 q 429 236 422 228 q 435 242 432 239 q 447 269 446 251 l 447 468 q 446 667 447 568 q 444 694 446 686 q 438 710 443 703 q 419 729 432 717 q 413 735 417 733 q 398 737 408 736 q 367 738 388 738 q 317 738 347 738 q 305 735 307 738 q 303 724 303 733 l 303 478 l 304 478 l 303 236 q 304 223 303 226 q 313 219 306 219 l 364 219 z "},"E":{"ha":708,"x_min":31,"x_max":690,"o":"m 331 0 l 106 0 q 100 1 103 0 q 95 6 97 1 q 89 20 93 11 q 78 46 85 29 q 35 151 65 79 q 32 167 32 160 q 35 182 32 175 l 63 244 q 65 261 65 253 l 67 618 q 66 682 67 658 q 64 717 65 706 q 60 736 63 729 q 54 750 58 743 q 40 781 46 764 q 33 796 36 788 q 32 797 33 797 q 31 801 32 800 q 31 806 31 803 q 35 824 31 811 q 54 868 40 838 q 93 964 68 901 q 107 974 97 974 l 557 972 q 564 969 561 972 q 571 960 567 967 q 581 939 575 953 q 592 917 586 929 l 685 722 q 690 708 690 713 q 688 702 690 704 q 679 696 685 700 q 616 653 658 682 q 544 604 574 624 q 535 599 539 599 q 531 601 533 599 q 526 606 529 603 q 481 651 497 635 q 454 678 464 669 q 438 690 444 688 q 424 694 432 693 q 361 703 378 700 q 344 706 350 706 q 340 703 340 706 q 339 694 339 700 q 338 629 338 663 l 338 628 q 340 620 338 622 q 350 617 342 618 q 376 617 358 617 q 419 617 393 617 q 441 615 435 617 q 450 610 447 614 q 454 601 453 607 q 454 599 454 600 q 486 476 475 518 q 499 429 494 446 q 504 405 503 413 q 506 392 506 397 l 504 375 q 503 371 504 372 q 499 368 503 369 q 488 366 496 367 q 465 365 479 365 q 426 364 450 365 q 353 363 397 364 q 340 360 342 363 q 338 347 338 358 q 339 279 338 314 q 340 272 339 274 q 343 269 340 269 l 349 269 q 397 276 379 274 q 423 281 414 279 q 437 283 432 282 q 444 286 442 285 q 449 290 446 288 l 529 371 q 536 375 533 375 q 543 372 540 375 l 679 279 q 688 272 685 275 q 690 267 690 269 q 686 253 690 261 l 571 15 q 562 3 568 6 q 549 1 556 1 l 331 1 l 331 0 z "},"F":{"ha":683,"x_min":31,"x_max":692,"o":"m 301 0 l 96 1 q 86 2 89 1 q 81 6 83 3 q 78 15 79 8 q 56 79 64 53 q 40 124 46 107 q 33 148 35 140 q 31 160 31 156 l 32 168 q 39 189 36 179 q 53 233 47 217 q 60 259 58 250 q 63 274 63 268 q 64 285 64 279 q 63 572 63 476 q 63 651 63 619 q 62 699 63 682 q 61 725 61 717 q 60 738 61 733 q 57 744 58 742 q 57 746 57 746 q 35 800 44 774 q 35 800 35 800 q 33 805 33 803 q 32 811 32 807 q 37 832 32 817 q 54 882 42 847 q 81 957 64 910 q 85 967 83 964 q 91 972 88 971 q 103 972 94 972 l 318 972 l 318 971 q 531 972 425 971 q 561 954 551 972 q 651 792 610 867 q 688 726 683 733 l 692 718 q 690 714 692 715 q 683 710 688 713 l 553 629 q 542 625 547 625 q 531 629 536 625 l 422 708 q 410 715 415 714 q 394 717 404 717 l 349 717 q 339 706 339 717 q 340 621 339 664 q 342 612 340 614 q 351 610 343 610 l 413 610 q 436 609 429 610 q 446 605 443 608 q 450 596 449 601 q 450 593 450 594 q 469 514 461 549 q 499 379 499 414 q 488 361 499 361 l 351 364 q 340 363 342 364 q 338 350 338 361 q 338 328 338 338 q 340 276 339 294 q 346 241 342 258 q 360 193 350 224 q 367 167 363 181 l 369 154 q 365 135 369 147 q 350 93 361 122 q 324 18 340 67 q 324 17 324 18 q 317 3 319 6 q 301 0 314 0 z "},"G":{"ha":797,"x_min":18,"x_max":760,"o":"m 558 10 l 279 10 q 247 10 258 10 q 229 10 235 10 q 221 13 224 11 q 215 15 218 14 q 215 15 215 15 l 31 139 q 18 153 18 146 q 24 167 18 158 l 53 221 q 53 221 53 221 q 56 226 54 224 q 57 234 57 228 q 58 253 57 240 q 58 288 58 265 q 60 343 58 310 q 63 543 60 410 l 67 728 q 66 743 67 738 q 65 751 65 749 q 63 756 64 753 q 63 757 63 757 l 38 819 q 33 835 33 831 q 37 842 33 839 q 47 850 40 846 l 206 961 q 207 963 207 961 q 215 967 211 965 q 226 969 218 968 q 248 969 233 969 q 289 969 263 969 l 563 969 q 571 968 567 969 q 583 961 575 967 q 608 944 592 956 q 654 910 625 932 q 744 842 688 885 q 749 839 747 840 q 757 832 754 835 q 760 826 760 829 l 757 818 q 735 781 746 800 q 721 757 728 769 q 721 757 721 757 q 717 749 718 753 q 715 738 715 746 q 714 714 714 731 l 715 607 q 714 597 715 601 q 706 593 713 593 l 686 593 q 670 594 679 593 q 643 602 661 596 q 589 619 625 608 q 458 663 544 635 q 449 666 451 664 q 445 671 446 668 q 444 681 444 674 q 444 696 444 690 q 443 717 444 711 q 435 722 442 722 l 432 722 q 410 721 421 722 q 367 718 389 721 q 351 710 357 718 q 344 690 344 701 l 350 399 q 350 399 350 399 q 353 401 351 400 q 355 404 354 401 q 357 412 356 407 q 361 425 358 417 q 367 447 364 433 q 397 554 376 479 q 402 565 400 561 q 408 569 404 568 q 418 569 411 569 l 685 568 q 708 564 704 568 q 713 540 713 560 q 717 361 715 426 q 720 261 718 293 q 726 214 722 229 q 742 182 731 199 q 754 158 747 172 q 758 146 758 150 q 756 140 758 143 q 747 133 753 138 q 696 99 719 114 q 636 56 660 72 q 599 31 613 40 q 577 17 585 21 q 566 11 569 13 q 558 10 563 10 m 378 249 l 429 251 q 438 254 436 251 q 439 267 439 257 l 439 289 l 438 289 l 438 317 q 436 329 438 326 q 429 332 435 332 l 371 332 q 355 331 358 332 q 351 325 351 329 l 351 279 q 352 265 351 269 q 354 259 353 261 q 360 254 356 257 q 369 250 365 251 q 378 249 372 249 z "},"H":{"ha":788,"x_min":25,"x_max":743,"o":"m 307 -4 l 204 -4 l 204 -1 l 103 -1 q 87 1 90 -1 q 79 15 83 3 q 28 151 53 83 q 25 163 25 157 q 28 172 25 167 q 53 221 44 204 q 63 246 61 238 q 65 263 65 254 l 65 721 q 63 728 65 725 q 61 732 63 731 l 29 796 q 26 801 28 799 q 25 807 25 804 q 28 822 25 813 q 40 853 32 832 q 79 954 53 883 q 103 971 85 971 q 168 972 133 971 q 256 973 217 972 q 304 975 294 974 l 308 975 q 319 974 315 975 q 325 966 322 972 q 331 946 328 960 q 363 850 338 921 q 367 824 367 836 q 358 789 367 806 q 347 764 353 776 q 339 744 343 754 q 335 733 336 739 q 333 713 333 726 l 335 622 q 335 614 335 617 q 338 610 336 611 q 346 610 340 610 l 390 608 l 435 610 q 444 611 443 610 q 446 621 446 613 q 446 664 446 646 q 444 697 444 685 q 444 717 444 710 q 442 727 443 724 q 439 735 442 731 q 422 772 429 757 q 408 805 413 794 q 404 821 404 815 l 407 831 l 454 957 q 474 972 457 972 l 676 972 q 688 970 685 972 q 693 960 690 968 q 694 958 694 960 l 740 825 q 743 814 743 819 q 739 799 743 807 q 717 756 725 772 q 705 732 708 740 q 701 719 701 724 q 700 710 700 715 l 701 482 l 700 278 q 701 256 700 263 q 702 245 701 249 q 706 238 703 242 q 718 211 713 224 q 738 172 728 190 q 743 154 743 164 l 740 143 l 694 13 q 690 3 692 6 q 685 -1 689 0 q 675 -1 682 -1 l 476 -1 q 460 1 464 -1 q 453 15 457 3 q 425 89 436 61 q 409 132 414 118 q 404 153 404 146 q 406 158 404 156 q 408 164 407 161 q 439 235 425 200 q 442 243 442 239 q 444 253 443 247 q 444 272 444 260 q 446 306 444 285 q 446 347 446 322 q 444 360 446 358 q 433 361 443 361 l 346 361 q 336 359 338 361 q 335 349 335 357 q 333 247 333 297 q 334 241 333 244 q 338 230 335 238 q 347 206 340 222 q 365 164 353 190 q 365 164 365 164 q 368 157 367 160 q 369 150 369 154 q 365 126 369 143 q 349 74 360 110 q 328 10 340 49 q 323 0 325 3 q 318 -3 321 -3 q 307 -4 315 -4 z "},"I":{"ha":406,"x_min":25,"x_max":363,"o":"m 297 -3 l 103 -3 q 82 11 89 -3 q 42 108 54 79 q 28 138 32 128 q 25 153 25 147 q 28 165 25 160 q 48 213 40 196 q 60 240 56 231 q 65 256 64 250 q 65 265 65 261 l 67 485 l 65 703 q 65 712 65 707 q 60 726 64 717 q 49 753 57 736 q 29 800 42 771 q 25 814 25 807 q 30 833 25 821 q 46 871 35 846 q 81 956 58 900 q 90 967 85 964 q 104 971 94 971 l 297 971 q 308 970 306 971 q 313 966 311 969 q 318 956 315 963 q 342 883 333 910 q 358 834 354 849 q 363 814 363 819 q 362 808 363 811 q 360 803 361 806 q 360 803 360 803 q 340 761 347 776 q 328 738 332 746 q 324 726 325 731 q 324 718 324 722 l 322 483 l 324 249 q 329 231 324 239 q 340 208 335 218 q 358 168 353 181 q 363 150 363 156 l 361 140 l 317 11 q 313 1 315 4 q 308 -2 311 -1 q 297 -3 306 -3 z "},"J":{"ha":707,"x_min":-18,"x_max":667,"o":"m 194 6 q 131 26 157 6 q 24 104 56 82 q -10 128 -1 121 q -18 143 -18 135 l -17 151 q 22 333 4 243 q 31 371 26 351 q 31 372 31 372 q 34 383 32 379 q 42 388 36 388 q 76 378 51 388 q 151 350 100 369 q 221 322 181 338 q 256 310 242 314 q 281 299 274 303 q 290 293 289 296 q 292 285 292 290 q 292 278 292 282 q 292 276 292 278 q 293 269 292 272 q 297 266 294 267 q 307 265 300 265 l 331 265 q 336 267 335 265 q 338 274 338 269 l 338 685 q 338 713 338 703 q 337 728 338 722 q 335 735 336 733 q 332 740 335 738 q 332 742 332 742 q 306 786 318 764 q 297 801 301 793 q 294 813 294 807 q 296 821 294 817 q 333 915 322 883 q 349 953 344 942 q 358 968 354 965 q 369 971 363 971 l 489 969 l 578 971 q 598 969 592 971 q 606 965 604 968 q 611 958 608 963 q 611 957 611 957 q 643 876 632 903 q 653 851 651 853 q 660 835 660 843 q 653 813 660 824 q 629 760 640 786 q 622 744 625 753 q 618 724 618 735 l 618 292 q 618 263 618 274 q 618 244 618 251 q 618 234 618 238 q 619 229 618 231 q 621 226 619 228 q 621 226 621 226 q 631 208 626 218 q 660 158 644 183 q 667 144 667 149 q 664 140 667 142 q 654 133 661 138 q 549 57 585 83 q 510 28 524 39 q 488 14 496 18 q 476 8 481 10 q 468 7 472 7 l 465 7 q 194 6 331 7 z "},"K":{"ha":683,"x_min":25,"x_max":656,"o":"m 206 -3 l 101 -1 q 91 2 94 -1 q 81 19 88 6 q 64 60 75 32 q 28 153 51 93 q 25 164 25 158 q 29 176 25 169 l 61 239 q 69 278 69 257 l 71 617 q 70 676 71 654 q 68 709 69 697 q 65 727 67 721 q 58 740 63 733 q 35 785 46 761 q 29 796 32 790 q 29 797 29 796 q 26 802 26 800 q 25 807 25 804 q 29 822 25 811 q 42 856 33 833 q 83 958 56 888 q 106 974 89 974 l 307 974 q 322 963 319 974 q 356 864 346 893 q 365 835 363 844 q 368 822 368 826 q 367 818 368 819 q 367 814 367 817 q 365 813 365 814 q 329 733 350 774 q 325 717 325 724 q 335 692 325 703 q 337 692 336 692 q 338 695 338 693 q 341 700 339 697 q 346 710 343 703 q 388 790 354 726 q 392 801 392 796 q 389 813 392 806 q 382 832 386 819 q 376 846 379 839 l 374 856 l 375 863 q 396 924 389 903 q 403 947 400 939 q 410 956 407 954 q 419 957 413 957 l 583 957 q 594 956 592 957 q 599 952 597 956 q 604 942 601 949 l 653 786 q 654 776 654 781 q 650 765 654 769 q 639 754 646 760 q 607 722 626 744 q 565 651 588 700 q 504 526 522 560 q 490 501 494 510 q 486 485 486 492 q 490 472 486 479 q 564 322 542 368 q 582 285 575 299 q 593 264 589 271 q 601 253 597 257 q 608 246 604 250 q 608 246 608 246 l 649 208 q 656 194 656 201 l 654 188 l 603 28 q 603 26 603 28 q 598 16 600 18 q 586 14 596 14 l 419 14 q 409 15 413 14 q 403 24 406 17 q 394 50 400 32 q 375 110 389 71 l 374 117 q 376 129 374 121 q 386 154 379 138 q 389 163 388 158 l 392 169 q 388 182 392 174 q 372 211 383 190 q 339 276 361 233 l 335 279 q 329 268 331 275 q 326 264 328 267 q 324 256 324 260 q 326 246 324 251 q 339 218 332 232 q 364 163 350 190 q 367 149 367 156 q 365 136 367 143 q 332 38 340 67 q 322 11 325 19 q 317 1 319 3 q 307 -1 314 -1 l 206 -3 z "},"L":{"ha":679,"x_min":28,"x_max":693,"o":"m 331 0 l 113 0 q 99 1 103 0 q 92 5 94 1 q 88 17 90 8 l 32 153 q 29 167 29 160 q 32 179 29 174 q 46 207 39 193 q 63 240 54 224 q 66 250 65 244 q 67 266 67 256 q 68 300 68 276 q 68 369 68 325 q 67 696 67 454 q 65 707 67 701 q 60 723 64 713 q 46 754 56 733 q 31 790 40 769 l 28 799 q 33 820 28 804 q 54 876 39 836 q 82 954 64 906 q 90 967 86 964 q 104 969 94 969 l 150 969 l 314 971 q 320 969 318 971 q 326 960 322 967 q 334 941 329 954 q 347 907 339 928 q 375 831 357 878 l 376 822 q 372 803 376 817 q 354 758 367 790 q 342 728 349 746 q 342 726 342 728 q 340 722 340 725 q 338 710 339 718 q 338 688 338 703 l 343 271 q 343 264 343 267 q 345 252 343 254 q 357 250 347 250 q 364 250 360 250 l 365 250 q 373 251 369 250 q 383 256 376 251 q 404 268 390 260 q 442 292 418 276 q 517 342 469 311 q 528 349 524 347 q 538 351 533 351 q 544 349 540 351 q 556 343 549 347 q 558 342 557 343 q 653 282 606 311 q 672 271 663 276 q 678 268 675 269 q 690 260 686 263 q 693 254 693 257 q 689 246 693 250 q 689 244 689 244 l 576 22 q 574 17 575 19 q 567 6 571 10 q 554 3 564 3 l 331 3 l 331 0 z "},"M":{"ha":981,"x_min":25,"x_max":943,"o":"m 271 -8 l 99 -4 q 88 -3 92 -4 q 83 0 85 -3 q 79 10 81 3 l 28 150 q 25 163 25 157 q 29 178 25 171 q 32 183 31 181 q 48 216 42 201 q 56 255 54 231 q 59 324 58 279 q 60 447 60 368 q 61 696 60 539 q 60 709 61 703 q 55 726 58 715 q 43 758 51 738 q 32 786 38 769 q 29 801 29 793 q 34 825 29 810 q 50 872 39 840 q 76 944 60 899 q 83 960 81 956 q 90 967 86 965 q 103 968 94 968 l 108 968 q 283 971 196 971 l 294 971 q 307 969 304 971 q 311 958 310 967 q 314 951 313 956 q 410 728 376 808 q 431 680 422 701 q 447 642 440 658 q 460 614 454 626 q 469 593 465 601 q 474 580 472 585 q 478 572 476 575 q 481 567 481 568 q 483 565 482 565 q 483 564 483 564 q 483 564 483 564 q 483 564 483 564 q 484 565 483 564 q 485 567 485 565 q 487 570 486 568 q 490 577 488 572 q 494 588 492 582 q 501 604 497 594 q 511 627 506 614 q 524 658 517 640 q 541 697 532 675 q 561 744 550 718 q 585 803 572 771 q 615 874 599 836 q 650 957 631 913 q 675 974 657 974 q 822 971 781 971 q 854 971 843 971 q 871 970 865 971 q 878 967 876 969 q 881 961 879 965 l 886 949 q 913 879 901 906 q 931 827 925 843 q 936 804 936 811 q 933 790 936 797 l 908 722 q 908 722 908 722 q 906 717 907 719 q 905 708 906 714 q 904 689 904 701 q 906 611 904 667 q 910 271 907 521 q 921 219 910 244 l 940 178 q 940 176 940 178 q 942 173 942 175 q 943 168 943 171 q 939 151 943 163 q 925 111 935 139 q 889 10 913 78 q 885 3 888 6 q 878 -1 883 0 q 860 -3 872 -3 q 824 -4 847 -3 q 694 -7 783 -4 l 692 -7 q 681 -3 685 -7 q 671 15 676 1 q 654 57 665 29 q 631 121 646 82 q 629 124 631 122 q 623 142 625 135 q 621 153 621 149 q 623 163 621 158 q 629 175 625 168 q 635 185 632 179 q 651 215 644 204 q 662 239 658 229 q 667 263 665 249 q 669 308 668 278 q 671 365 669 331 l 671 374 q 671 374 671 374 q 668 372 669 372 q 665 368 667 371 q 661 360 664 365 q 653 344 658 354 q 590 215 640 315 l 588 204 q 590 192 588 197 q 596 178 593 185 q 606 156 600 167 q 608 153 607 154 q 608 150 608 151 q 604 135 608 146 q 589 100 600 125 q 569 57 581 83 q 550 43 565 43 l 492 44 q 440 43 457 44 q 422 42 429 42 q 408 44 413 42 q 400 56 403 47 q 361 143 379 100 l 360 147 q 362 154 360 149 q 369 172 364 160 q 381 196 374 181 l 382 203 l 379 210 q 339 290 354 260 q 325 319 331 307 q 315 340 319 332 q 307 354 310 349 q 303 363 304 360 q 301 368 301 367 q 299 370 300 369 q 297 371 299 371 q 297 371 297 371 q 296 367 296 369 l 300 257 q 301 248 300 253 q 307 234 303 243 q 319 209 311 225 q 342 167 328 193 q 346 150 346 158 q 344 138 346 143 q 296 8 319 74 q 288 -6 292 -4 q 271 -8 283 -8 z "},"N":{"ha":767,"x_min":31,"x_max":726,"o":"m 293 0 q 160 1 203 1 q 118 2 133 1 q 97 3 103 3 q 88 7 90 4 q 83 14 85 10 q 83 14 83 14 q 49 108 61 76 q 35 147 39 135 q 31 165 31 158 q 32 171 31 168 q 35 176 33 174 q 57 224 47 200 q 63 238 60 231 q 65 249 64 242 q 65 271 65 256 l 65 647 q 65 690 65 674 q 65 713 65 706 q 63 724 64 721 q 61 731 63 728 q 61 732 61 732 l 33 799 q 31 811 31 806 q 35 831 31 818 q 49 871 39 843 q 81 958 60 900 q 81 960 81 958 q 84 965 82 963 q 92 969 86 968 q 110 971 97 971 q 144 971 122 971 l 299 971 q 307 970 304 971 q 312 967 310 969 q 315 960 314 965 q 318 953 317 957 l 436 644 q 438 650 438 647 q 439 654 439 653 l 442 717 q 440 732 442 726 q 436 743 439 738 l 407 806 q 403 819 403 813 q 406 832 403 825 q 435 925 426 897 q 444 953 440 944 q 450 963 447 961 q 457 965 453 965 l 658 971 q 668 970 665 971 q 672 967 671 969 q 675 960 674 965 l 719 829 q 721 818 721 824 q 718 806 721 813 l 690 756 q 690 756 690 756 q 688 750 689 753 q 687 742 688 747 q 685 728 686 738 q 685 703 685 719 q 685 663 685 688 l 685 249 q 685 240 685 244 q 690 227 686 235 q 701 205 693 219 q 722 165 708 190 q 726 151 726 158 l 724 140 q 696 63 706 90 q 681 24 686 36 q 673 8 676 11 q 663 6 669 6 l 657 6 q 592 6 621 6 q 542 6 564 6 q 505 6 521 6 q 478 7 489 7 q 460 7 467 7 q 449 8 453 7 q 443 8 444 8 q 442 8 442 8 q 374 179 407 93 q 322 307 347 243 q 318 283 318 296 q 322 260 318 269 q 361 157 340 207 q 361 157 361 157 q 363 152 363 154 q 364 147 364 150 q 361 135 364 143 q 350 110 358 128 q 313 13 339 82 q 293 0 308 0 z "},"O":{"ha":776,"x_min":19,"x_max":742,"o":"m 519 -3 l 294 -3 q 243 -2 261 -3 q 217 -1 225 -1 q 204 1 208 -1 q 197 4 200 3 q 196 6 197 6 l 31 125 q 22 132 25 129 q 19 138 19 135 l 24 150 q 46 194 38 179 q 56 216 53 208 q 60 228 60 224 q 61 238 61 232 l 65 708 q 65 735 65 725 q 65 749 65 744 q 63 757 64 754 q 60 761 61 760 q 60 763 60 763 l 24 824 q 19 835 19 831 q 29 847 19 840 q 60 871 33 851 q 125 916 88 890 q 194 964 163 942 q 196 965 196 964 q 202 969 199 967 q 210 972 206 971 q 226 972 215 972 q 254 972 236 972 l 378 972 l 378 975 l 488 975 q 523 975 510 975 q 542 974 536 975 q 551 973 549 974 q 557 969 554 972 q 557 969 557 969 l 731 854 q 732 854 731 854 q 739 849 736 851 q 742 844 742 847 q 738 836 742 842 q 713 793 724 815 q 697 765 706 779 q 689 736 689 753 q 690 413 690 515 q 690 334 690 365 q 691 285 690 303 q 692 259 692 268 q 693 245 692 250 q 696 236 694 240 q 697 235 697 236 l 731 150 q 735 138 735 142 q 732 131 735 133 q 722 124 729 128 q 701 110 711 117 q 621 57 653 78 q 570 24 589 36 q 542 6 551 11 q 528 -1 532 0 q 519 -3 524 -3 m 406 246 q 419 247 417 244 q 421 261 422 250 l 425 483 q 425 501 425 493 q 425 569 425 549 q 425 599 425 589 q 426 622 425 610 q 426 652 426 632 q 428 708 426 672 q 404 732 428 732 l 351 732 q 318 697 317 731 l 324 271 q 349 246 324 247 l 406 246 z "},"P":{"ha":742,"x_min":21,"x_max":742,"o":"m 313 0 l 106 0 q 79 18 85 0 q 42 103 56 74 q 26 140 31 128 q 21 157 21 151 q 22 164 21 161 q 25 169 24 167 q 49 215 42 200 q 59 236 57 229 q 61 251 61 243 l 63 661 q 63 710 63 692 q 61 739 63 729 q 58 754 60 749 q 53 765 56 760 q 51 767 51 765 q 39 792 44 779 q 35 803 38 797 l 32 810 q 36 826 32 815 q 51 864 40 838 q 89 957 64 894 q 90 960 89 958 q 94 966 92 964 q 99 969 96 968 q 108 969 101 969 l 476 972 q 510 972 499 972 q 528 971 522 972 q 538 968 535 969 q 544 965 542 967 q 546 964 544 964 q 606 921 581 939 q 649 890 632 903 q 678 870 667 878 q 697 858 690 863 q 706 851 703 853 q 712 848 710 849 q 714 846 714 847 q 715 846 715 846 q 722 838 722 842 l 721 831 l 697 764 q 696 763 697 763 q 695 757 696 760 q 694 749 694 754 q 693 732 693 743 l 696 557 q 697 547 696 551 q 703 531 699 542 q 718 500 708 521 q 738 456 725 482 q 739 454 738 454 q 742 443 742 447 q 740 438 742 440 q 732 432 738 435 q 671 386 701 410 q 567 308 618 347 q 565 308 567 308 q 559 303 563 306 q 548 301 556 301 q 525 300 540 300 q 482 300 510 300 q 361 299 442 300 l 354 299 q 346 297 349 299 q 343 290 343 296 q 343 271 343 278 q 344 251 344 257 q 346 242 344 246 q 349 236 347 239 q 350 233 350 235 q 363 214 357 222 q 381 184 376 193 q 386 169 386 175 l 385 163 q 363 99 374 131 q 332 14 347 56 q 326 2 329 4 q 313 0 324 0 m 417 535 q 440 558 439 535 l 443 708 q 417 738 444 738 l 342 736 q 330 734 332 736 q 328 724 328 732 l 328 635 l 326 635 l 325 544 q 333 535 324 535 l 417 535 z "},"Q":{"ha":724,"x_min":26,"x_max":703,"o":"m 517 -72 q 506 -67 513 -72 q 494 -58 500 -62 q 451 -26 467 -37 q 426 -8 435 -14 q 413 -1 418 -3 q 403 0 408 0 l 401 0 q 226 -3 314 0 l 222 -3 q 193 8 206 -3 l 38 136 q 29 144 32 142 q 26 150 26 146 l 31 163 q 50 211 43 193 q 60 237 57 228 q 65 253 64 246 q 67 268 67 260 q 63 601 64 500 q 62 661 63 636 q 61 701 61 686 q 60 726 61 717 q 60 741 60 736 q 59 748 60 746 q 57 753 58 750 q 57 753 57 753 l 29 821 l 26 832 q 28 838 26 836 q 35 844 31 840 l 175 965 q 183 969 179 968 q 197 972 188 971 q 226 972 207 972 l 336 972 l 336 971 l 442 971 q 472 970 461 971 q 488 967 482 969 q 500 958 493 964 l 636 857 q 640 854 639 856 q 650 849 647 851 q 653 843 653 847 q 647 828 653 839 q 646 825 647 826 l 625 771 q 624 768 625 769 q 619 757 621 763 q 617 740 618 751 q 615 705 615 728 q 615 642 615 682 l 615 246 q 629 211 615 224 q 679 163 656 188 q 696 146 688 154 q 703 135 703 139 q 697 125 703 131 l 528 -64 q 521 -70 524 -68 q 517 -72 518 -72 m 315 250 q 339 250 328 250 q 373 251 363 250 q 385 259 383 253 q 388 281 388 265 l 388 704 q 379 722 386 715 q 363 729 372 729 l 322 728 q 308 722 313 728 q 299 710 303 717 q 296 697 296 704 l 297 267 q 315 250 301 250 z "},"R":{"ha":718,"x_min":29,"x_max":690,"o":"m 450 -4 q 437 -1 442 -4 q 428 8 432 1 q 385 92 399 65 q 368 123 372 114 q 364 138 364 132 q 365 150 364 144 q 367 168 367 158 q 356 217 367 193 q 333 267 346 242 q 318 296 325 281 l 314 294 l 314 258 q 316 242 314 251 q 324 216 318 233 q 344 164 331 199 q 347 151 347 158 q 342 128 347 144 q 324 76 336 113 q 300 10 314 50 q 297 1 299 4 q 292 -2 294 -1 q 282 -3 289 -3 q 99 -4 190 -3 q 92 -3 94 -4 q 86 2 89 -3 q 80 18 83 7 q 69 49 76 29 q 38 146 60 81 l 36 153 q 39 167 36 158 q 47 194 42 175 q 61 239 53 211 q 61 240 61 239 q 63 245 63 243 q 63 251 63 247 q 64 264 64 256 q 64 286 64 272 l 61 674 q 56 721 61 700 q 43 761 50 742 q 29 806 36 782 q 35 828 29 813 q 54 883 40 844 q 78 949 64 908 q 83 957 81 954 q 88 961 85 960 q 97 963 90 963 q 485 971 292 965 q 540 953 518 971 q 654 871 622 893 q 683 850 675 856 q 690 840 690 844 q 690 836 690 838 q 689 833 689 835 q 689 832 689 833 q 688 828 689 831 q 685 823 686 826 q 681 813 683 819 q 673 795 678 806 q 662 770 668 785 q 646 736 656 756 q 643 728 644 732 q 642 715 642 724 q 643 690 642 707 q 646 601 644 665 q 647 592 646 596 q 651 582 649 588 q 657 567 653 576 q 672 532 663 554 q 676 518 676 524 q 674 512 676 515 q 667 503 672 508 q 593 431 618 454 q 567 406 576 415 q 556 393 558 397 q 553 386 553 389 l 554 381 q 586 296 575 325 q 604 249 597 265 q 620 220 611 233 q 647 183 629 207 q 656 174 651 179 q 663 156 663 167 l 631 13 q 628 5 629 7 q 624 1 626 3 q 614 0 621 0 l 450 -4 m 344 596 q 372 596 363 596 q 385 597 381 596 q 392 601 389 599 q 411 635 411 614 q 408 658 410 649 q 404 690 408 675 q 385 722 400 704 q 383 724 385 724 q 379 728 382 728 q 371 729 376 729 l 313 728 q 306 727 308 728 q 303 722 304 726 q 303 706 303 717 q 303 682 303 697 q 304 604 304 657 q 307 597 304 599 q 318 596 310 596 l 344 596 z "},"S":{"ha":736,"x_min":17,"x_max":703,"o":"m 238 0 q 212 1 219 0 q 200 3 204 1 q 193 7 196 4 q 192 8 192 8 q 92 85 125 60 q 53 114 67 104 q 37 128 40 124 q 33 139 33 133 l 33 144 q 53 265 46 219 q 65 335 61 311 q 74 369 69 360 q 83 378 78 378 l 97 374 l 297 306 q 310 301 306 303 q 315 294 314 299 q 315 279 315 290 l 315 257 q 316 247 315 250 q 321 244 317 244 l 394 247 q 403 251 401 247 q 406 267 406 256 l 404 319 q 401 327 404 325 q 394 331 397 329 q 393 331 393 331 l 82 454 q 65 478 65 460 q 64 635 64 582 q 63 690 63 669 q 62 719 63 710 q 60 734 61 729 q 56 743 58 739 q 54 744 54 743 l 21 811 q 17 824 17 819 q 19 829 17 826 q 28 836 22 832 q 101 897 72 872 q 144 932 128 918 q 171 953 161 946 q 185 965 181 961 q 194 969 190 968 q 200 969 197 969 q 201 969 200 969 q 415 975 349 972 q 486 976 464 976 q 508 975 501 976 q 519 972 515 974 q 528 967 524 971 q 528 967 528 967 q 576 931 553 949 q 693 847 635 889 q 696 844 694 846 q 701 840 699 843 q 703 835 703 838 l 701 828 q 682 789 692 808 q 663 749 672 768 q 658 738 660 743 q 656 724 657 732 q 656 700 656 715 l 657 599 q 656 588 657 592 q 649 583 654 583 l 638 583 q 619 586 628 583 l 397 660 q 389 663 392 661 q 385 668 386 665 q 383 678 383 671 l 383 711 q 381 718 383 717 q 368 719 378 719 l 319 719 q 314 718 315 719 q 312 710 313 717 q 311 689 311 703 q 310 624 311 669 l 310 622 q 310 618 310 619 q 315 615 311 617 q 325 609 318 613 q 345 601 332 606 q 378 588 358 596 q 482 546 414 574 l 639 483 q 650 467 650 482 l 650 233 q 651 224 650 228 q 656 215 653 221 q 667 196 660 208 q 690 154 675 182 l 694 143 q 692 138 694 140 q 686 133 690 136 q 600 65 632 92 q 555 31 571 43 q 530 12 539 18 q 517 4 521 6 q 508 3 513 3 l 504 3 q 297 1 361 1 q 238 0 258 0 z "},"T":{"ha":835,"x_min":-18,"x_max":843,"o":"m 315 0 q 305 1 308 0 q 299 5 301 1 q 294 15 297 8 q 263 103 274 71 q 244 149 250 135 q 239 169 239 163 q 240 176 239 174 q 243 182 242 179 q 263 226 256 210 q 274 252 271 243 q 278 266 278 261 q 279 275 279 271 q 275 522 276 433 q 274 572 275 549 q 274 612 274 594 q 274 642 274 629 q 273 666 274 656 q 272 683 272 676 q 272 694 272 689 q 272 701 272 699 q 271 704 271 703 q 270 706 271 706 q 269 707 269 707 l 268 708 q 263 706 267 708 q 253 699 260 704 q 235 684 247 693 q 206 658 224 675 q 165 625 189 644 q 164 624 165 625 q 156 619 160 621 q 150 617 153 617 q 138 620 144 617 q 117 632 131 624 q -7 700 88 651 q -15 705 -12 703 q -18 710 -18 707 q -14 722 -18 714 q 114 960 51 842 q 125 971 118 968 q 151 974 132 974 l 228 972 l 417 972 l 417 969 l 690 969 q 701 967 697 969 q 710 958 706 964 q 796 806 751 882 q 839 729 817 768 q 843 718 843 722 q 833 707 843 711 l 674 610 q 668 612 671 610 q 661 618 665 614 q 588 684 610 664 q 564 704 565 704 q 554 707 558 707 q 543 693 544 707 l 543 335 q 543 294 543 308 q 544 272 543 279 q 545 262 544 265 q 547 256 546 258 q 547 254 547 254 q 563 218 556 233 q 581 176 575 189 q 586 156 586 163 l 583 146 l 540 17 q 521 1 538 1 l 315 0 z "},"U":{"ha":776,"x_min":19,"x_max":739,"o":"m 263 0 q 233 1 243 0 q 216 2 222 1 q 207 4 210 3 q 201 7 204 6 q 200 8 201 8 q 26 136 114 74 q 21 140 22 139 q 19 144 19 142 l 22 154 q 46 206 38 189 q 56 227 53 219 q 60 240 58 235 q 61 253 61 246 l 58 715 q 57 731 58 724 q 50 753 56 739 q 33 796 44 768 l 31 806 q 35 826 31 811 q 53 879 40 842 q 79 956 63 908 q 83 964 81 961 q 88 967 85 967 q 96 968 90 968 l 290 971 q 304 969 300 971 q 310 963 308 968 q 317 949 313 958 q 349 868 338 896 q 362 835 358 846 q 365 818 365 824 q 365 813 365 815 q 363 807 364 810 q 326 732 343 771 q 326 731 326 732 q 323 724 324 728 q 322 715 322 721 q 321 693 321 708 q 322 615 321 669 q 326 285 324 526 q 330 269 326 276 q 339 257 333 263 q 344 249 342 253 q 346 248 344 249 q 349 247 347 247 q 353 246 350 246 q 363 246 357 246 q 378 246 369 246 q 401 246 388 246 q 407 247 404 246 q 411 249 410 247 q 417 257 414 253 q 426 271 422 264 q 431 289 431 278 q 432 415 431 331 q 434 583 433 500 q 436 710 435 665 l 436 715 q 433 731 436 722 q 422 759 431 740 q 394 813 413 778 q 394 814 394 813 q 392 817 393 815 q 392 822 392 819 q 396 839 392 828 q 411 878 400 850 q 444 963 422 907 q 444 964 444 963 q 449 969 446 967 q 459 973 451 972 q 485 974 467 974 l 661 971 q 671 970 668 971 q 675 967 674 969 q 678 960 676 965 q 701 889 692 917 q 721 833 715 850 q 726 808 726 817 q 725 803 726 806 q 722 797 724 800 q 706 753 711 776 q 699 691 700 731 q 697 579 697 651 l 697 256 q 701 232 697 243 q 715 201 706 221 q 735 158 722 185 l 739 149 q 736 144 739 146 q 728 138 733 142 q 600 43 639 72 q 574 24 585 32 q 558 13 564 17 q 548 6 551 8 q 543 3 544 4 q 539 3 542 3 l 263 0 z "},"V":{"ha":683,"x_min":13,"x_max":664,"o":"m 460 0 q 214 1 338 1 q 192 15 197 1 q 147 96 163 68 q 131 126 136 115 q 123 141 125 136 q 121 150 121 146 l 122 157 q 125 168 124 163 q 131 188 126 178 q 133 213 133 200 q 132 232 133 222 q 78 522 96 422 q 58 629 65 590 q 46 687 50 668 q 38 714 42 706 q 31 732 35 722 q 26 739 29 735 q 24 743 25 742 q 16 758 19 751 q 13 776 13 765 l 14 792 q 26 924 25 886 q 31 956 29 946 q 35 967 32 965 q 43 969 38 969 l 231 975 q 240 973 238 975 q 247 963 243 971 q 257 939 250 956 q 304 817 267 907 l 307 808 q 306 801 307 806 q 301 789 304 797 q 290 753 297 776 l 289 743 q 292 722 289 738 q 301 671 294 707 q 326 544 310 629 q 327 538 326 542 q 332 531 328 535 q 339 561 332 531 q 355 630 346 592 q 371 698 364 668 q 379 731 378 728 l 381 746 q 377 767 381 754 q 367 801 374 779 l 364 811 q 370 833 364 818 q 393 883 376 847 q 422 949 404 910 q 422 950 422 949 q 431 963 426 958 q 444 968 435 968 l 614 968 q 624 966 621 968 q 629 955 626 964 q 636 925 632 946 q 644 883 639 908 q 657 829 653 847 q 664 797 664 806 q 663 792 664 794 q 660 786 661 789 q 631 726 640 753 q 615 656 622 700 q 551 317 569 408 q 536 238 540 261 q 532 207 532 215 q 533 201 532 204 q 535 197 533 199 q 535 196 535 196 q 542 176 539 186 q 550 151 546 164 q 551 143 551 147 q 549 135 551 139 l 478 10 q 460 0 472 0 z "},"W":{"ha":836,"x_min":17,"x_max":797,"o":"m 468 0 q 456 1 460 0 q 451 5 453 1 q 447 17 449 8 q 424 115 431 83 q 417 139 419 129 q 413 154 415 149 q 410 162 411 160 q 409 165 410 164 q 407 167 408 167 q 407 167 407 167 l 369 15 q 365 3 368 6 q 351 0 363 0 q 189 1 271 1 q 164 18 171 1 q 111 119 126 92 q 98 144 101 136 q 94 157 94 151 l 96 164 q 101 185 99 175 q 108 213 106 203 q 111 229 111 222 l 110 240 q 67 560 81 456 q 53 662 58 625 q 45 717 49 699 q 39 743 42 735 q 31 761 36 751 q 28 768 29 764 q 24 776 26 772 q 19 789 21 783 q 17 803 17 794 q 19 828 17 813 q 28 875 22 844 q 39 944 32 903 q 42 960 40 956 q 47 966 44 965 q 56 967 50 967 q 221 972 139 968 q 228 971 225 972 q 233 964 231 969 q 238 947 235 958 q 244 913 240 935 q 257 844 249 886 l 290 675 q 294 678 293 676 q 294 682 294 681 l 311 951 q 313 963 311 961 q 324 965 315 965 q 324 965 324 965 q 394 967 358 967 l 489 965 q 499 963 497 965 q 501 953 501 961 l 517 719 l 518 706 q 536 744 532 724 q 539 761 539 753 q 536 779 539 769 q 531 808 531 794 q 543 854 531 832 q 550 871 547 863 q 557 886 553 879 q 578 958 572 921 q 581 968 579 965 q 585 972 582 971 q 596 972 589 972 q 600 972 597 972 q 756 969 678 969 q 768 967 765 969 q 772 956 771 965 q 785 888 779 915 q 794 829 792 849 q 797 801 797 810 q 797 793 797 796 q 793 786 796 790 q 784 771 789 782 q 774 734 779 760 q 761 658 768 708 q 715 318 728 401 q 708 255 710 274 q 706 228 706 236 l 707 214 l 719 165 l 721 157 q 717 145 721 153 q 704 121 714 138 q 651 17 689 93 q 642 7 647 10 q 631 4 638 4 l 468 0 z "},"X":{"ha":678,"x_min":18,"x_max":649,"o":"m 593 0 l 392 1 q 378 3 382 1 q 374 15 375 6 l 335 185 q 330 178 331 182 q 329 172 329 175 l 293 19 q 288 4 292 7 q 271 1 285 1 q 69 3 171 1 q 58 4 61 3 q 54 14 56 6 l 18 160 q 26 178 18 169 l 74 228 q 79 235 76 232 q 85 246 82 239 q 96 267 89 253 q 114 307 103 282 q 189 472 136 357 q 192 485 192 478 q 189 499 192 492 q 111 669 132 621 q 94 705 100 692 q 84 725 88 718 q 78 735 81 732 q 72 742 76 739 l 25 792 q 18 810 18 800 l 54 956 q 58 966 56 964 q 69 968 61 968 l 272 968 q 288 965 285 968 q 293 951 292 963 l 329 796 q 331 793 329 794 q 331 789 331 792 q 335 783 332 786 l 374 953 q 378 966 375 964 q 392 968 382 968 l 597 969 q 611 958 610 969 q 631 885 622 914 q 644 833 640 850 q 649 808 649 817 q 647 801 649 804 q 642 794 644 797 q 642 794 642 794 l 596 744 q 589 736 592 740 q 582 724 586 732 q 571 701 578 717 q 551 658 564 686 q 479 499 529 610 q 479 499 479 499 q 476 492 478 494 q 475 486 475 490 q 483 462 475 479 q 510 403 490 444 q 578 253 532 354 q 597 224 586 236 q 607 213 603 218 q 640 178 624 194 q 649 157 649 168 l 647 147 q 613 15 629 82 q 609 5 611 8 q 604 1 607 1 q 593 0 601 0 z "},"Y":{"ha":661,"x_min":-1,"x_max":650,"o":"m 222 0 q 211 1 215 0 q 206 3 207 1 q 204 7 206 4 q 204 7 204 7 q 172 90 192 50 q 160 121 165 106 q 151 142 156 133 q 146 160 146 153 q 150 172 146 165 q 172 216 164 200 q 183 240 179 232 q 187 253 186 249 q 188 261 188 257 l 190 353 q 190 367 190 363 q 186 378 189 372 q 114 554 142 486 q 71 658 86 621 q 47 715 56 696 q 31 746 38 735 q 17 771 25 757 q 6 789 13 778 q -1 811 -1 800 l 0 824 q 22 922 17 892 q 29 951 26 942 q 35 962 32 960 q 46 964 39 964 l 229 967 q 242 965 238 967 q 251 951 246 963 q 268 918 257 940 q 304 843 281 892 q 310 824 310 833 q 308 813 310 818 l 300 775 l 299 767 q 303 753 299 760 q 310 739 306 746 q 324 711 314 725 q 339 742 333 731 q 347 758 344 753 q 349 765 349 763 l 336 818 l 336 824 q 339 839 336 832 q 353 867 344 850 q 371 903 363 885 q 385 933 379 921 q 392 946 392 946 q 399 960 396 956 q 406 965 401 964 q 417 967 410 967 l 597 964 q 612 962 608 964 q 618 949 615 960 q 649 814 632 881 l 650 808 q 647 799 650 806 q 638 782 644 793 q 618 750 631 771 q 607 732 614 742 q 607 731 607 732 q 604 726 606 729 q 600 718 603 724 q 592 701 597 713 q 579 669 588 689 q 558 618 571 650 q 460 378 529 546 q 456 368 457 372 q 456 354 456 364 l 458 258 q 460 251 458 256 q 465 238 461 246 q 476 215 468 231 q 497 172 483 199 q 499 167 499 169 q 500 161 500 165 q 497 147 500 157 q 485 115 493 138 q 446 19 472 86 q 426 7 442 7 q 269 1 317 4 q 222 0 238 0 z "},"Z":{"ha":663,"x_min":3,"x_max":651,"o":"m 510 -3 q 94 3 303 1 q 85 3 88 3 q 80 7 82 4 q 75 15 78 10 l 21 168 l 19 176 q 25 190 19 183 q 74 249 50 219 q 74 249 74 249 q 77 253 75 251 q 82 261 79 256 q 90 278 85 267 q 103 308 94 289 q 124 356 111 326 q 156 429 136 386 q 268 688 194 518 q 269 693 268 690 q 271 699 271 696 l 264 700 q 247 692 254 700 q 215 658 228 671 q 196 638 203 644 q 185 627 189 631 q 181 622 182 624 q 178 619 179 621 q 171 615 174 615 q 156 622 165 615 q 142 631 150 626 q 28 697 47 686 q 19 702 22 700 q 15 705 17 704 q 12 706 13 706 q 10 708 11 707 q 10 708 10 708 q 3 717 3 713 q 10 732 3 722 q 17 743 13 736 q 60 824 38 783 q 126 949 93 886 q 150 964 133 964 l 553 967 q 566 966 563 967 q 572 962 569 965 q 578 951 575 958 q 601 892 592 917 q 624 831 618 849 q 631 806 631 813 q 630 801 631 803 q 628 797 629 799 q 626 796 626 796 q 585 745 599 763 q 566 720 571 728 q 558 707 561 713 l 371 282 q 367 276 368 279 q 365 265 365 272 l 397 265 q 408 266 404 265 q 415 269 413 267 q 421 275 418 271 q 451 311 439 296 q 479 344 471 335 q 492 353 488 353 l 499 350 l 638 268 q 649 262 646 264 q 651 257 651 260 q 649 247 651 254 l 538 14 q 526 1 532 4 q 510 -3 521 -3 z "},"[":{"ha":329,"x_min":28,"x_max":301,"o":"m 57 -6 q 39 -4 49 -6 q 28 10 29 -3 q 28 49 28 22 q 33 360 31 143 q 40 854 39 674 l 43 963 q 48 997 43 992 q 168 1001 53 1001 q 297 997 293 1001 q 301 951 301 993 q 299 921 301 938 q 295 910 299 914 q 235 906 292 906 q 194 905 196 906 q 193 897 193 904 q 189 101 193 571 q 189 94 189 97 q 193 92 189 92 l 272 92 q 288 90 281 92 q 299 85 296 88 q 301 71 301 83 l 300 10 q 289 -3 299 -1 q 57 -6 271 -6 z "},"\\":{"ha":486,"x_min":28,"x_max":458,"o":"m 443 -7 l 388 -7 l 388 -6 q 317 -3 319 -6 q 313 7 314 -1 q 271 157 294 81 l 33 918 q 28 963 28 940 l 28 971 q 101 982 28 982 l 129 983 q 141 981 138 983 q 147 969 144 979 l 453 56 q 458 11 458 33 q 458 1 458 7 q 453 -6 457 -4 q 443 -7 449 -7 z "},"]":{"ha":329,"x_min":28,"x_max":301,"o":"m 282 -4 l 61 -4 q 33 1 39 -4 q 28 76 28 7 q 32 88 29 85 q 60 93 35 92 q 132 92 76 92 q 139 94 139 92 q 138 501 139 96 q 135 906 136 906 q 92 907 135 907 q 42 908 49 907 q 31 914 35 910 q 28 988 28 918 q 31 998 29 996 q 40 1001 33 1000 q 158 1003 46 1003 l 267 1003 q 283 997 278 1001 q 289 774 289 992 q 294 494 290 635 l 301 26 q 301 7 301 18 q 282 -4 300 -4 z "},"^":{"ha":468,"x_min":28,"x_max":440,"o":"m 97 760 l 39 760 q 31 762 33 760 q 28 769 28 764 q 39 831 28 803 q 119 988 81 908 l 168 1082 q 190 1106 181 1106 l 279 1106 q 290 1101 286 1106 q 433 824 293 1096 q 440 796 440 810 q 439 766 440 767 q 432 764 438 765 q 364 763 368 764 q 353 769 358 763 q 344 785 349 775 q 239 990 293 888 l 235 999 q 229 990 231 994 q 117 772 125 785 q 97 760 110 760 z "},"_":{"ha":574,"x_min":28,"x_max":546,"o":"m 515 -26 l 186 -25 q 38 -24 47 -25 q 28 -12 29 -22 l 29 54 q 33 67 31 64 q 46 71 36 69 l 514 71 q 546 60 546 71 l 544 -14 q 515 -26 544 -26 z "},"`":{"ha":188,"x_min":28,"x_max":160,"o":"m 146 949 l 39 950 q 28 953 29 950 q 28 1071 28 957 q 32 1085 28 1078 q 85 1185 60 1135 q 93 1197 90 1196 q 104 1199 96 1199 q 132 1197 121 1199 q 140 1190 139 1197 l 138 1092 q 139 1084 138 1085 q 148 1083 140 1083 q 158 1083 156 1083 q 160 1017 160 1082 q 158 951 160 954 q 146 949 156 949 z "},"a":{"ha":694,"x_min":1,"x_max":689,"o":"m 458 0 q 448 3 451 0 q 442 11 444 6 q 423 60 433 33 q 406 106 413 86 q 396 129 399 124 q 389 147 392 142 q 385 156 386 153 q 385 164 385 160 q 385 171 385 167 q 389 183 386 175 q 392 193 390 188 l 393 201 q 391 205 393 204 q 383 206 389 206 l 346 207 l 307 206 q 307 206 307 206 q 299 204 301 206 q 297 201 297 203 l 299 194 q 301 188 300 190 q 306 167 306 179 q 297 135 306 154 q 254 28 263 54 q 247 9 250 15 q 242 1 244 3 q 233 0 239 0 l 39 3 q 29 4 32 3 q 25 8 26 6 q 24 18 24 11 q 13 92 17 63 q 4 143 7 126 q 1 167 1 160 q 3 173 1 171 q 6 178 4 175 q 6 178 6 178 q 58 322 47 244 q 133 675 114 590 q 146 733 142 714 q 150 763 150 753 q 149 771 150 767 q 146 779 147 775 q 139 796 142 788 q 132 813 136 804 q 129 824 129 818 q 133 838 129 831 q 176 910 161 883 q 194 942 188 931 q 206 958 201 953 q 214 964 211 963 q 222 965 217 965 l 471 965 q 481 963 476 965 q 490 950 485 960 q 507 922 496 940 q 556 839 522 894 q 561 824 561 831 q 558 811 561 818 l 543 776 q 543 775 543 776 q 541 770 542 772 q 540 764 540 768 q 546 726 540 754 q 567 629 551 699 q 592 511 576 583 q 626 349 614 404 q 638 288 633 310 q 646 256 643 267 q 651 241 649 246 q 656 232 653 236 q 663 218 660 225 q 679 188 674 199 q 687 173 685 178 q 689 165 689 168 l 689 161 q 686 144 688 153 q 667 18 678 82 q 665 8 667 11 q 660 4 664 6 q 650 3 657 3 q 458 0 554 3 m 401 397 q 408 399 407 397 q 410 404 410 401 l 408 414 l 347 689 l 343 689 l 281 403 q 285 399 281 400 q 304 397 290 397 l 401 397 z "},"b":{"ha":713,"x_min":36,"x_max":682,"o":"m 299 -4 l 99 -4 q 90 -2 93 -4 q 83 9 86 0 q 74 38 79 18 q 39 144 64 69 q 36 157 36 151 l 39 171 l 64 225 q 71 261 71 243 l 71 389 q 71 604 71 536 q 72 668 72 643 q 72 708 72 696 q 69 726 71 721 q 64 738 67 732 q 64 739 64 739 l 40 794 q 40 794 40 794 q 38 801 39 799 q 36 808 36 804 q 42 835 36 817 q 63 894 47 853 q 82 954 71 919 q 87 965 85 961 q 92 969 89 968 q 104 969 96 969 q 354 968 269 968 q 429 967 400 967 q 475 966 458 967 q 500 965 492 965 q 512 963 508 964 q 517 958 515 961 q 518 958 518 958 l 668 835 q 674 828 672 831 q 676 824 676 826 l 674 813 q 657 765 663 781 q 649 745 651 751 q 647 735 647 739 q 646 728 646 732 q 643 681 644 699 q 642 653 642 664 q 645 629 642 639 q 658 600 649 619 q 678 558 665 585 l 682 549 q 676 538 682 544 q 656 518 669 532 q 625 490 643 508 q 619 483 619 486 q 625 475 619 481 q 656 446 644 457 q 676 427 671 433 q 682 417 682 421 q 678 408 682 414 q 676 406 678 407 q 656 361 664 376 q 644 335 647 343 q 642 321 642 328 l 642 317 q 643 267 643 283 q 645 239 644 249 q 649 220 646 229 q 658 194 651 211 q 674 153 664 179 l 676 142 q 674 137 676 139 q 668 131 672 135 q 596 71 625 94 q 548 31 565 46 q 522 10 531 17 q 508 1 513 3 q 499 0 503 0 l 299 -1 l 299 -4 m 388 197 q 409 203 401 197 q 431 224 417 208 q 435 229 433 226 q 438 237 438 232 q 440 251 439 242 q 440 278 440 261 q 444 353 442 304 q 443 362 444 358 q 438 369 442 365 q 417 390 424 382 q 409 398 413 394 q 403 402 406 401 q 396 403 400 403 q 392 403 394 403 q 282 406 336 406 l 276 406 q 270 403 271 406 q 269 393 269 400 l 269 304 l 272 304 l 272 214 q 274 204 272 207 q 283 201 275 201 q 308 200 292 200 q 365 199 329 200 l 388 197 m 285 560 l 376 561 q 428 586 408 561 q 435 593 431 590 q 442 601 439 597 q 444 615 444 606 q 440 688 442 663 q 438 722 439 711 q 431 741 436 733 q 414 760 425 749 q 411 763 413 761 q 410 764 411 763 q 406 766 408 765 q 401 767 404 767 q 390 768 397 768 l 285 764 q 274 763 275 764 q 272 751 272 761 l 272 663 l 269 663 l 269 575 q 272 562 269 564 q 285 560 274 560 z "},"c":{"ha":717,"x_min":25,"x_max":693,"o":"m 254 0 q 230 1 238 0 q 219 3 222 1 q 213 7 215 4 q 211 8 213 8 q 44 139 128 75 q 38 144 40 142 q 36 147 36 146 q 40 157 36 151 q 61 196 53 182 q 72 217 68 210 q 77 229 76 225 q 78 239 78 233 q 71 736 74 488 q 67 751 71 744 q 56 772 64 758 q 29 818 46 788 q 25 828 25 824 q 27 831 25 829 q 33 836 29 833 q 129 910 93 882 q 167 940 151 928 q 191 958 182 951 q 205 967 200 964 q 213 972 210 971 q 218 972 215 972 l 221 972 q 368 972 313 972 q 453 972 422 972 q 497 970 483 971 q 517 967 511 969 q 528 960 524 965 q 531 958 529 960 q 653 872 617 896 q 677 855 668 861 q 690 845 686 849 q 693 839 693 842 l 690 832 q 672 792 678 806 q 663 772 665 779 q 661 757 661 765 q 663 686 663 722 q 665 623 664 650 q 665 590 665 596 l 665 589 q 651 578 665 578 q 515 622 621 578 q 421 658 474 639 q 406 664 411 661 q 400 672 401 667 q 399 688 399 678 l 400 704 q 397 713 400 708 q 385 717 392 717 l 376 717 l 354 719 q 338 713 342 719 q 333 694 333 706 q 335 588 335 621 q 338 544 336 556 q 338 531 338 536 q 338 519 338 526 q 338 494 338 511 l 342 294 q 372 264 342 265 q 388 266 386 264 q 390 282 390 268 l 383 443 q 385 456 383 451 q 396 460 388 460 q 518 422 419 460 q 614 389 557 408 q 629 383 622 386 q 645 377 640 379 q 651 372 650 375 q 653 364 653 369 l 653 286 q 653 253 653 264 q 654 234 653 242 q 658 219 656 226 q 661 208 660 214 q 676 156 668 182 q 678 146 678 150 q 669 131 678 138 q 588 57 617 83 q 554 26 567 38 q 535 10 542 15 q 523 4 528 6 q 511 3 518 3 l 510 3 q 311 1 372 1 q 254 0 275 0 z "},"d":{"ha":751,"x_min":36,"x_max":731,"o":"m 103 10 q 91 17 94 10 q 83 38 88 24 q 76 57 81 46 q 54 113 64 92 q 40 151 44 139 q 36 169 36 164 q 37 174 36 172 q 39 179 38 176 q 58 219 51 204 q 69 241 65 233 q 73 253 72 249 q 74 263 74 258 q 75 485 75 374 l 75 707 q 64 754 75 732 q 50 783 56 768 q 39 804 44 794 q 36 818 36 811 l 38 826 q 71 915 60 885 q 86 956 81 943 q 95 971 92 968 q 106 974 99 974 l 554 969 q 585 954 574 969 q 682 832 650 871 q 712 795 701 808 q 726 775 722 782 q 729 765 729 768 q 726 758 729 761 q 726 757 726 757 l 701 711 q 694 689 694 700 l 696 503 q 694 340 696 382 q 693 307 693 319 q 694 285 693 292 q 700 274 696 279 l 725 231 l 731 218 q 728 213 731 215 q 722 204 726 210 q 649 111 678 147 q 607 58 622 78 q 583 29 592 39 q 569 17 575 19 q 558 15 564 15 l 103 10 m 375 233 q 410 234 399 233 q 427 238 421 235 q 440 250 433 242 q 446 256 443 253 q 458 283 457 265 l 458 482 q 457 681 458 582 q 456 708 457 700 q 449 724 454 717 q 431 743 443 731 q 424 749 428 747 q 409 751 419 750 q 378 751 399 751 q 328 751 358 751 q 316 749 318 751 q 314 738 314 747 l 314 492 l 315 492 l 314 250 q 315 237 314 240 q 324 233 317 233 l 375 233 z "},"e":{"ha":708,"x_min":36,"x_max":696,"o":"m 336 0 l 111 0 q 106 1 108 0 q 101 6 103 1 q 94 20 99 11 q 83 46 90 29 q 40 151 71 79 q 38 167 38 160 q 40 182 38 175 l 68 244 q 71 261 71 253 l 72 618 q 72 682 72 658 q 69 717 71 706 q 66 736 68 729 q 60 750 64 743 q 46 781 51 764 q 39 796 42 788 q 38 797 39 797 q 37 801 38 800 q 36 806 36 803 q 41 824 36 811 q 60 868 46 838 q 99 964 74 901 q 113 974 103 974 l 563 972 q 569 969 567 972 q 576 960 572 967 q 586 939 581 953 q 597 917 592 929 l 690 722 q 696 708 696 713 q 693 702 696 704 q 685 696 690 700 q 622 653 664 682 q 550 604 579 624 q 540 599 544 599 q 537 601 539 599 q 532 606 535 603 q 486 651 503 635 q 460 678 469 669 q 444 690 450 688 q 429 694 438 693 q 367 703 383 700 q 350 706 356 706 q 345 703 346 706 q 344 694 344 700 q 343 629 343 663 l 343 628 q 345 620 343 622 q 356 617 347 618 q 382 617 364 617 q 425 617 399 617 q 447 615 440 617 q 456 610 453 614 q 460 601 458 607 q 460 599 460 600 q 492 476 481 518 q 504 429 500 446 q 510 405 508 413 q 511 392 511 397 l 510 375 q 509 371 510 372 q 505 368 508 369 q 493 366 501 367 q 470 365 485 365 q 432 364 456 365 q 358 363 403 364 q 345 360 347 363 q 343 347 343 358 q 344 279 343 314 q 345 272 344 274 q 349 269 346 269 l 354 269 q 403 276 385 274 q 428 281 419 279 q 442 283 438 282 q 449 286 447 285 q 454 290 451 288 l 535 371 q 542 375 539 375 q 549 372 546 375 l 685 279 q 693 272 690 275 q 696 267 696 269 q 692 253 696 261 l 576 15 q 567 3 574 6 q 554 1 561 1 l 336 1 l 336 0 z "},"f":{"ha":685,"x_min":38,"x_max":699,"o":"m 308 0 l 103 1 q 93 2 96 1 q 88 6 90 3 q 85 15 86 8 q 63 79 71 53 q 47 124 53 107 q 40 148 42 140 q 38 160 38 156 l 39 168 q 46 189 43 179 q 60 233 54 217 q 67 259 65 250 q 70 274 69 268 q 71 285 71 279 q 69 572 69 476 q 69 651 69 619 q 69 699 69 682 q 68 725 68 717 q 67 738 68 733 q 64 744 65 742 q 64 746 64 746 q 42 800 51 774 q 42 800 42 800 q 40 805 40 803 q 39 811 39 807 q 44 832 39 817 q 61 882 49 847 q 88 957 71 910 q 92 967 90 964 q 98 972 94 971 q 110 972 101 972 l 325 972 l 325 971 q 538 972 432 971 q 568 954 558 972 q 658 792 617 867 q 694 726 690 733 l 699 718 q 697 714 699 715 q 690 710 694 713 l 560 629 q 549 625 554 625 q 538 629 543 625 l 429 708 q 417 715 422 714 q 401 717 411 717 l 356 717 q 346 706 346 717 q 347 621 346 664 q 349 612 347 614 q 358 610 350 610 l 419 610 q 443 609 436 610 q 453 605 450 608 q 457 596 456 601 q 457 593 457 594 q 476 514 468 549 q 506 379 506 414 q 494 361 506 361 l 358 364 q 347 363 349 364 q 344 350 344 361 q 344 328 344 338 q 347 276 346 294 q 353 241 349 258 q 367 193 357 224 q 374 167 369 181 l 376 154 q 372 135 376 147 q 357 93 368 122 q 331 18 347 67 q 331 17 331 18 q 324 3 326 6 q 308 0 321 0 z "},"g":{"ha":800,"x_min":25,"x_max":767,"o":"m 565 10 l 286 10 q 253 10 265 10 q 236 10 242 10 q 228 13 231 11 q 222 15 225 14 q 222 15 222 15 l 38 139 q 25 153 25 146 q 31 167 25 158 l 60 221 q 60 221 60 221 q 63 226 61 224 q 64 234 64 228 q 65 253 64 240 q 65 288 65 265 q 67 343 65 310 q 69 543 67 410 l 74 728 q 73 743 74 738 q 72 751 72 749 q 69 756 71 753 q 69 757 69 757 l 44 819 q 40 835 40 831 q 44 842 40 839 q 54 850 47 846 l 213 961 q 214 963 214 961 q 222 967 218 965 q 233 969 225 968 q 255 969 240 969 q 296 969 269 969 l 569 969 q 578 968 574 969 q 590 961 582 967 q 615 944 599 956 q 661 910 632 932 q 751 842 694 885 q 756 839 754 840 q 764 832 761 835 q 767 826 767 829 l 764 818 q 742 781 753 800 q 728 757 735 769 q 728 757 728 757 q 724 749 725 753 q 722 738 722 746 q 721 714 721 731 l 722 607 q 721 597 722 601 q 713 593 719 593 l 693 593 q 677 594 686 593 q 650 602 668 596 q 596 619 632 608 q 465 663 551 635 q 456 666 458 664 q 452 671 453 668 q 451 681 451 674 q 451 696 451 690 q 450 717 451 711 q 442 722 449 722 l 439 722 q 417 721 428 722 q 374 718 396 721 q 358 710 364 718 q 351 690 351 701 l 357 399 q 357 399 357 399 q 360 401 358 400 q 362 404 361 401 q 364 412 363 407 q 368 425 365 417 q 374 447 371 433 q 404 554 383 479 q 409 565 407 561 q 415 569 411 568 q 425 569 418 569 l 692 568 q 715 564 711 568 q 719 540 719 560 q 724 361 722 426 q 727 261 725 293 q 733 214 729 229 q 749 182 738 199 q 761 158 754 172 q 765 146 765 150 q 763 140 765 143 q 754 133 760 138 q 703 99 726 114 q 643 56 667 72 q 606 31 619 40 q 584 17 592 21 q 573 11 576 13 q 565 10 569 10 m 385 249 l 436 251 q 444 254 443 251 q 446 267 446 257 l 446 289 l 444 289 l 444 317 q 443 329 444 326 q 436 332 442 332 l 378 332 q 362 331 365 332 q 358 325 358 329 l 358 279 q 359 265 358 269 q 361 259 360 261 q 367 254 363 257 q 376 250 372 251 q 385 249 379 249 z "},"h":{"ha":792,"x_min":33,"x_max":751,"o":"m 315 -4 l 213 -4 l 213 -1 l 111 -1 q 95 1 99 -1 q 88 15 92 3 q 36 151 61 83 q 33 163 33 157 q 36 172 33 167 q 61 221 53 204 q 72 246 69 238 q 74 263 74 254 l 74 721 q 71 728 74 725 q 69 732 71 731 l 38 796 q 35 801 36 799 q 33 807 33 804 q 37 822 33 813 q 49 853 40 832 q 88 954 61 883 q 111 971 93 971 q 176 972 142 971 q 264 973 225 972 q 313 975 303 974 l 317 975 q 327 974 324 975 q 333 966 331 972 q 339 946 336 960 q 371 850 346 921 q 375 824 375 836 q 367 789 375 806 q 356 764 361 776 q 347 744 351 754 q 343 733 344 739 q 342 713 342 726 l 343 622 q 344 614 343 617 q 347 610 344 611 q 354 610 349 610 l 399 608 l 443 610 q 453 611 451 610 q 454 621 454 613 q 454 664 454 646 q 453 697 453 685 q 452 717 453 710 q 451 727 451 724 q 447 735 450 731 q 431 772 438 757 q 417 805 421 794 q 413 821 413 815 l 415 831 l 463 957 q 482 972 465 972 l 685 972 q 696 970 693 972 q 701 960 699 968 q 703 958 703 960 l 749 825 q 751 814 751 819 q 747 799 751 807 q 725 756 733 772 q 713 732 717 740 q 709 719 710 724 q 708 710 708 715 l 710 482 l 708 278 q 709 256 708 263 q 710 245 710 249 q 714 238 711 242 q 726 211 721 224 q 746 172 736 190 q 751 154 751 164 l 749 143 l 703 13 q 699 3 700 6 q 694 -1 697 0 q 683 -1 690 -1 l 485 -1 q 469 1 472 -1 q 461 15 465 3 q 433 89 444 61 q 417 132 422 118 q 413 153 413 146 q 414 158 413 156 q 417 164 415 161 q 447 235 433 200 q 451 243 450 239 q 452 253 451 247 q 453 272 453 260 q 454 306 453 285 q 454 347 454 322 q 453 360 454 358 q 442 361 451 361 l 354 361 q 344 359 346 361 q 343 349 343 357 q 342 247 342 297 q 342 241 342 244 q 346 230 343 238 q 355 206 349 222 q 374 164 361 190 q 374 164 374 164 q 376 157 375 160 q 378 150 378 154 q 373 126 378 143 q 357 74 368 110 q 336 10 349 49 q 331 0 333 3 q 326 -3 329 -3 q 315 -4 324 -4 z "},"i":{"ha":411,"x_min":35,"x_max":372,"o":"m 307 -3 l 113 -3 q 92 11 99 -3 q 51 108 64 79 q 38 138 42 128 q 35 153 35 147 q 38 165 35 160 q 58 213 50 196 q 69 240 65 231 q 74 256 74 250 q 75 265 75 261 l 76 485 l 75 703 q 74 712 75 707 q 70 726 74 717 q 59 753 67 736 q 39 800 51 771 q 35 814 35 807 q 40 833 35 821 q 56 871 44 846 q 90 956 68 900 q 99 967 94 964 q 114 971 104 971 l 307 971 q 318 970 315 971 q 323 966 321 969 q 328 956 325 963 q 351 883 343 910 q 368 834 364 849 q 372 814 372 819 q 372 808 372 811 q 369 803 371 806 q 369 803 369 803 q 349 761 357 776 q 338 738 342 746 q 334 726 335 731 q 333 718 333 722 l 332 483 l 333 249 q 339 231 333 239 q 350 208 344 218 q 367 168 363 181 q 372 150 372 156 l 371 140 l 326 11 q 323 1 325 4 q 318 -2 321 -1 q 307 -3 315 -3 z "},"j":{"ha":708,"x_min":-11,"x_max":674,"o":"m 201 6 q 138 26 164 6 q 31 104 63 82 q -3 128 6 121 q -11 143 -11 135 l -10 151 q 29 333 11 243 q 38 371 33 351 q 38 372 38 372 q 41 383 39 379 q 49 388 43 388 q 83 378 58 388 q 158 350 107 369 q 228 322 188 338 q 263 310 249 314 q 288 299 281 303 q 297 293 296 296 q 299 285 299 290 q 299 278 299 282 q 299 276 299 278 q 300 269 299 272 q 304 266 301 267 q 314 265 307 265 l 338 265 q 343 267 342 265 q 344 274 344 269 l 344 685 q 344 713 344 703 q 344 728 344 722 q 342 735 343 733 q 339 740 342 738 q 339 742 339 742 q 313 786 325 764 q 304 801 308 793 q 301 813 301 807 q 303 821 301 817 q 340 915 329 883 q 356 953 351 942 q 365 968 361 965 q 376 971 369 971 l 496 969 l 585 971 q 605 969 599 971 q 613 965 611 968 q 618 958 615 963 q 618 957 618 957 q 650 876 639 903 q 660 851 658 853 q 667 835 667 843 q 660 813 667 824 q 636 760 647 786 q 629 744 632 753 q 625 724 625 735 l 625 292 q 625 263 625 274 q 625 244 625 251 q 625 234 625 238 q 626 229 625 231 q 628 226 626 228 q 628 226 628 226 q 638 208 633 218 q 667 158 651 183 q 674 144 674 149 q 671 140 674 142 q 661 133 668 138 q 556 57 592 83 q 517 28 531 39 q 495 14 503 18 q 483 8 488 10 q 475 7 479 7 l 472 7 q 201 6 338 7 z "},"k":{"ha":686,"x_min":32,"x_max":663,"o":"m 213 -3 l 108 -1 q 98 2 101 -1 q 88 19 94 6 q 71 60 82 32 q 35 153 58 93 q 32 164 32 158 q 36 176 32 169 l 68 239 q 76 278 76 257 l 78 617 q 77 676 78 654 q 75 709 76 697 q 72 727 74 721 q 65 740 69 733 q 42 785 53 761 q 36 796 39 790 q 36 797 36 796 q 33 802 33 800 q 32 807 32 804 q 36 822 32 811 q 49 856 40 833 q 90 958 63 888 q 113 974 96 974 l 314 974 q 329 963 326 974 q 363 864 353 893 q 372 835 369 844 q 375 822 375 826 q 374 818 375 819 q 374 814 374 817 q 372 813 372 814 q 336 733 357 774 q 332 717 332 724 q 342 692 332 703 q 344 692 343 692 q 345 695 344 693 q 348 700 346 697 q 353 710 350 703 q 394 790 361 726 q 399 801 399 796 q 396 813 399 806 q 389 832 393 819 q 383 846 386 839 l 381 856 l 382 863 q 403 924 396 903 q 410 947 407 939 q 417 956 414 954 q 426 957 419 957 l 590 957 q 601 956 599 957 q 606 952 604 956 q 611 942 608 949 l 660 786 q 661 776 661 781 q 657 765 661 769 q 646 754 653 760 q 614 722 633 744 q 572 651 594 700 q 511 526 529 560 q 497 501 501 510 q 493 485 493 492 q 497 472 493 479 q 571 322 549 368 q 589 285 582 299 q 600 264 596 271 q 608 253 604 257 q 615 246 611 250 q 615 246 615 246 l 656 208 q 663 194 663 201 l 661 188 l 610 28 q 610 26 610 28 q 605 16 607 18 q 593 14 603 14 l 426 14 q 416 15 419 14 q 410 24 413 17 q 401 50 407 32 q 382 110 396 71 l 381 117 q 383 129 381 121 q 393 154 386 138 q 396 163 394 158 l 399 169 q 394 182 399 174 q 379 211 390 190 q 346 276 368 233 l 342 279 q 336 268 338 275 q 333 264 335 267 q 331 256 331 260 q 333 246 331 251 q 346 218 339 232 q 371 163 357 190 q 374 149 374 156 q 372 136 374 143 q 339 38 347 67 q 329 11 332 19 q 324 1 326 3 q 314 -1 321 -1 l 213 -3 z "},"l":{"ha":682,"x_min":35,"x_max":700,"o":"m 338 0 l 119 0 q 106 1 110 0 q 99 5 101 1 q 94 17 97 8 l 39 153 q 36 167 36 160 q 39 179 36 174 q 53 207 46 193 q 69 240 61 224 q 73 250 72 244 q 74 266 74 256 q 75 300 75 276 q 75 369 75 325 q 74 696 74 454 q 72 707 74 701 q 67 723 71 713 q 53 754 63 733 q 38 790 47 769 l 35 799 q 40 820 35 804 q 61 876 46 836 q 89 954 71 906 q 97 967 93 964 q 111 969 101 969 l 157 969 l 321 971 q 327 969 325 971 q 333 960 329 967 q 341 941 336 954 q 354 907 346 928 q 382 831 364 878 l 383 822 q 378 803 383 817 q 361 758 374 790 q 349 728 356 746 q 349 726 349 728 q 347 722 347 725 q 345 710 346 718 q 344 688 344 703 l 350 271 q 350 264 350 267 q 352 252 350 254 q 364 250 354 250 q 371 250 367 250 l 372 250 q 380 251 376 250 q 390 256 383 251 q 411 268 397 260 q 449 292 425 276 q 524 342 476 311 q 535 349 531 347 q 544 351 540 351 q 551 349 547 351 q 563 343 556 347 q 565 342 564 343 q 660 282 613 311 q 679 271 669 276 q 685 268 682 269 q 697 260 693 263 q 700 254 700 257 q 696 246 700 250 q 696 244 696 244 l 583 22 q 581 17 582 19 q 574 6 578 10 q 561 3 571 3 l 338 3 l 338 0 z "},"m":{"ha":985,"x_min":35,"x_max":953,"o":"m 281 -8 l 108 -4 q 98 -3 101 -4 q 92 0 94 -3 q 89 10 90 3 l 38 150 q 35 163 35 157 q 39 178 35 171 q 42 183 40 181 q 58 216 51 201 q 66 255 64 231 q 69 324 68 279 q 69 447 69 368 q 71 696 69 539 q 69 709 71 703 q 65 726 68 715 q 53 758 61 738 q 42 786 47 769 q 39 801 39 793 q 44 825 39 810 q 60 872 49 840 q 86 944 69 899 q 93 960 90 956 q 100 967 96 965 q 113 968 104 968 l 118 968 q 293 971 206 971 l 304 971 q 317 969 314 971 q 321 958 319 967 q 324 951 322 956 q 419 728 386 808 q 441 680 432 701 q 457 642 450 658 q 469 614 464 626 q 478 593 475 601 q 484 580 482 585 q 488 572 486 575 q 491 567 490 568 q 492 565 492 565 q 493 564 493 564 q 493 564 493 564 q 493 564 493 564 q 494 565 493 564 q 495 567 494 565 q 497 570 496 568 q 499 577 497 572 q 504 588 501 582 q 511 604 507 594 q 521 627 515 614 q 534 658 526 640 q 551 697 542 675 q 571 744 560 718 q 595 803 582 771 q 624 874 608 836 q 660 957 640 913 q 685 974 667 974 q 832 971 790 971 q 864 971 853 971 q 881 970 875 971 q 888 967 886 969 q 890 961 889 965 l 896 949 q 922 879 911 906 q 940 827 935 843 q 946 804 946 811 q 943 790 946 797 l 918 722 q 918 722 918 722 q 916 717 917 719 q 915 708 915 714 q 914 689 914 701 q 915 611 914 667 q 919 271 917 521 q 931 219 919 244 l 950 178 q 950 176 950 178 q 952 173 951 175 q 953 168 953 171 q 949 151 953 163 q 935 111 944 139 q 899 10 922 78 q 895 3 897 6 q 888 -1 893 0 q 869 -3 882 -3 q 833 -4 857 -3 q 704 -7 793 -4 l 701 -7 q 690 -3 694 -7 q 681 15 686 1 q 664 57 675 29 q 640 121 656 82 q 639 124 640 122 q 633 142 635 135 q 631 153 631 149 q 633 163 631 158 q 639 175 635 168 q 644 185 642 179 q 661 215 654 204 q 672 239 668 229 q 676 263 675 249 q 679 308 678 278 q 681 365 679 331 l 681 374 q 681 374 681 374 q 678 372 679 372 q 675 368 676 371 q 671 360 674 365 q 663 344 668 354 q 600 215 650 315 l 597 204 q 600 192 597 197 q 606 178 603 185 q 615 156 610 167 q 617 153 617 154 q 618 150 618 151 q 614 135 618 146 q 599 100 610 125 q 579 57 590 83 q 560 43 575 43 l 501 44 q 450 43 467 44 q 432 42 439 42 q 417 44 422 42 q 410 56 413 47 q 371 143 389 100 l 369 147 q 372 154 369 149 q 379 172 374 160 q 390 196 383 181 l 392 203 l 389 210 q 349 290 364 260 q 335 319 340 307 q 324 340 329 332 q 317 354 319 349 q 313 363 314 360 q 310 368 311 367 q 309 370 310 369 q 307 371 308 371 q 307 371 307 371 q 306 367 306 369 l 310 257 q 311 248 310 253 q 317 234 313 243 q 329 209 321 225 q 351 167 338 193 q 356 150 356 158 q 354 138 356 143 q 306 8 329 74 q 297 -6 301 -4 q 281 -8 293 -8 z "},"n":{"ha":769,"x_min":39,"x_max":735,"o":"m 301 0 q 168 1 211 1 q 126 2 142 1 q 105 3 111 3 q 96 7 99 4 q 92 14 93 10 q 92 14 92 14 q 57 108 69 76 q 43 147 47 135 q 39 165 39 158 q 40 171 39 168 q 43 176 42 174 q 65 224 56 200 q 71 238 68 231 q 73 249 72 242 q 74 271 74 256 l 74 647 q 74 690 74 674 q 73 713 74 706 q 72 724 72 721 q 69 731 71 728 q 69 732 69 732 l 42 799 q 39 811 39 806 q 43 831 39 818 q 57 871 47 843 q 89 958 68 900 q 89 960 89 958 q 92 965 90 963 q 100 969 94 968 q 118 971 106 971 q 153 971 131 971 l 307 971 q 315 970 313 971 q 320 967 318 969 q 324 960 322 965 q 326 953 325 957 l 444 644 q 447 650 446 647 q 447 654 447 653 l 450 717 q 449 732 450 726 q 444 743 447 738 l 415 806 q 411 819 411 813 q 414 832 411 825 q 443 925 435 897 q 452 953 449 944 q 458 963 456 961 q 465 965 461 965 l 667 971 q 676 970 674 971 q 681 967 679 969 q 683 960 682 965 l 728 829 q 729 818 729 824 q 726 806 729 813 l 699 756 q 699 756 699 756 q 697 750 697 753 q 695 742 696 747 q 694 728 694 738 q 693 703 693 719 q 693 663 693 688 l 693 249 q 694 240 693 244 q 698 227 694 235 q 709 205 701 219 q 731 165 717 190 q 735 151 735 158 l 732 140 q 704 63 714 90 q 690 24 694 36 q 681 8 685 11 q 671 6 678 6 l 665 6 q 601 6 629 6 q 551 6 572 6 q 513 6 529 6 q 486 7 497 7 q 468 7 475 7 q 457 8 461 7 q 451 8 453 8 q 450 8 450 8 q 382 179 415 93 q 331 307 356 243 q 326 283 326 296 q 331 260 326 269 q 369 157 349 207 q 369 157 369 157 q 372 152 371 154 q 372 147 372 150 q 369 135 372 143 q 358 110 367 128 q 321 13 347 82 q 301 0 317 0 z "},"o":{"ha":783,"x_min":31,"x_max":753,"o":"m 531 -3 l 306 -3 q 254 -2 272 -3 q 228 -1 236 -1 q 215 1 219 -1 q 208 4 211 3 q 207 6 208 6 l 42 125 q 33 132 36 129 q 31 138 31 135 l 35 150 q 57 194 49 179 q 67 216 64 208 q 72 228 71 224 q 72 238 72 232 l 76 708 q 76 735 76 725 q 76 749 76 744 q 74 757 75 754 q 71 761 72 760 q 71 763 71 763 l 35 824 q 31 835 31 831 q 40 847 31 840 q 72 871 44 851 q 136 916 99 890 q 206 964 174 942 q 207 965 207 964 q 213 969 210 967 q 222 972 217 971 q 237 972 226 972 q 265 972 247 972 l 389 972 l 389 975 l 499 975 q 534 975 521 975 q 553 974 547 975 q 563 973 560 974 q 568 969 565 972 q 568 969 568 969 l 742 854 q 743 854 742 854 q 750 849 747 851 q 753 844 753 847 q 749 836 753 842 q 724 793 735 815 q 708 765 717 779 q 700 736 700 753 q 701 413 701 515 q 701 334 701 365 q 702 285 701 303 q 703 259 703 268 q 704 245 703 250 q 707 236 706 240 q 708 235 708 236 l 742 150 q 746 138 746 142 q 743 131 746 133 q 733 124 740 128 q 713 110 722 117 q 632 57 664 78 q 581 24 600 36 q 553 6 563 11 q 539 -1 543 0 q 531 -3 535 -3 m 417 246 q 431 247 428 244 q 432 261 433 250 l 436 483 q 436 501 436 493 q 436 569 436 549 q 436 599 436 589 q 438 622 436 610 q 438 652 438 632 q 439 708 438 672 q 415 732 439 732 l 363 732 q 329 697 328 731 l 335 271 q 360 246 335 247 l 417 246 z "},"p":{"ha":749,"x_min":32,"x_max":753,"o":"m 324 0 l 117 0 q 90 18 96 0 q 53 103 67 74 q 37 140 42 128 q 32 157 32 151 q 33 164 32 161 q 36 169 35 167 q 60 215 53 200 q 70 236 68 229 q 72 251 72 243 l 74 661 q 74 710 74 692 q 72 739 74 729 q 69 754 71 749 q 64 765 67 760 q 63 767 63 765 q 50 792 56 779 q 46 803 49 797 l 43 810 q 47 826 43 815 q 63 864 51 838 q 100 957 75 894 q 101 960 100 958 q 105 966 103 964 q 110 969 107 968 q 119 969 113 969 l 488 972 q 522 972 510 972 q 540 971 533 972 q 549 968 546 969 q 556 965 553 967 q 557 964 556 964 q 617 921 592 939 q 660 890 643 903 q 690 870 678 878 q 708 858 701 863 q 717 851 714 853 q 723 848 721 849 q 725 846 725 847 q 726 846 726 846 q 733 838 733 842 l 732 831 l 708 764 q 707 763 708 763 q 706 757 707 760 q 705 749 706 754 q 704 732 704 743 l 707 557 q 708 547 707 551 q 715 531 710 542 q 729 500 719 521 q 749 456 736 482 q 750 454 749 454 q 753 443 753 447 q 751 438 753 440 q 743 432 749 435 q 682 386 713 410 q 578 308 629 347 q 576 308 578 308 q 570 303 574 306 q 559 301 567 301 q 536 300 551 300 q 493 300 521 300 q 372 299 453 300 l 365 299 q 357 297 360 299 q 354 290 354 296 q 354 271 354 278 q 356 251 356 257 q 357 242 356 246 q 360 236 358 239 q 361 233 361 235 q 374 214 368 222 q 392 184 388 193 q 397 169 397 175 l 396 163 q 374 99 385 131 q 343 14 358 56 q 338 2 340 4 q 324 0 335 0 m 428 535 q 451 558 450 535 l 454 708 q 428 738 456 738 l 353 736 q 341 734 343 736 q 339 724 339 732 l 339 635 l 338 635 l 336 544 q 344 535 335 535 l 428 535 z "},"q":{"ha":721,"x_min":28,"x_max":704,"o":"m 518 0 q 507 6 514 0 q 496 14 501 10 q 452 44 468 33 q 428 59 436 54 q 415 65 419 64 q 404 67 410 67 l 403 67 q 228 65 315 67 l 224 65 q 194 75 207 65 l 39 194 q 31 201 33 199 q 28 207 28 204 l 32 218 q 51 264 44 247 q 62 288 58 279 q 67 303 65 297 q 68 317 68 308 q 64 626 65 533 q 63 683 64 660 q 63 720 63 706 q 62 743 63 735 q 61 756 61 751 q 60 763 61 761 q 58 768 60 765 q 58 768 58 768 l 31 832 l 28 842 q 30 847 28 844 q 36 853 32 850 l 176 965 q 185 969 181 968 q 199 972 189 971 q 228 972 208 972 l 338 972 l 338 971 l 443 971 q 473 970 463 971 q 489 967 483 969 q 501 960 494 965 l 638 865 q 642 863 640 864 q 651 858 649 860 q 654 853 654 856 q 649 838 654 847 q 647 835 649 836 l 626 785 q 625 782 626 783 q 621 772 622 776 q 618 756 619 767 q 617 724 617 744 q 617 665 617 703 l 617 296 q 631 264 617 275 q 681 218 657 242 q 697 203 689 211 q 704 193 704 197 q 699 183 704 189 l 529 8 q 522 2 525 4 q 518 0 519 0 m 317 300 q 340 300 329 300 q 374 301 364 300 q 387 308 385 303 q 389 328 389 314 l 389 722 q 381 740 388 733 q 364 746 374 746 l 324 744 q 309 740 314 744 q 300 728 304 735 q 297 717 297 722 l 299 315 q 317 300 303 300 z "},"r":{"ha":721,"x_min":38,"x_max":699,"o":"m 458 -4 q 445 -1 450 -4 q 436 8 440 1 q 393 92 407 65 q 376 123 381 114 q 372 138 372 132 l 372 143 q 375 168 375 156 q 356 235 375 203 q 335 278 344 256 q 326 296 331 286 l 322 294 l 322 258 q 324 242 322 251 q 333 216 326 233 q 353 164 339 199 q 356 151 356 158 q 350 128 356 144 q 332 76 344 113 q 308 10 322 50 q 305 1 307 4 q 300 -2 303 -1 q 290 -3 297 -3 q 107 -4 199 -3 q 100 -3 103 -4 q 94 2 97 -3 q 88 18 92 7 q 78 49 85 29 q 46 146 68 81 l 44 153 q 47 167 44 158 q 56 194 50 175 q 69 239 61 211 q 69 240 69 239 q 71 245 71 243 q 72 251 71 247 q 72 264 72 256 q 72 286 72 272 l 69 674 q 58 742 69 710 q 40 796 49 769 l 38 806 q 43 828 38 813 q 63 883 49 844 q 86 949 72 908 q 91 957 89 954 q 96 961 93 960 q 106 963 99 963 q 493 971 300 965 q 549 953 526 971 q 663 871 631 893 q 691 850 683 856 q 699 840 699 844 l 697 835 q 695 831 696 832 q 694 828 694 829 q 692 821 693 825 q 686 807 690 817 q 674 781 682 797 q 654 736 667 764 q 651 728 653 732 q 650 715 650 724 q 651 690 650 707 q 654 601 653 665 q 656 592 654 596 q 659 582 657 588 q 665 567 661 576 q 681 532 671 554 q 685 518 685 524 q 683 512 685 515 q 675 503 681 508 q 601 431 626 454 q 576 406 585 415 q 564 393 567 397 q 561 386 561 389 l 563 381 q 594 296 583 325 q 613 249 606 265 q 628 220 619 233 q 656 183 638 207 q 664 174 660 179 q 671 156 671 167 l 639 13 q 636 5 638 7 q 632 1 635 3 q 622 0 629 0 l 458 -4 m 353 596 q 380 596 371 596 q 393 597 389 596 q 400 601 397 599 q 419 635 419 614 l 418 643 l 418 660 q 393 722 417 696 q 392 724 393 724 q 388 728 390 728 q 379 729 385 729 l 321 728 q 315 727 317 728 q 312 722 313 726 q 311 706 311 717 q 311 682 311 697 q 313 604 313 657 q 315 597 313 599 q 326 596 318 596 l 353 596 z "},"s":{"ha":739,"x_min":24,"x_max":710,"o":"m 244 0 q 219 1 226 0 q 207 3 211 1 q 200 7 203 4 q 199 8 199 8 q 99 85 132 60 q 60 114 74 104 q 44 128 47 124 q 40 139 40 133 l 40 144 q 60 265 53 219 q 72 335 68 311 q 81 369 76 360 q 90 378 85 378 l 104 374 l 304 306 q 317 301 313 303 q 322 294 321 299 q 322 279 322 290 l 322 257 q 323 247 322 250 q 328 244 324 244 l 401 247 q 410 251 408 247 q 413 267 413 256 l 411 319 q 408 327 411 325 q 401 331 404 329 q 400 331 400 331 l 89 454 q 72 478 72 460 q 71 635 71 582 q 69 690 69 669 q 69 719 69 710 q 67 734 68 729 q 63 743 65 739 q 61 744 61 743 l 28 811 q 24 824 24 819 q 26 829 24 826 q 35 836 29 832 q 108 897 79 872 q 151 932 135 918 q 178 953 168 946 q 192 965 188 961 q 201 969 197 968 q 207 969 204 969 q 208 969 207 969 q 422 975 356 972 q 493 976 471 976 q 515 975 508 976 q 526 972 522 974 q 535 967 531 971 q 535 967 535 967 q 583 931 560 949 q 700 847 642 889 q 703 844 701 846 q 708 840 706 843 q 710 835 710 838 l 708 828 q 689 789 699 808 q 669 749 679 768 q 665 738 667 743 q 663 724 664 732 q 663 700 663 715 l 664 599 q 663 588 664 592 q 656 583 661 583 l 644 583 q 626 586 635 583 l 404 660 q 396 663 399 661 q 392 668 393 665 q 390 678 390 671 l 390 711 q 388 718 390 717 q 375 719 385 719 l 326 719 q 321 718 322 719 q 319 710 319 717 q 318 689 318 703 q 317 624 318 669 l 317 622 q 317 618 317 619 q 322 615 318 617 q 332 609 325 613 q 352 601 339 606 q 385 588 365 596 q 489 546 421 574 l 646 483 q 657 467 657 482 l 657 233 q 658 224 657 228 q 663 215 660 221 q 674 196 667 208 q 697 154 682 182 l 701 143 q 699 138 701 140 q 693 133 697 136 q 607 65 639 92 q 562 31 578 43 q 537 12 546 18 q 524 4 528 6 q 515 3 519 3 l 511 3 q 304 1 368 1 q 244 0 265 0 z "},"t":{"ha":838,"x_min":-11,"x_max":850,"o":"m 322 0 q 312 1 315 0 q 306 5 308 1 q 301 15 304 8 q 269 103 281 71 q 251 149 257 135 q 246 169 246 163 q 247 176 246 174 q 250 182 249 179 q 270 226 263 210 q 281 252 278 243 q 285 266 285 261 q 286 275 286 271 q 282 522 283 433 q 281 572 282 549 q 281 612 281 594 q 281 642 281 629 q 280 666 281 656 q 279 683 279 676 q 279 694 279 689 q 278 701 279 699 q 278 704 278 703 q 277 706 278 706 q 276 707 276 707 l 275 708 q 270 706 274 708 q 260 699 267 704 q 242 684 254 693 q 213 658 231 675 q 172 625 196 644 q 171 624 172 625 q 163 619 167 621 q 157 617 160 617 q 144 620 151 617 q 124 632 138 624 q 0 700 94 651 q -8 705 -6 703 q -11 710 -11 707 q -7 722 -11 714 q 121 960 58 842 q 132 971 125 968 q 158 974 139 974 l 235 972 l 424 972 l 424 969 l 697 969 q 708 967 704 969 q 717 958 713 964 q 803 806 758 882 q 846 729 824 768 q 850 718 850 722 q 840 707 850 711 l 681 610 q 675 612 678 610 q 668 618 672 614 q 594 684 617 664 q 571 704 572 704 q 561 707 565 707 q 550 693 551 707 l 550 335 q 550 294 550 308 q 551 272 550 279 q 552 262 551 265 q 554 256 553 258 q 554 254 554 254 q 569 218 563 233 q 588 176 582 189 q 593 156 593 163 l 590 146 l 547 17 q 528 1 544 1 l 322 0 z "},"u":{"ha":783,"x_min":31,"x_max":750,"o":"m 274 0 q 244 1 254 0 q 227 2 233 1 q 218 4 221 3 q 213 7 215 6 q 211 8 213 8 q 38 136 125 74 q 32 140 33 139 q 31 144 31 142 l 33 154 q 57 206 49 189 q 67 227 64 219 q 71 240 69 235 q 72 253 72 246 l 69 715 q 68 731 69 724 q 61 753 67 739 q 44 796 56 768 l 42 806 q 47 826 42 811 q 64 879 51 842 q 90 956 74 908 q 94 964 92 961 q 99 967 96 967 q 107 968 101 968 l 301 971 q 315 969 311 971 q 322 963 319 968 q 328 949 324 958 q 360 868 349 896 q 373 835 369 846 q 376 818 376 824 q 376 813 376 815 q 374 807 375 810 q 338 732 354 771 q 338 731 338 732 q 334 724 335 728 q 333 715 333 721 q 332 693 332 708 q 333 615 332 669 q 338 285 335 526 q 341 269 338 276 q 350 257 344 263 q 356 249 353 253 q 357 248 356 249 q 360 247 358 247 q 365 246 361 246 q 374 246 368 246 q 390 246 381 246 q 413 246 399 246 q 418 247 415 246 q 422 249 421 247 q 428 257 425 253 q 438 271 433 264 q 442 289 442 278 q 443 415 442 331 q 445 583 444 500 q 447 710 446 665 l 447 715 q 444 731 447 722 q 433 759 442 740 q 406 813 424 778 q 406 814 406 813 q 403 817 404 815 q 403 822 403 819 q 407 839 403 828 q 422 878 411 850 q 456 963 433 907 q 456 964 456 963 q 460 969 457 967 q 470 973 463 972 q 496 974 478 974 l 672 971 q 682 970 679 971 q 686 967 685 969 q 689 960 688 965 q 713 889 703 917 q 732 833 726 850 q 738 808 738 817 q 736 803 738 806 q 733 797 735 800 q 717 753 722 776 q 710 691 711 731 q 708 579 708 651 l 708 256 q 713 232 708 243 q 726 201 717 221 q 746 158 733 185 l 750 149 q 747 144 750 146 q 739 138 744 142 q 611 43 650 72 q 585 24 596 32 q 569 13 575 17 q 559 6 563 8 q 554 3 556 4 q 550 3 553 3 l 274 0 z "},"v":{"ha":685,"x_min":19,"x_max":671,"o":"m 467 0 q 221 1 344 1 q 199 15 204 1 q 154 96 169 68 q 138 126 143 115 q 130 141 132 136 q 128 150 128 146 l 129 157 q 132 168 131 163 q 138 188 133 178 q 140 213 140 200 q 139 232 140 222 q 85 522 103 422 q 65 629 72 590 q 53 687 57 668 q 45 714 49 706 q 38 732 42 722 q 33 739 36 735 q 31 743 32 742 q 23 758 26 751 q 19 776 19 765 l 21 792 q 33 924 32 886 q 38 956 36 946 q 42 967 39 965 q 50 969 44 969 l 238 975 q 247 973 244 975 q 253 963 250 971 q 264 939 257 956 q 311 817 274 907 l 314 808 q 313 801 314 806 q 308 789 311 797 q 297 753 304 776 l 296 743 q 299 722 296 738 q 308 671 301 707 q 333 544 317 629 q 334 538 333 542 q 339 531 335 535 q 346 561 339 531 q 362 630 353 592 q 378 698 371 668 q 386 731 385 728 l 388 746 q 384 767 388 754 q 374 801 381 779 l 371 811 q 377 833 371 818 q 400 883 383 847 q 429 949 411 910 q 429 950 429 949 q 438 963 433 958 q 451 968 442 968 l 621 968 q 631 966 628 968 q 636 955 633 964 q 643 925 639 946 q 651 883 646 908 q 664 829 660 847 q 671 797 671 806 q 669 792 671 794 q 667 786 668 789 q 638 726 647 753 q 622 656 629 700 q 558 317 576 408 q 543 238 547 261 q 539 207 539 215 q 540 201 539 204 q 542 197 540 199 q 542 196 542 196 q 549 176 546 186 q 557 151 553 164 q 558 143 558 147 q 556 135 558 139 l 485 10 q 467 0 479 0 z "},"w":{"ha":838,"x_min":24,"x_max":804,"o":"m 475 0 q 463 1 467 0 q 458 5 460 1 q 454 17 456 8 q 431 115 438 83 q 424 139 426 129 q 420 154 422 149 q 417 162 418 160 q 416 165 417 164 q 414 167 415 167 q 414 167 414 167 l 376 15 q 372 3 375 6 q 358 0 369 0 q 196 1 278 1 q 171 18 178 1 q 118 119 133 92 q 105 144 108 136 q 101 157 101 151 l 103 164 q 108 185 106 175 q 115 213 113 203 q 118 229 118 222 l 117 240 q 74 560 88 456 q 60 662 65 625 q 52 717 56 699 q 46 743 49 735 q 38 761 43 751 q 35 768 36 764 q 31 776 33 772 q 26 789 28 783 q 24 803 24 794 q 26 828 24 813 q 35 875 29 844 q 46 944 39 903 q 49 960 47 956 q 54 966 51 965 q 63 967 57 967 q 228 972 146 968 q 235 971 232 972 q 240 964 238 969 q 244 947 242 958 q 251 913 247 935 q 264 844 256 886 l 297 675 q 301 678 300 676 q 301 682 301 681 l 318 951 q 320 963 318 961 q 331 965 322 965 q 331 965 331 965 q 401 967 365 967 l 496 965 q 506 963 504 965 q 508 953 508 961 l 524 719 l 525 706 q 543 744 539 724 q 546 761 546 753 q 543 779 546 769 q 538 808 538 794 q 550 854 538 832 q 557 871 554 863 q 564 886 560 879 q 585 958 579 921 q 588 968 586 965 q 592 972 589 971 q 603 972 596 972 q 607 972 604 972 q 763 969 685 969 q 775 967 772 969 q 779 956 778 965 q 792 888 786 915 q 801 829 799 849 q 804 801 804 810 q 803 793 804 796 q 800 786 803 790 q 791 771 796 782 q 781 734 786 760 q 768 658 775 708 q 722 318 735 401 q 715 255 717 274 q 713 228 713 236 l 714 214 l 726 165 l 728 157 q 724 145 728 153 q 711 121 721 138 q 658 17 696 93 q 649 7 654 10 q 638 4 644 4 l 475 0 z "},"x":{"ha":678,"x_min":24,"x_max":654,"o":"m 599 0 l 397 1 q 384 3 388 1 q 379 15 381 6 l 340 185 q 335 178 336 182 q 335 172 335 175 l 299 19 q 294 4 297 7 q 276 1 290 1 q 75 3 176 1 q 64 4 67 3 q 60 14 61 6 l 24 160 q 32 178 24 169 l 79 228 q 85 235 82 232 q 91 246 88 239 q 101 267 94 253 q 119 307 108 282 q 194 472 142 357 q 197 485 197 478 q 194 499 197 492 q 117 669 138 621 q 99 705 106 692 q 90 725 93 718 q 84 735 86 732 q 78 742 82 739 l 31 792 q 24 810 24 800 l 60 956 q 64 966 61 964 q 75 968 67 968 l 278 968 q 294 965 290 968 q 299 951 297 963 l 335 796 q 336 793 335 794 q 337 789 336 792 q 340 783 338 786 l 379 953 q 384 966 381 964 q 397 968 388 968 l 603 969 q 617 958 615 969 q 636 885 628 914 q 650 833 646 850 q 654 808 654 817 q 652 801 654 804 q 647 794 650 797 q 647 794 647 794 l 601 744 q 594 736 597 740 q 588 724 592 732 q 576 701 583 717 q 557 658 569 686 q 485 499 535 610 q 485 499 485 499 q 482 492 483 494 q 481 486 481 490 q 488 462 481 479 q 515 403 496 444 q 583 253 538 354 q 603 224 592 236 q 613 213 608 218 q 646 178 629 194 q 654 157 654 168 l 653 147 q 618 15 635 82 q 615 5 617 8 q 610 1 613 1 q 599 0 607 0 z "},"y":{"ha":663,"x_min":6,"x_max":657,"o":"m 229 0 q 218 1 222 0 q 213 3 214 1 q 211 7 213 4 q 211 7 211 7 q 179 90 199 50 q 167 121 172 106 q 158 142 163 133 q 153 160 153 153 q 157 172 153 165 q 178 216 171 200 q 190 240 186 232 q 194 253 193 249 q 194 261 194 257 l 197 353 q 197 367 197 363 q 193 378 196 372 q 121 554 149 486 q 78 658 93 621 q 53 715 63 696 q 38 746 44 735 q 24 771 32 757 q 13 789 19 778 q 6 811 6 800 l 7 824 q 29 922 24 892 q 36 951 33 942 q 42 962 39 960 q 53 964 46 964 l 236 967 q 249 965 244 967 q 258 951 253 963 q 275 918 264 940 q 311 843 288 892 q 317 824 317 833 q 315 813 317 818 l 307 775 l 306 767 q 310 753 306 760 q 317 739 313 746 q 331 711 321 725 q 346 742 340 731 q 353 758 351 753 q 356 765 356 763 l 343 818 l 343 824 q 346 839 343 832 q 360 867 351 850 q 378 903 369 885 q 392 933 386 921 q 399 946 399 946 q 406 960 403 956 q 413 965 408 964 q 424 967 417 967 l 604 964 q 619 962 615 964 q 625 949 622 960 q 656 814 639 881 l 657 808 q 654 799 657 806 q 644 782 651 793 q 625 750 638 771 q 614 732 621 742 q 614 731 614 732 q 611 726 613 729 q 607 718 610 724 q 599 701 604 713 q 586 669 594 689 q 565 618 578 650 q 467 378 536 546 q 463 368 464 372 q 463 354 463 364 l 465 258 q 467 251 465 256 q 472 238 468 246 q 483 215 475 231 q 504 172 490 199 q 506 167 506 169 q 507 161 507 165 q 503 147 507 157 q 492 115 500 138 q 453 19 479 86 q 433 7 449 7 q 276 1 324 4 q 229 0 244 0 z "},"z":{"ha":664,"x_min":10,"x_max":658,"o":"m 517 -3 q 101 3 310 1 q 92 3 94 3 q 87 7 89 4 q 82 15 85 10 l 28 168 l 26 176 q 32 190 26 183 q 81 249 57 219 q 81 249 81 249 q 84 253 82 251 q 89 261 86 256 q 97 278 92 267 q 110 308 101 289 q 131 356 118 326 q 163 429 143 386 q 275 688 201 518 q 276 693 275 690 q 278 699 278 696 l 271 700 q 254 692 261 700 q 222 658 235 671 q 203 638 210 644 q 192 627 196 631 q 188 622 189 624 q 185 619 186 621 q 178 615 181 615 q 163 622 172 615 q 149 631 157 626 q 35 697 54 686 q 26 702 29 700 q 22 705 24 704 q 19 706 19 706 q 17 708 18 707 q 17 708 17 708 q 10 717 10 713 q 17 732 10 722 q 24 743 19 736 q 67 824 44 783 q 133 949 100 886 q 157 964 140 964 l 560 967 q 573 966 569 967 q 579 962 576 965 q 585 951 582 958 q 608 892 599 917 q 631 831 625 849 q 638 806 638 813 q 637 801 638 803 q 635 797 636 799 q 633 796 633 796 q 592 745 606 763 q 573 720 578 728 q 565 707 568 713 l 378 282 q 374 276 375 279 q 372 265 372 272 l 404 265 q 415 266 411 265 q 422 269 419 267 q 428 275 425 271 q 458 311 446 296 q 486 344 478 335 q 499 353 494 353 l 506 350 l 644 268 q 656 262 653 264 q 658 257 658 260 q 656 247 658 254 l 544 14 q 533 1 539 4 q 517 -3 528 -3 z "},"{":{"ha":425,"x_min":28,"x_max":397,"o":"m 378 -6 l 224 -6 q 194 6 207 -6 l 117 89 q 103 121 103 103 q 101 257 101 149 l 103 257 l 103 382 q 97 399 103 392 l 32 482 q 28 494 28 488 q 32 508 28 501 l 97 592 q 103 607 103 597 q 104 881 103 864 q 113 894 107 889 l 200 986 q 222 994 210 994 q 363 996 318 994 q 383 994 374 996 q 394 990 392 993 q 397 981 396 988 q 392 899 396 904 q 367 894 389 894 l 256 894 q 242 888 247 894 l 206 850 q 200 835 200 846 l 201 590 q 183 540 201 561 q 149 494 151 500 l 151 489 l 190 440 q 200 404 200 425 l 200 156 q 207 138 200 146 l 240 101 q 256 94 247 94 q 383 93 364 94 q 392 88 389 92 q 396 49 396 85 l 397 28 q 392 -1 396 1 q 378 -6 389 -4 z "},"|":{"ha":151,"x_min":28,"x_max":124,"o":"m 108 6 l 65 6 q 42 8 53 7 q 29 19 31 8 l 28 964 q 29 982 28 972 q 43 992 31 992 q 71 993 56 993 l 111 990 q 120 982 118 990 q 122 499 122 974 l 124 499 l 124 36 q 122 16 124 25 q 108 6 119 7 z "},"}":{"ha":425,"x_min":28,"x_max":397,"o":"m 135 -1 l 68 -1 q 37 -1 44 -1 q 29 14 29 0 q 33 92 29 83 q 42 96 36 94 q 169 99 64 99 q 178 100 175 99 q 221 143 181 101 q 226 157 226 149 l 225 403 q 242 451 225 432 l 278 499 l 275 503 q 244 542 258 521 q 225 592 225 561 l 225 838 q 219 854 225 846 q 185 890 201 871 q 177 896 181 894 q 112 898 174 897 q 40 900 50 899 q 31 911 31 901 q 28 957 28 933 q 32 994 29 992 q 58 999 40 999 l 208 997 q 229 986 218 997 l 315 896 q 322 879 319 889 q 324 736 324 844 l 322 736 l 322 610 q 328 594 322 601 q 394 510 383 525 q 397 499 397 504 q 394 486 397 493 q 324 392 324 396 l 324 144 q 322 110 324 113 q 242 21 321 107 q 217 0 231 10 q 135 -1 214 -1 z "},"~":{"ha":497,"x_min":28,"x_max":469,"o":"m 90 369 l 75 369 q 31 374 35 371 q 28 397 28 376 q 29 474 28 450 q 44 501 35 492 q 69 535 58 517 l 82 551 q 115 575 99 575 l 214 575 q 240 561 229 575 l 276 517 q 292 499 285 507 q 304 490 299 490 l 363 492 q 372 497 369 492 q 394 529 393 526 q 396 547 396 532 q 397 579 396 568 q 399 587 397 583 q 407 592 401 590 q 458 589 432 592 q 469 579 468 589 l 469 497 q 442 444 467 474 l 414 407 q 379 386 401 386 q 286 385 310 386 q 257 400 268 385 l 221 444 q 207 462 213 454 q 196 469 201 469 l 135 469 q 117 451 129 469 q 103 431 104 433 q 103 413 103 429 q 100 379 103 389 q 90 369 100 369 z "},"¡":{"ha":343,"x_min":28,"x_max":315,"o":"m 306 -281 l 36 -281 q 29 -274 31 -281 l 28 -232 q 47 -72 35 -181 q 82 263 58 38 q 101 467 101 450 q 105 474 103 472 q 124 476 107 476 l 217 472 q 240 464 240 472 q 315 -232 243 450 l 315 -271 q 306 -281 315 -281 m 225 546 l 122 547 q 117 546 121 546 q 103 549 107 546 q 100 563 100 553 l 100 679 q 103 690 101 688 q 126 693 106 692 q 219 692 142 692 q 235 688 232 692 q 238 674 238 685 q 235 548 238 550 q 225 546 233 546 z "},"¢":{"ha":663,"x_min":28,"x_max":635,"o":"m 344 -7 l 267 -4 q 256 -2 258 -4 q 251 8 253 0 q 250 71 250 24 q 246 76 250 76 l 214 76 q 194 85 201 76 l 36 253 q 28 272 28 260 l 28 671 q 35 689 28 682 q 194 858 115 772 q 246 867 204 867 q 251 867 250 867 q 251 872 251 868 q 253 942 251 922 q 259 952 254 949 q 306 956 264 956 q 417 954 403 956 q 426 942 425 953 q 426 917 426 932 l 425 872 q 427 865 425 865 q 445 864 429 864 q 467 853 461 864 q 592 722 508 811 q 633 669 633 681 q 635 568 633 593 q 633 559 635 561 q 546 557 631 557 q 458 559 460 557 q 454 633 456 561 q 449 646 454 640 q 393 695 396 694 q 274 696 390 696 q 261 690 268 696 l 224 653 q 218 639 218 647 l 218 303 q 224 289 218 294 l 263 251 q 274 247 267 247 l 388 246 q 399 250 390 246 q 450 297 424 275 q 454 308 454 303 q 458 384 456 382 q 469 386 460 386 q 632 384 629 386 q 635 375 635 382 l 633 276 q 632 267 633 271 q 528 156 626 257 q 461 83 493 121 q 453 78 457 79 q 428 78 450 78 q 422 74 422 78 l 424 44 q 423 2 424 8 q 414 -4 422 -4 q 406 -6 411 -6 q 344 -7 400 -6 z "},"£":{"ha":644,"x_min":28,"x_max":617,"o":"m 64 19 l 46 22 q 35 35 35 25 l 33 68 l 35 114 q 46 140 38 128 l 124 261 q 128 274 128 268 q 128 428 128 426 q 89 431 128 431 q 40 433 50 431 q 28 442 29 435 q 28 458 28 449 q 33 535 28 529 q 50 540 38 540 l 122 540 q 128 542 128 540 q 129 754 129 544 q 139 804 129 793 l 239 924 q 290 951 260 951 l 457 951 q 503 929 486 951 l 599 815 q 615 776 614 799 l 617 603 q 611 597 617 597 q 518 600 593 600 q 511 601 513 600 q 510 746 510 603 q 504 761 510 754 l 442 835 q 431 840 438 840 q 315 839 374 839 q 304 833 310 839 q 240 758 274 796 q 236 744 236 753 l 235 550 q 235 543 235 546 q 240 540 235 540 l 299 540 q 315 538 307 540 q 325 534 322 536 q 329 506 328 532 q 322 435 325 439 q 269 431 318 431 q 236 430 238 431 q 235 258 235 429 q 221 214 235 233 l 174 140 q 171 133 171 138 l 179 132 q 558 131 369 132 q 585 127 582 131 q 590 94 589 124 l 588 38 q 583 25 586 29 q 554 21 579 21 l 90 22 q 76 22 82 22 q 64 19 69 21 z "},"¤":{"ha":783,"x_min":28,"x_max":756,"o":"m 78 125 q 72 128 75 125 q 32 169 49 147 q 29 176 29 174 q 33 183 31 179 q 38 188 35 186 q 82 224 40 190 q 124 258 124 257 q 88 301 124 261 q 81 320 81 310 q 79 342 81 331 q 81 639 79 615 q 88 658 81 650 q 118 693 104 675 q 124 700 122 694 q 28 783 28 776 q 69 829 32 792 q 76 832 74 832 q 84 830 81 832 q 175 758 88 828 q 180 762 178 760 q 183 765 182 764 l 226 815 q 264 832 242 832 l 526 832 q 556 815 546 832 l 607 757 q 615 763 611 758 q 701 831 686 821 l 706 832 q 713 828 710 832 q 751 789 735 810 q 756 781 756 785 q 719 747 756 774 q 664 701 682 715 q 660 697 661 700 q 694 658 693 660 q 697 656 694 657 q 703 640 703 649 q 704 339 704 619 q 700 308 704 315 q 660 261 696 301 q 663 257 661 258 q 703 226 665 256 q 740 194 740 196 q 751 183 747 190 q 756 178 756 181 q 753 171 756 175 q 721 138 724 140 q 714 131 718 135 q 707 128 710 128 q 700 129 704 128 q 608 201 696 131 q 557 143 603 197 q 519 126 543 126 l 261 126 q 228 142 240 126 l 176 200 l 169 194 q 99 138 135 165 q 92 133 96 136 q 85 127 89 129 q 78 125 81 125 m 297 219 l 492 221 q 510 228 503 221 l 610 343 q 618 363 618 350 l 617 479 l 618 594 q 608 617 618 607 l 508 731 q 493 738 503 738 l 286 739 q 281 737 283 739 q 172 615 278 735 q 167 599 167 610 l 167 363 q 175 340 167 350 l 269 232 q 297 219 279 219 z "},"¥":{"ha":868,"x_min":28,"x_max":840,"o":"m 561 -10 l 444 -8 l 301 -10 q 294 -8 296 -10 q 292 7 292 -6 q 293 171 293 88 q 295 187 293 185 q 317 189 297 189 q 338 190 338 189 q 339 214 339 192 q 338 235 339 235 q 250 235 336 235 q 234 237 242 235 q 224 241 226 239 q 221 249 222 243 q 225 325 221 321 q 292 329 229 329 q 338 330 336 329 q 339 349 339 331 q 338 363 339 363 q 296 364 338 364 q 238 365 247 364 q 224 379 224 365 l 224 440 q 227 453 224 450 q 240 458 231 457 q 329 460 324 458 l 100 753 q 83 761 94 761 q 30 763 32 761 q 28 774 28 765 l 29 835 q 31 966 29 964 q 39 968 32 968 q 289 965 165 968 q 367 964 365 965 q 368 899 368 963 q 364 764 367 767 q 350 761 361 761 l 340 760 l 435 633 l 528 760 l 528 761 q 505 765 508 761 q 501 894 501 768 l 500 950 q 503 965 500 961 q 828 968 507 968 q 837 967 835 968 q 840 864 839 965 q 840 764 840 765 q 828 760 839 763 l 782 761 q 769 756 776 761 q 542 461 542 464 q 588 460 546 460 q 648 456 644 460 q 653 422 651 453 l 651 399 q 649 372 651 375 q 640 367 647 369 q 622 365 633 365 l 533 365 q 529 361 529 365 l 529 333 q 533 329 529 329 q 643 328 633 329 q 654 314 653 326 q 650 239 654 243 q 633 235 646 235 q 531 234 532 235 q 529 226 529 233 q 531 192 529 194 q 551 189 532 189 q 573 187 571 189 q 576 92 575 185 q 574 -8 576 -6 q 561 -10 572 -10 z "},"¦":{"ha":154,"x_min":28,"x_max":126,"o":"m 90 504 l 46 506 q 31 515 32 508 q 29 531 29 522 q 31 924 29 917 q 40 933 32 932 l 111 932 q 124 921 122 932 q 125 717 125 910 l 126 717 l 126 536 q 123 509 126 513 q 90 504 119 506 m 110 -3 l 44 -3 q 37 0 42 -1 q 31 8 32 1 q 28 22 29 15 q 29 417 28 408 q 39 425 31 425 q 44 426 40 426 q 110 424 78 426 q 122 414 121 424 q 124 10 124 404 q 110 -3 122 -1 z "},"§":{"ha":621,"x_min":28,"x_max":593,"o":"m 274 14 l 144 14 q 124 22 132 14 l 40 111 q 29 139 29 122 l 29 231 q 33 242 31 240 q 110 243 35 243 q 191 240 189 242 q 193 194 193 238 l 193 190 q 201 173 193 181 q 214 158 208 165 q 228 150 219 150 l 319 151 q 347 174 322 151 q 351 183 351 178 l 351 249 q 347 258 351 256 q 327 278 331 276 q 138 279 324 279 q 121 288 128 279 l 35 379 q 28 397 28 388 l 28 571 q 36 590 28 582 l 101 660 q 107 675 107 665 l 107 846 q 114 865 107 858 l 142 894 q 199 954 171 924 q 218 963 206 963 l 474 965 q 497 956 489 965 l 585 863 q 592 844 592 856 q 590 740 592 751 q 587 735 590 736 q 579 735 583 735 q 440 736 511 736 q 429 738 431 736 q 428 744 428 739 l 428 789 q 420 806 428 797 q 404 824 413 814 q 396 828 403 828 q 297 826 307 828 q 288 817 294 825 q 272 803 281 810 q 270 800 271 801 q 269 729 269 799 q 272 721 269 724 q 287 707 279 715 q 300 699 294 699 l 483 699 q 500 690 494 699 l 586 599 q 593 582 593 590 l 593 407 q 585 389 593 397 l 521 319 q 514 303 514 314 l 514 135 q 506 113 514 121 l 422 24 q 403 15 415 15 l 274 15 l 274 14 m 224 424 l 396 426 q 401 427 399 426 q 416 440 404 428 q 428 454 428 451 q 429 460 429 457 l 431 522 q 426 533 431 529 q 417 543 421 538 q 396 554 407 554 l 238 554 q 212 544 221 554 q 197 530 203 535 q 190 521 190 525 l 192 488 l 190 454 q 195 444 190 449 q 204 435 200 440 q 224 424 213 424 z "},"¨":{"ha":364,"x_min":28,"x_max":336,"o":"m 67 974 l 44 975 q 34 977 36 975 q 31 988 32 979 l 28 1083 q 28 1097 28 1090 q 39 1106 29 1104 l 119 1107 l 158 1104 q 165 1099 163 1104 q 167 997 167 1083 q 160 978 165 981 q 126 975 156 975 l 67 974 m 236 974 l 215 975 q 205 977 207 975 q 201 985 203 979 q 197 1083 200 992 q 199 1097 199 1090 q 208 1106 200 1104 l 290 1107 l 328 1104 q 335 1099 335 1104 q 336 1040 336 1093 q 331 978 336 982 q 297 975 326 975 l 236 974 z "},"©":{"ha":863,"x_min":28,"x_max":835,"o":"m 576 46 l 288 46 q 261 54 274 46 l 44 210 q 29 239 29 221 l 31 306 l 28 714 q 28 724 28 721 q 31 728 29 726 q 37 732 33 729 q 43 736 40 735 l 258 889 q 285 897 271 897 l 575 897 q 600 889 590 897 l 818 733 q 832 706 832 722 l 831 679 q 833 240 833 460 l 835 229 q 825 211 835 217 q 606 54 715 135 q 576 46 593 46 m 568 94 q 585 100 578 94 l 774 235 q 781 249 781 239 l 778 469 l 779 469 l 778 694 q 771 707 778 703 q 640 800 706 751 l 582 842 q 563 847 574 847 l 292 849 q 278 843 283 849 l 89 708 q 82 696 82 704 l 85 250 q 92 236 85 240 l 272 107 q 306 96 288 96 l 568 94 m 317 140 q 293 149 303 140 l 153 286 q 143 310 143 296 l 143 642 q 149 656 143 650 l 297 800 q 311 806 303 806 l 528 804 q 542 799 536 804 q 689 656 547 793 q 697 638 697 649 q 696 547 697 549 q 606 544 694 544 q 537 546 539 544 q 533 610 535 547 q 529 619 533 617 l 499 644 q 484 657 490 651 q 471 663 478 663 l 368 663 q 357 658 363 663 q 322 626 340 642 q 317 614 317 622 l 317 332 q 322 319 317 324 l 357 288 q 368 283 363 283 l 472 283 q 482 288 479 283 l 529 326 q 533 336 533 331 q 537 399 535 397 q 588 401 539 401 q 693 400 689 401 q 697 353 697 399 q 695 301 697 304 q 690 293 693 297 l 546 153 q 525 142 538 142 l 317 140 z "},"ª":{"ha":218,"x_min":28,"x_max":190,"o":"m 182 879 l 164 881 q 159 883 160 881 q 158 889 158 885 q 153 885 156 889 q 149 881 151 882 q 101 879 146 879 q 88 883 93 879 q 63 900 78 892 q 56 913 56 904 l 56 968 q 74 988 56 972 q 93 1005 92 1004 q 138 1007 94 1006 q 151 1003 146 1007 q 160 996 156 1000 l 161 1042 q 156 1054 161 1050 l 129 1078 q 126 1081 128 1081 q 92 1082 125 1082 q 60 1057 86 1079 q 58 1054 60 1056 q 57 1035 57 1053 q 55 1026 56 1026 q 32 1025 54 1025 q 28 1029 28 1028 l 28 1060 q 49 1082 28 1067 q 72 1104 56 1088 q 86 1108 78 1108 l 132 1108 q 140 1106 138 1108 q 143 1103 142 1104 q 162 1085 156 1092 q 186 1064 168 1079 q 190 1056 190 1063 q 187 883 188 886 q 182 879 186 879 m 132 907 l 138 908 q 147 915 142 913 q 156 922 151 918 q 160 929 160 925 l 160 961 q 139 978 160 964 q 108 979 133 979 q 94 972 100 979 q 85 958 88 965 l 85 922 q 94 911 85 915 l 101 907 l 132 907 z "},"«":{"ha":493,"x_min":28,"x_max":465,"o":"m 425 163 q 418 166 421 163 q 413 171 415 169 q 149 449 411 172 q 145 451 147 449 q 143 456 143 453 q 415 744 143 458 q 422 747 418 747 q 458 728 436 744 q 463 724 463 726 q 460 719 463 721 q 457 715 458 717 q 336 588 456 713 q 215 460 217 463 q 213 457 213 458 q 339 323 213 456 q 465 188 465 190 q 456 178 465 183 q 425 163 432 164 m 310 163 l 304 165 l 33 449 q 28 457 28 454 q 293 738 28 458 q 306 747 296 743 q 313 746 310 747 q 343 729 329 740 q 349 724 349 726 q 176 542 343 715 q 100 457 100 461 q 103 450 100 453 q 351 188 343 199 q 349 183 351 185 q 310 163 322 165 z "},"®":{"ha":393,"x_min":28,"x_max":365,"o":"m 201 776 l 157 776 q 122 792 136 776 l 40 878 q 29 908 29 890 q 28 982 29 946 q 40 1015 28 1003 q 122 1104 82 1058 q 147 1114 133 1114 l 249 1115 q 269 1104 261 1113 l 356 1011 q 365 988 365 1000 l 365 900 q 354 876 365 885 l 271 789 q 247 778 263 778 l 201 778 l 201 776 m 199 842 l 199 843 l 228 843 q 236 847 232 843 l 296 911 q 300 921 300 915 l 300 969 q 297 978 300 976 l 233 1046 q 225 1050 229 1050 l 167 1049 q 162 1048 164 1049 q 97 981 160 1047 q 93 971 93 978 q 94 922 94 947 q 96 916 94 918 q 160 846 97 914 q 171 842 165 842 l 199 842 m 210 888 q 206 893 206 888 l 194 917 q 192 923 194 921 q 181 925 190 925 q 166 922 167 925 q 165 897 165 919 q 163 890 165 890 q 145 892 146 890 q 144 949 144 893 l 146 949 q 147 1006 146 1006 q 206 1007 149 1007 q 221 997 214 1007 q 234 978 232 986 q 236 957 236 969 q 233 944 236 947 q 226 938 229 942 q 219 932 224 935 q 215 926 215 929 l 226 896 q 210 888 226 894 m 171 946 l 201 947 q 214 961 214 951 q 210 976 214 968 q 203 984 206 983 q 172 985 200 985 q 167 979 167 985 l 167 950 q 171 946 167 946 z "},"¯":{"ha":585,"x_min":29,"x_max":558,"o":"m 290 986 l 290 988 q 32 994 35 992 q 29 1019 29 997 q 33 1096 29 1093 q 47 1100 36 1099 q 307 1096 57 1097 q 553 1091 549 1094 q 558 1072 558 1088 l 557 994 q 549 988 556 990 l 290 986 z "},"°":{"ha":310,"x_min":28,"x_max":282,"o":"m 158 864 l 124 864 q 99 874 110 864 l 38 940 q 28 961 28 949 l 28 1019 q 36 1040 28 1032 q 79 1086 57 1064 l 101 1110 q 115 1115 107 1115 l 189 1117 q 213 1106 203 1117 q 272 1042 242 1072 q 282 1018 282 1033 l 282 958 q 274 939 282 947 l 211 872 q 196 865 204 865 l 158 865 l 158 864 m 136 913 q 176 914 146 914 q 186 918 183 914 q 229 963 207 942 q 233 974 233 968 l 232 989 l 233 1004 q 208 1039 233 1013 q 181 1067 183 1065 q 174 1068 178 1068 l 135 1067 q 124 1063 129 1067 q 78 1008 78 1013 l 78 974 q 82 964 78 968 l 126 918 q 136 913 131 913 z "},"±":{"ha":575,"x_min":28,"x_max":547,"o":"m 240 419 q 227 423 231 419 q 224 436 224 426 q 221 619 224 618 q 36 619 218 619 q 29 626 31 619 q 28 685 28 633 q 30 746 28 744 q 44 749 32 747 q 219 749 217 749 q 221 758 221 750 l 219 904 q 222 937 219 935 q 235 939 225 939 q 348 937 346 939 q 351 839 350 935 q 352 751 351 753 q 358 750 353 750 q 521 751 442 750 q 536 751 531 751 q 542 745 542 750 q 543 736 543 740 q 541 622 543 625 q 528 619 539 619 q 354 619 357 619 q 351 614 351 619 l 351 522 l 353 522 q 350 422 353 425 q 240 419 347 419 m 538 182 l 35 182 q 30 185 32 183 q 28 294 28 188 q 31 308 28 304 q 328 314 35 311 l 483 315 q 544 313 543 315 q 547 306 546 311 q 546 183 547 185 q 538 182 544 182 z "},"²":{"ha":246,"x_min":28,"x_max":218,"o":"m 39 793 q 30 794 32 793 q 28 829 28 796 q 29 863 28 860 q 115 961 36 872 q 153 1010 153 1003 q 153 1024 153 1017 q 150 1032 153 1028 q 142 1039 147 1036 l 110 1039 q 101 1035 106 1039 q 96 1024 96 1031 q 94 1007 96 1017 q 94 1002 94 1004 q 78 999 93 1000 q 39 997 54 999 q 30 999 32 997 q 28 1053 28 1001 q 33 1065 28 1060 q 57 1092 46 1078 q 68 1104 63 1099 q 83 1110 74 1110 l 174 1111 q 182 1107 178 1111 q 217 1050 217 1054 l 217 985 q 176 924 217 975 q 136 869 136 874 l 136 871 q 176 869 138 869 q 217 868 215 869 q 218 807 218 867 q 207 794 218 794 q 39 793 67 794 z "},"³":{"ha":247,"x_min":28,"x_max":219,"o":"m 124 793 l 74 793 q 64 797 68 793 q 32 835 49 817 q 29 844 29 839 l 29 886 q 33 894 29 893 q 86 894 36 894 q 92 893 92 894 q 93 882 93 892 q 94 869 93 872 q 98 864 96 865 q 101 860 100 863 q 121 858 101 858 q 140 860 139 858 q 143 861 142 861 q 149 878 149 868 q 147 906 149 901 q 133 915 142 915 l 115 915 q 112 917 114 915 q 110 950 110 918 q 113 987 110 986 q 132 988 115 988 q 149 1004 146 990 l 149 1029 q 140 1043 149 1036 l 139 1044 l 106 1044 q 101 1043 103 1044 q 99 1042 100 1042 q 92 1021 92 1032 l 92 1014 q 90 1008 92 1010 q 60 1007 89 1007 q 29 1010 31 1008 q 28 1038 28 1011 q 29 1064 28 1063 q 31 1067 31 1065 q 63 1106 47 1085 q 72 1110 67 1110 l 172 1110 q 183 1104 179 1110 l 214 1065 q 218 1054 218 1061 l 218 981 q 211 965 218 975 q 204 951 204 954 q 206 947 204 949 q 218 908 218 935 q 219 854 218 882 q 214 838 219 844 l 185 800 q 172 794 181 794 l 124 793 z "},"´":{"ha":188,"x_min":28,"x_max":160,"o":"m 43 944 q 31 947 33 944 q 28 960 28 950 q 28 1075 28 1071 q 38 1079 29 1079 q 49 1080 47 1079 q 50 1088 50 1081 l 47 1186 q 51 1192 49 1189 q 85 1194 53 1194 q 94 1193 92 1194 q 156 1081 97 1192 q 160 1067 160 1074 q 159 949 160 953 q 149 946 158 946 l 43 944 z "},"·":{"ha":183,"x_min":28,"x_max":156,"o":"m 142 407 l 39 407 q 30 409 32 407 q 28 524 28 411 q 42 536 29 536 l 147 536 q 154 534 153 536 q 156 422 156 532 q 153 410 156 413 q 142 407 150 407 z "},"∙":{"ha":183,"x_min":28,"x_max":156,"o":"m 142 407 l 39 407 q 30 409 32 407 q 28 524 28 411 q 42 536 29 536 l 147 536 q 154 534 153 536 q 156 422 156 532 q 153 410 156 413 q 142 407 150 407 z "},"¸":{"ha":286,"x_min":28,"x_max":258,"o":"m 144 -361 l 96 -361 q 76 -350 85 -361 q 28 -283 28 -289 q 35 -274 28 -279 q 75 -249 67 -249 q 108 -287 79 -249 q 125 -297 117 -297 q 139 -290 132 -297 l 185 -251 q 192 -237 192 -246 l 190 -214 q 189 -206 190 -208 q 185 -203 188 -204 l 149 -178 l 126 -161 q 117 -151 117 -156 q 163 -71 122 -131 q 211 -6 204 -6 q 228 -14 217 -6 q 251 -31 239 -22 q 258 -40 258 -36 q 218 -104 254 -49 q 200 -133 201 -129 q 239 -162 200 -135 q 254 -192 254 -171 l 256 -260 q 244 -285 256 -274 l 168 -350 q 144 -361 158 -361 z "},"¹":{"ha":179,"x_min":28,"x_max":151,"o":"m 146 799 l 33 799 q 28 804 28 799 l 28 858 q 32 867 28 867 q 60 867 60 867 q 61 938 61 868 q 60 1008 61 1008 q 31 1009 32 1008 q 28 1025 29 1010 q 29 1045 29 1033 q 38 1068 29 1057 l 68 1108 q 79 1114 74 1114 l 121 1113 q 127 1112 126 1113 q 129 1104 128 1111 l 129 871 q 133 867 129 867 l 146 867 q 151 863 151 867 l 151 804 q 146 799 151 799 z "},"º":{"ha":249,"x_min":28,"x_max":221,"o":"m 179 824 l 68 825 q 51 843 64 828 l 35 863 q 32 868 33 865 q 28 1056 31 871 q 32 1065 28 1063 q 58 1097 49 1085 q 68 1109 67 1108 q 119 1110 69 1110 q 178 1109 175 1110 q 185 1106 182 1108 l 218 1065 q 221 1054 221 1061 q 217 869 218 871 q 208 857 217 867 q 183 826 200 847 l 179 824 m 143 882 q 144 884 143 883 q 149 890 144 885 q 153 899 153 896 l 150 1031 q 144 1043 150 1040 q 124 1047 138 1046 l 107 1046 q 103 1040 104 1042 q 99 1034 101 1038 q 97 964 97 1031 l 96 964 l 96 907 q 96 899 96 903 q 100 890 96 896 q 104 884 104 885 q 114 883 104 883 q 142 882 124 882 l 143 882 z "},"»":{"ha":492,"x_min":26,"x_max":465,"o":"m 67 157 l 63 158 q 31 176 46 165 q 26 181 26 178 q 29 184 28 182 q 281 450 31 186 q 214 521 276 456 q 36 707 126 615 q 29 718 29 714 q 40 726 29 722 q 69 742 64 740 q 76 740 74 742 q 80 736 78 738 q 216 594 82 735 q 350 450 350 453 q 215 307 350 449 q 76 162 81 165 q 67 157 72 158 m 182 157 l 178 158 q 142 181 142 178 q 150 193 144 188 q 396 451 390 444 l 369 481 l 144 718 q 156 728 144 722 q 185 742 178 740 q 194 738 190 742 q 457 463 199 733 l 465 450 l 463 446 l 199 169 q 182 157 188 160 z "},"¼":{"ha":476,"x_min":28,"x_max":449,"o":"m 169 211 l 119 211 q 69 212 71 211 q 67 221 67 213 q 71 242 67 232 q 299 683 297 678 q 310 689 301 689 l 339 688 q 387 685 386 688 q 388 679 388 683 q 382 654 388 667 l 190 257 q 176 219 182 239 q 169 211 172 213 m 438 224 l 376 224 q 371 228 371 224 q 372 265 371 264 q 377 265 372 265 q 382 269 382 265 q 381 282 382 282 q 315 283 317 282 q 314 307 314 283 q 315 333 314 332 q 316 335 315 335 q 353 374 317 336 q 390 412 389 411 q 425 413 392 413 q 431 408 431 413 l 431 367 l 429 367 q 430 322 429 322 q 435 321 431 321 q 449 306 449 321 q 447 283 449 285 q 433 282 446 282 q 429 275 429 282 q 431 267 429 268 q 438 265 432 265 q 443 261 443 265 q 442 225 443 226 q 438 224 440 224 m 382 318 q 385 324 385 318 l 383 344 l 360 318 l 382 318 m 79 450 q 28 451 29 450 q 28 468 28 451 q 32 488 28 488 l 50 488 q 56 492 56 488 l 56 564 q 51 568 56 568 l 35 568 q 29 571 29 568 q 31 597 29 596 q 68 628 61 628 q 110 627 108 628 q 111 558 111 626 q 113 489 111 490 q 121 488 114 488 q 128 487 128 488 q 129 468 129 486 q 128 451 129 451 q 79 450 128 450 z "},"½":{"ha":463,"x_min":28,"x_max":435,"o":"m 119 197 q 68 198 71 197 q 65 207 65 199 q 71 228 65 218 q 299 671 299 669 q 303 674 300 672 q 324 675 306 675 l 382 672 q 388 668 388 672 q 382 640 388 654 q 176 207 181 222 q 173 200 175 203 q 119 197 171 197 m 381 218 q 326 219 326 218 q 325 239 325 219 q 326 258 325 254 q 392 333 326 261 q 397 346 397 340 q 396 355 396 350 q 389 360 396 360 q 374 361 382 361 q 364 350 364 361 q 362 338 364 339 q 343 338 360 338 q 326 339 326 338 q 325 356 325 340 q 326 373 325 371 q 338 388 326 375 q 351 401 349 400 q 357 401 354 401 l 407 403 q 412 402 410 403 q 424 387 414 401 q 433 370 433 372 q 433 329 433 368 q 404 286 433 322 l 386 263 l 429 263 q 433 262 432 263 q 435 240 435 261 q 434 219 435 221 q 381 218 433 218 m 128 436 q 28 438 28 436 l 28 468 q 32 474 28 474 l 50 474 q 56 478 56 474 l 56 550 q 51 554 56 554 l 35 554 q 29 560 29 554 q 31 583 29 582 l 32 583 q 61 613 60 611 q 68 614 63 614 l 110 614 q 111 485 111 613 q 128 474 111 474 q 129 456 129 474 q 128 436 129 436 z "},"¾":{"ha":513,"x_min":28,"x_max":485,"o":"m 156 207 l 111 207 q 104 208 107 207 q 101 217 101 210 q 107 239 101 229 q 331 674 219 456 q 334 679 333 676 q 338 683 335 682 q 381 685 340 685 q 421 683 419 683 q 422 676 422 682 q 417 650 422 661 q 211 217 226 254 q 206 209 208 210 q 156 208 204 208 l 156 207 m 139 450 l 64 450 q 56 453 60 450 q 29 478 29 474 l 29 499 q 32 504 29 504 l 33 504 q 72 506 54 504 q 78 501 78 506 l 78 500 q 90 485 78 489 l 110 485 q 122 497 122 485 l 122 503 q 119 513 122 508 q 110 517 117 517 l 97 515 q 92 522 92 515 q 92 554 92 553 q 103 556 93 556 q 115 557 114 556 q 122 571 122 560 q 115 585 122 579 l 113 586 l 88 585 q 78 575 79 585 q 72 565 78 565 l 33 565 q 28 571 28 565 q 29 596 28 594 q 54 618 31 597 q 139 621 58 621 q 150 617 146 621 l 171 597 q 175 589 175 596 l 175 553 q 172 544 175 547 q 165 536 168 540 q 168 532 165 533 q 175 515 175 525 q 176 483 175 499 q 163 465 176 478 q 146 451 149 453 q 139 450 143 450 m 443 221 q 407 222 408 221 q 406 242 406 222 q 406 262 406 261 q 412 263 407 263 q 417 265 417 263 q 415 277 417 276 q 354 278 414 278 q 349 283 349 278 l 349 326 q 354 335 349 332 l 417 400 q 439 410 425 410 q 465 408 464 410 q 465 363 465 407 l 464 363 l 464 325 q 467 318 464 318 q 485 314 485 318 l 485 285 q 479 279 485 279 l 467 279 l 464 271 q 465 265 465 268 q 467 262 465 263 q 471 261 469 261 l 478 261 l 478 242 q 476 222 478 222 q 443 221 475 221 m 417 315 q 421 318 421 315 l 421 340 l 419 340 l 394 315 l 417 315 z "},"¿":{"ha":574,"x_min":28,"x_max":546,"o":"m 411 -274 l 160 -272 q 136 -260 144 -271 q 81 -181 110 -221 l 39 -124 q 31 -99 31 -112 q 30 40 31 -29 q 28 175 29 108 q 38 208 28 194 q 57 235 49 221 l 158 385 q 168 418 168 400 l 167 504 q 169 520 167 518 q 218 524 171 522 q 425 522 422 524 q 428 508 428 519 q 431 331 428 419 q 419 306 431 317 q 381 258 399 283 l 257 104 q 250 85 250 97 l 250 22 q 254 6 250 14 q 260 -3 257 3 q 271 -10 263 -8 q 303 -8 283 -8 q 315 -3 310 -8 q 319 8 319 3 l 318 100 q 321 107 319 106 q 538 110 322 108 q 544 106 542 108 q 546 81 546 104 q 544 -43 544 42 q 544 -99 544 -94 q 540 -107 543 -103 q 432 -260 538 -111 q 411 -274 428 -274 m 410 568 l 183 568 q 176 570 178 568 q 174 593 175 572 q 177 697 175 692 q 188 703 179 701 l 404 703 q 419 701 417 703 q 421 669 421 699 q 419 573 421 578 q 410 568 417 568 z "},"À":{"ha":693,"x_min":-6,"x_max":682,"o":"m 451 0 q 441 3 444 0 q 435 11 438 6 q 416 60 426 33 q 399 106 406 86 q 389 129 392 124 q 382 147 385 142 q 378 156 379 153 q 378 164 378 160 q 378 171 378 167 q 382 183 379 175 q 385 193 383 188 l 386 201 q 384 205 386 204 q 376 206 382 206 l 339 207 l 300 206 q 300 206 300 206 q 292 204 294 206 q 290 201 290 203 l 292 194 q 294 188 293 190 q 299 167 299 179 q 290 135 299 154 q 247 28 256 54 q 240 9 243 15 q 235 1 238 3 q 226 0 232 0 l 32 3 q 22 4 25 3 q 18 8 19 6 q 17 18 17 11 q 6 92 10 63 q -3 143 0 126 q -6 167 -6 160 q -4 173 -6 171 q -1 178 -3 175 q -1 178 -1 178 q 51 322 40 244 q 126 675 107 590 q 139 733 135 714 q 143 763 143 753 q 142 771 143 767 q 139 779 140 775 q 132 796 135 788 q 125 813 129 804 q 122 824 122 818 q 126 838 122 831 q 169 910 154 883 q 188 942 181 931 q 199 958 194 953 q 207 964 204 963 q 215 965 210 965 l 464 965 q 474 963 469 965 q 483 950 478 960 q 500 922 489 940 q 549 839 515 894 q 554 824 554 831 q 551 811 554 818 l 536 776 q 536 775 536 776 q 534 770 535 772 q 533 764 533 768 q 539 726 533 754 q 560 629 544 699 q 585 511 569 583 q 619 349 607 404 q 631 288 626 310 q 639 256 636 267 q 644 241 642 246 q 649 232 646 236 q 656 218 653 225 q 672 188 667 199 q 680 173 678 178 q 682 165 682 168 l 682 161 q 679 144 681 153 q 660 18 671 82 q 658 8 660 11 q 653 4 657 6 q 643 3 650 3 q 451 0 547 3 m 394 397 q 401 399 400 397 q 403 404 403 401 l 401 414 l 340 689 l 336 689 l 274 403 q 278 399 274 400 q 297 397 283 397 l 394 397 m 429 1001 l 322 1003 q 312 1006 313 1003 q 311 1124 311 1010 q 315 1138 311 1131 q 368 1238 343 1188 q 376 1250 374 1249 q 388 1251 379 1251 q 415 1250 404 1251 q 424 1243 422 1250 l 421 1144 q 422 1137 421 1138 q 431 1136 424 1136 q 441 1135 439 1136 q 443 1069 443 1135 q 441 1004 443 1007 q 429 1001 439 1001 z "},"Á":{"ha":693,"x_min":-6,"x_max":682,"o":"m 451 0 q 441 3 444 0 q 435 11 438 6 q 416 60 426 33 q 399 106 406 86 q 389 129 392 124 q 382 147 385 142 q 378 156 379 153 q 378 164 378 160 q 378 171 378 167 q 382 183 379 175 q 385 193 383 188 l 386 201 q 384 205 386 204 q 376 206 382 206 l 339 207 l 300 206 q 300 206 300 206 q 292 204 294 206 q 290 201 290 203 l 292 194 q 294 188 293 190 q 299 167 299 179 q 290 135 299 154 q 247 28 256 54 q 240 9 243 15 q 235 1 238 3 q 226 0 232 0 l 32 3 q 22 4 25 3 q 18 8 19 6 q 17 18 17 11 q 6 92 10 63 q -3 143 0 126 q -6 167 -6 160 q -4 173 -6 171 q -1 178 -3 175 q -1 178 -1 178 q 51 322 40 244 q 126 675 107 590 q 139 733 135 714 q 143 763 143 753 q 142 771 143 767 q 139 779 140 775 q 132 796 135 788 q 125 813 129 804 q 122 824 122 818 q 126 838 122 831 q 169 910 154 883 q 188 942 181 931 q 199 958 194 953 q 207 964 204 963 q 215 965 210 965 l 464 965 q 474 963 469 965 q 483 950 478 960 q 500 922 489 940 q 549 839 515 894 q 554 824 554 831 q 551 811 554 818 l 536 776 q 536 775 536 776 q 534 770 535 772 q 533 764 533 768 q 539 726 533 754 q 560 629 544 699 q 585 511 569 583 q 619 349 607 404 q 631 288 626 310 q 639 256 636 267 q 644 241 642 246 q 649 232 646 236 q 656 218 653 225 q 672 188 667 199 q 680 173 678 178 q 682 165 682 168 l 682 161 q 679 144 681 153 q 660 18 671 82 q 658 8 660 11 q 653 4 657 6 q 643 3 650 3 q 451 0 547 3 m 394 397 q 401 399 400 397 q 403 404 403 401 l 401 414 l 340 689 l 336 689 l 274 403 q 278 399 274 400 q 297 397 283 397 l 394 397 m 315 997 q 303 1000 306 997 q 300 1013 300 1003 q 301 1128 300 1124 q 310 1132 301 1132 q 321 1133 319 1132 q 322 1140 322 1133 l 319 1239 q 323 1244 321 1242 q 357 1247 325 1247 q 367 1246 364 1247 q 428 1133 369 1244 q 432 1119 432 1126 q 431 1002 432 1006 q 421 999 431 999 l 315 997 z "},"Â":{"ha":693,"x_min":-6,"x_max":682,"o":"m 451 0 q 441 3 444 0 q 435 11 438 6 q 416 60 426 33 q 399 106 406 86 q 389 129 392 124 q 382 147 385 142 q 378 156 379 153 q 378 164 378 160 q 378 171 378 167 q 382 183 379 175 q 385 193 383 188 l 386 201 q 384 205 386 204 q 376 206 382 206 l 339 207 l 300 206 q 300 206 300 206 q 292 204 294 206 q 290 201 290 203 l 292 194 q 294 188 293 190 q 299 167 299 179 q 290 135 299 154 q 247 28 256 54 q 240 9 243 15 q 235 1 238 3 q 226 0 232 0 l 32 3 q 22 4 25 3 q 18 8 19 6 q 17 18 17 11 q 6 92 10 63 q -3 143 0 126 q -6 167 -6 160 q -4 173 -6 171 q -1 178 -3 175 q -1 178 -1 178 q 51 322 40 244 q 126 675 107 590 q 139 733 135 714 q 143 763 143 753 q 142 771 143 767 q 139 779 140 775 q 132 796 135 788 q 125 813 129 804 q 122 824 122 818 q 126 838 122 831 q 169 910 154 883 q 188 942 181 931 q 199 958 194 953 q 207 964 204 963 q 215 965 210 965 l 464 965 q 474 963 469 965 q 483 950 478 960 q 500 922 489 940 q 549 839 515 894 q 554 824 554 831 q 551 811 554 818 l 536 776 q 536 775 536 776 q 534 770 535 772 q 533 764 533 768 q 539 726 533 754 q 560 629 544 699 q 585 511 569 583 q 619 349 607 404 q 631 288 626 310 q 639 256 636 267 q 644 241 642 246 q 649 232 646 236 q 656 218 653 225 q 672 188 667 199 q 680 173 678 178 q 682 165 682 168 l 682 161 q 679 144 681 153 q 660 18 671 82 q 658 8 660 11 q 653 4 657 6 q 643 3 650 3 q 451 0 547 3 m 394 397 q 401 399 400 397 q 403 404 403 401 l 401 414 l 340 689 l 336 689 l 274 403 q 278 399 274 400 q 297 397 283 397 l 394 397 m 306 1008 l 301 1010 l 272 1026 q 268 1032 268 1029 l 274 1047 q 342 1168 283 1063 q 358 1178 347 1178 q 393 1176 390 1178 q 436 1106 396 1175 q 476 1032 476 1036 q 467 1022 476 1028 q 439 1010 444 1011 q 376 1111 432 1010 l 371 1118 q 367 1115 368 1117 q 317 1021 367 1113 q 310 1013 313 1017 q 306 1008 308 1008 z "},"Ã":{"ha":693,"x_min":-6,"x_max":682,"o":"m 451 0 q 441 3 444 0 q 435 11 438 6 q 416 60 426 33 q 399 106 406 86 q 389 129 392 124 q 382 147 385 142 q 378 156 379 153 q 378 164 378 160 q 378 171 378 167 q 382 183 379 175 q 385 193 383 188 l 386 201 q 384 205 386 204 q 376 206 382 206 l 339 207 l 300 206 q 300 206 300 206 q 292 204 294 206 q 290 201 290 203 l 292 194 q 294 188 293 190 q 299 167 299 179 q 290 135 299 154 q 247 28 256 54 q 240 9 243 15 q 235 1 238 3 q 226 0 232 0 l 32 3 q 22 4 25 3 q 18 8 19 6 q 17 18 17 11 q 6 92 10 63 q -3 143 0 126 q -6 167 -6 160 q -4 173 -6 171 q -1 178 -3 175 q -1 178 -1 178 q 51 322 40 244 q 126 675 107 590 q 139 733 135 714 q 143 763 143 753 q 142 771 143 767 q 139 779 140 775 q 132 796 135 788 q 125 813 129 804 q 122 824 122 818 q 126 838 122 831 q 169 910 154 883 q 188 942 181 931 q 199 958 194 953 q 207 964 204 963 q 215 965 210 965 l 464 965 q 474 963 469 965 q 483 950 478 960 q 500 922 489 940 q 549 839 515 894 q 554 824 554 831 q 551 811 554 818 l 536 776 q 536 775 536 776 q 534 770 535 772 q 533 764 533 768 q 539 726 533 754 q 560 629 544 699 q 585 511 569 583 q 619 349 607 404 q 631 288 626 310 q 639 256 636 267 q 644 241 642 246 q 649 232 646 236 q 656 218 653 225 q 672 188 667 199 q 680 173 678 178 q 682 165 682 168 l 682 161 q 679 144 681 153 q 660 18 671 82 q 658 8 660 11 q 653 4 657 6 q 643 3 650 3 q 451 0 547 3 m 394 397 q 401 399 400 397 q 403 404 403 401 l 401 414 l 340 689 l 336 689 l 274 403 q 278 399 274 400 q 297 397 283 397 l 394 397 m 279 996 l 250 996 q 246 999 247 997 q 243 1036 244 1000 q 247 1069 244 1067 l 272 1106 q 285 1114 276 1114 l 314 1114 l 314 1115 l 342 1115 q 353 1110 349 1115 l 397 1060 q 411 1054 403 1054 l 428 1054 q 436 1060 435 1054 q 446 1092 446 1074 q 448 1122 446 1119 q 468 1124 450 1124 q 488 1122 486 1124 q 490 1083 489 1121 q 487 1053 490 1061 q 461 1013 483 1046 q 444 1004 456 1004 l 396 1004 q 378 1011 386 1004 l 335 1060 q 324 1065 331 1065 l 306 1064 l 303 1064 q 297 1060 299 1064 q 292 1053 296 1057 q 288 1045 289 1049 q 288 1003 288 1042 q 279 996 288 997 z "},"Ä":{"ha":693,"x_min":-6,"x_max":682,"o":"m 451 0 q 441 3 444 0 q 435 11 438 6 q 416 60 426 33 q 399 106 406 86 q 389 129 392 124 q 382 147 385 142 q 378 156 379 153 q 378 164 378 160 q 378 171 378 167 q 382 183 379 175 q 385 193 383 188 l 386 201 q 384 205 386 204 q 376 206 382 206 l 339 207 l 300 206 q 300 206 300 206 q 292 204 294 206 q 290 201 290 203 l 292 194 q 294 188 293 190 q 299 167 299 179 q 290 135 299 154 q 247 28 256 54 q 240 9 243 15 q 235 1 238 3 q 226 0 232 0 l 32 3 q 22 4 25 3 q 18 8 19 6 q 17 18 17 11 q 6 92 10 63 q -3 143 0 126 q -6 167 -6 160 q -4 173 -6 171 q -1 178 -3 175 q -1 178 -1 178 q 51 322 40 244 q 126 675 107 590 q 139 733 135 714 q 143 763 143 753 q 142 771 143 767 q 139 779 140 775 q 132 796 135 788 q 125 813 129 804 q 122 824 122 818 q 126 838 122 831 q 169 910 154 883 q 188 942 181 931 q 199 958 194 953 q 207 964 204 963 q 215 965 210 965 l 464 965 q 474 963 469 965 q 483 950 478 960 q 500 922 489 940 q 549 839 515 894 q 554 824 554 831 q 551 811 554 818 l 536 776 q 536 775 536 776 q 534 770 535 772 q 533 764 533 768 q 539 726 533 754 q 560 629 544 699 q 585 511 569 583 q 619 349 607 404 q 631 288 626 310 q 639 256 636 267 q 644 241 642 246 q 649 232 646 236 q 656 218 653 225 q 672 188 667 199 q 680 173 678 178 q 682 165 682 168 l 682 161 q 679 144 681 153 q 660 18 671 82 q 658 8 660 11 q 653 4 657 6 q 643 3 650 3 q 451 0 547 3 m 394 397 q 401 399 400 397 q 403 404 403 401 l 401 414 l 340 689 l 336 689 l 274 403 q 278 399 274 400 q 297 397 283 397 l 394 397 m 257 1007 l 235 1008 q 224 1010 226 1008 q 221 1021 222 1013 l 218 1117 q 219 1131 218 1124 q 229 1139 219 1138 l 310 1140 l 349 1138 q 356 1132 353 1138 q 357 1031 357 1117 q 351 1011 356 1014 q 317 1008 346 1008 l 257 1007 m 426 1007 l 406 1008 q 395 1010 397 1008 q 392 1019 393 1013 q 388 1117 390 1025 q 390 1131 389 1124 q 399 1139 390 1138 l 481 1140 l 518 1138 q 526 1132 525 1138 q 526 1074 526 1126 q 522 1012 526 1015 q 488 1008 517 1008 l 426 1007 z "},"Å":{"ha":693,"x_min":-6,"x_max":682,"o":"m 451 0 q 441 3 444 0 q 435 11 438 6 q 416 60 426 33 q 399 106 406 86 q 389 129 392 124 q 382 147 385 142 q 378 156 379 153 q 378 164 378 160 q 378 171 378 167 q 382 183 379 175 q 385 193 383 188 l 386 201 q 384 205 386 204 q 376 206 382 206 l 339 207 l 300 206 q 300 206 300 206 q 292 204 294 206 q 290 201 290 203 l 292 194 q 294 188 293 190 q 299 167 299 179 q 290 135 299 154 q 247 28 256 54 q 240 9 243 15 q 235 1 238 3 q 226 0 232 0 l 32 3 q 22 4 25 3 q 18 8 19 6 q 17 18 17 11 q 6 92 10 63 q -3 143 0 126 q -6 167 -6 160 q -4 173 -6 171 q -1 178 -3 175 q -1 178 -1 178 q 51 322 40 244 q 126 675 107 590 q 139 733 135 714 q 143 763 143 753 q 142 771 143 767 q 139 779 140 775 q 132 796 135 788 q 125 813 129 804 q 122 824 122 818 q 126 838 122 831 q 169 910 154 883 q 188 942 181 931 q 199 958 194 953 q 207 964 204 963 q 215 965 210 965 l 464 965 q 474 963 469 965 q 483 950 478 960 q 500 922 489 940 q 549 839 515 894 q 554 824 554 831 q 551 811 554 818 l 536 776 q 536 775 536 776 q 534 770 535 772 q 533 764 533 768 q 539 726 533 754 q 560 629 544 699 q 585 511 569 583 q 619 349 607 404 q 631 288 626 310 q 639 256 636 267 q 644 241 642 246 q 649 232 646 236 q 656 218 653 225 q 672 188 667 199 q 680 173 678 178 q 682 165 682 168 l 682 161 q 679 144 681 153 q 660 18 671 82 q 658 8 660 11 q 653 4 657 6 q 643 3 650 3 q 451 0 547 3 m 394 397 q 401 399 400 397 q 403 404 403 401 l 401 414 l 340 689 l 336 689 l 274 403 q 278 399 274 400 q 297 397 283 397 l 394 397 m 372 1004 q 302 1034 329 1006 q 275 1103 275 1063 q 305 1172 275 1144 q 375 1200 335 1200 q 443 1170 417 1199 q 469 1101 469 1142 q 441 1033 469 1061 q 372 1004 413 1004 m 372 1068 q 396 1078 386 1068 q 406 1103 406 1088 q 396 1126 406 1117 q 372 1136 386 1136 q 349 1126 358 1136 q 339 1103 339 1117 q 349 1078 339 1089 q 372 1068 358 1068 z "},"Æ":{"ha":1258,"x_min":-11,"x_max":1274,"o":"m 446 0 q 435 3 439 0 q 429 11 432 6 q 410 60 421 33 q 393 106 400 86 q 383 129 386 124 q 376 147 379 142 q 373 156 374 153 q 372 164 372 160 q 373 171 372 167 q 376 183 374 175 q 379 193 378 188 l 381 201 q 378 205 381 204 q 371 206 376 206 l 333 207 l 294 206 q 294 206 294 206 q 287 204 289 206 q 285 201 285 203 l 286 194 q 289 188 288 190 q 293 167 293 179 q 285 135 293 154 q 242 28 250 54 q 235 9 238 15 q 229 1 232 3 q 221 0 226 0 l 26 3 q 17 4 19 3 q 13 8 14 6 q 11 18 11 11 q 0 92 4 63 q -8 143 -6 126 q -11 167 -11 160 q -10 173 -11 171 q -7 178 -8 175 q -7 178 -7 178 q 46 322 35 244 q 121 675 101 590 q 133 733 129 714 q 138 763 138 753 q 136 771 138 767 q 133 779 135 775 q 126 796 129 788 q 119 813 124 804 q 117 824 117 818 q 121 838 117 831 q 164 910 149 883 q 182 942 175 931 q 194 958 189 953 q 201 964 199 963 q 210 965 204 965 l 458 965 q 468 963 464 965 q 478 950 472 960 q 494 922 483 940 q 543 839 510 894 q 549 824 549 831 q 546 811 549 818 l 531 776 q 531 775 531 776 q 528 770 529 772 q 528 764 528 768 q 533 726 528 754 q 554 629 539 699 q 579 511 564 583 q 614 349 601 404 q 626 288 621 310 q 633 256 631 267 q 638 241 636 246 q 643 232 640 236 q 650 218 647 225 q 667 188 661 199 q 674 173 672 178 q 676 165 676 168 l 676 161 q 674 144 675 153 q 654 18 665 82 q 653 8 654 11 q 648 4 651 6 q 638 3 644 3 q 446 0 542 3 m 389 397 q 396 399 394 397 q 397 404 397 401 l 396 414 l 335 689 l 331 689 l 268 403 q 273 399 268 400 q 292 397 278 397 l 389 397 m 914 0 l 689 0 q 683 1 686 0 q 678 6 681 1 q 672 20 676 11 q 661 46 668 29 q 618 151 649 79 q 615 167 615 160 q 618 182 615 175 l 646 244 q 649 261 649 253 l 650 618 q 649 682 650 658 q 647 717 649 706 q 644 736 646 729 q 638 750 642 743 q 624 781 629 764 q 617 796 619 788 q 615 797 617 797 q 615 801 615 800 q 614 806 614 803 q 619 824 614 811 q 638 868 624 838 q 676 964 651 901 q 690 974 681 974 l 1140 972 q 1147 969 1144 972 q 1154 960 1150 967 q 1164 939 1158 953 q 1175 917 1169 929 l 1268 722 q 1274 708 1274 713 q 1271 702 1274 704 q 1263 696 1268 700 q 1199 653 1242 682 q 1128 604 1157 624 q 1118 599 1122 599 q 1115 601 1117 599 q 1110 606 1113 603 q 1064 651 1081 635 q 1038 678 1047 669 q 1022 690 1028 688 q 1007 694 1015 693 q 944 703 961 700 q 928 706 933 706 q 923 703 924 706 q 922 694 922 700 q 921 629 921 663 l 921 628 q 923 620 921 622 q 933 617 925 618 q 960 617 942 617 q 1003 617 976 617 q 1024 615 1018 617 q 1033 610 1031 614 q 1038 601 1036 607 q 1038 599 1038 600 q 1069 476 1058 518 q 1082 429 1078 446 q 1088 405 1086 413 q 1089 392 1089 397 l 1088 375 q 1087 371 1088 372 q 1083 368 1086 369 q 1071 366 1079 367 q 1048 365 1063 365 q 1010 364 1033 365 q 936 363 981 364 q 923 360 925 363 q 921 347 921 358 q 922 279 921 314 q 923 272 922 274 q 926 269 924 269 l 932 269 q 981 276 963 274 q 1006 281 997 279 q 1020 283 1015 282 q 1027 286 1025 285 q 1032 290 1029 288 l 1113 371 q 1119 375 1117 375 q 1126 372 1124 375 l 1263 279 q 1271 272 1268 275 q 1274 267 1274 269 q 1269 253 1274 261 l 1154 15 q 1145 3 1151 6 q 1132 1 1139 1 l 914 1 l 914 0 z "},"Ç":{"ha":714,"x_min":18,"x_max":686,"o":"m 247 0 q 223 1 231 0 q 212 3 215 1 q 206 7 208 4 q 204 8 206 8 q 38 139 121 75 q 31 144 33 142 q 29 147 29 146 q 33 157 29 151 q 54 196 46 182 q 65 217 61 210 q 70 229 69 225 q 71 239 71 233 q 64 736 67 488 q 60 751 64 744 q 49 772 57 758 q 22 818 39 788 q 18 828 18 824 q 20 831 18 829 q 26 836 22 833 q 122 910 86 882 q 160 940 144 928 q 184 958 175 951 q 198 967 193 964 q 206 972 203 971 q 211 972 208 972 l 214 972 q 361 972 306 972 q 446 972 415 972 q 490 970 476 971 q 510 967 504 969 q 521 960 517 965 q 524 958 522 960 q 646 872 610 896 q 670 855 661 861 q 683 845 679 849 q 686 839 686 842 l 683 832 q 665 792 671 806 q 656 772 658 779 q 654 757 654 765 q 656 686 656 722 q 658 623 657 650 q 658 590 658 596 l 658 589 q 644 578 658 578 q 508 622 614 578 q 414 658 467 639 q 399 664 404 661 q 393 672 394 667 q 392 688 392 678 l 393 704 q 390 713 393 708 q 378 717 385 717 l 369 717 l 347 719 q 331 713 335 719 q 326 694 326 706 q 328 588 328 621 q 331 544 329 556 q 331 531 331 536 q 331 519 331 526 q 331 494 331 511 l 335 294 q 365 264 335 265 q 381 266 379 264 q 383 282 383 268 l 376 443 q 378 456 376 451 q 389 460 381 460 q 511 422 413 460 q 607 389 550 408 q 622 383 615 386 q 638 377 633 379 q 644 372 643 375 q 646 364 646 369 l 646 286 q 646 253 646 264 q 647 234 646 242 q 651 219 649 226 q 654 208 653 214 q 669 156 661 182 q 671 146 671 150 q 663 131 671 138 q 581 57 610 83 q 547 26 560 38 q 528 10 535 15 q 516 4 521 6 q 504 3 511 3 l 503 3 q 304 1 365 1 q 247 0 268 0 m 364 -278 l 315 -278 q 296 -267 304 -278 q 247 -200 247 -206 q 254 -190 247 -196 q 294 -165 286 -165 q 328 -204 299 -165 q 344 -214 336 -214 q 358 -207 351 -214 l 404 -168 q 411 -154 411 -162 l 410 -131 q 408 -123 410 -125 q 404 -119 407 -121 l 368 -94 l 346 -78 q 336 -68 336 -72 q 382 13 342 -47 q 431 78 424 78 q 447 69 436 78 q 471 53 458 61 q 478 43 478 47 q 438 -21 474 35 q 419 -50 421 -46 q 458 -79 419 -51 q 474 -108 474 -87 l 475 -176 q 464 -201 475 -190 l 388 -267 q 364 -278 378 -278 z "},"È":{"ha":708,"x_min":31,"x_max":690,"o":"m 331 0 l 106 0 q 100 1 103 0 q 95 6 97 1 q 89 20 93 11 q 78 46 85 29 q 35 151 65 79 q 32 167 32 160 q 35 182 32 175 l 63 244 q 65 261 65 253 l 67 618 q 66 682 67 658 q 64 717 65 706 q 60 736 63 729 q 54 750 58 743 q 40 781 46 764 q 33 796 36 788 q 32 797 33 797 q 31 801 32 800 q 31 806 31 803 q 35 824 31 811 q 54 868 40 838 q 93 964 68 901 q 107 974 97 974 l 557 972 q 564 969 561 972 q 571 960 567 967 q 581 939 575 953 q 592 917 586 929 l 685 722 q 690 708 690 713 q 688 702 690 704 q 679 696 685 700 q 616 653 658 682 q 544 604 574 624 q 535 599 539 599 q 531 601 533 599 q 526 606 529 603 q 481 651 497 635 q 454 678 464 669 q 438 690 444 688 q 424 694 432 693 q 361 703 378 700 q 344 706 350 706 q 340 703 340 706 q 339 694 339 700 q 338 629 338 663 l 338 628 q 340 620 338 622 q 350 617 342 618 q 376 617 358 617 q 419 617 393 617 q 441 615 435 617 q 450 610 447 614 q 454 601 453 607 q 454 599 454 600 q 486 476 475 518 q 499 429 494 446 q 504 405 503 413 q 506 392 506 397 l 504 375 q 503 371 504 372 q 499 368 503 369 q 488 366 496 367 q 465 365 479 365 q 426 364 450 365 q 353 363 397 364 q 340 360 342 363 q 338 347 338 358 q 339 279 338 314 q 340 272 339 274 q 343 269 340 269 l 349 269 q 397 276 379 274 q 423 281 414 279 q 437 283 432 282 q 444 286 442 285 q 449 290 446 288 l 529 371 q 536 375 533 375 q 543 372 540 375 l 679 279 q 688 272 685 275 q 690 267 690 269 q 686 253 690 261 l 571 15 q 562 3 568 6 q 549 1 556 1 l 331 1 l 331 0 m 388 1001 l 281 1003 q 270 1006 271 1003 q 269 1124 269 1010 q 274 1138 269 1131 q 326 1238 301 1188 q 335 1250 332 1249 q 346 1251 338 1251 q 374 1250 363 1251 q 382 1243 381 1250 l 379 1144 q 381 1137 379 1138 q 390 1136 382 1136 q 399 1135 397 1136 q 401 1069 401 1135 q 399 1004 401 1007 q 388 1001 397 1001 z "},"É":{"ha":708,"x_min":31,"x_max":690,"o":"m 331 0 l 106 0 q 100 1 103 0 q 95 6 97 1 q 89 20 93 11 q 78 46 85 29 q 35 151 65 79 q 32 167 32 160 q 35 182 32 175 l 63 244 q 65 261 65 253 l 67 618 q 66 682 67 658 q 64 717 65 706 q 60 736 63 729 q 54 750 58 743 q 40 781 46 764 q 33 796 36 788 q 32 797 33 797 q 31 801 32 800 q 31 806 31 803 q 35 824 31 811 q 54 868 40 838 q 93 964 68 901 q 107 974 97 974 l 557 972 q 564 969 561 972 q 571 960 567 967 q 581 939 575 953 q 592 917 586 929 l 685 722 q 690 708 690 713 q 688 702 690 704 q 679 696 685 700 q 616 653 658 682 q 544 604 574 624 q 535 599 539 599 q 531 601 533 599 q 526 606 529 603 q 481 651 497 635 q 454 678 464 669 q 438 690 444 688 q 424 694 432 693 q 361 703 378 700 q 344 706 350 706 q 340 703 340 706 q 339 694 339 700 q 338 629 338 663 l 338 628 q 340 620 338 622 q 350 617 342 618 q 376 617 358 617 q 419 617 393 617 q 441 615 435 617 q 450 610 447 614 q 454 601 453 607 q 454 599 454 600 q 486 476 475 518 q 499 429 494 446 q 504 405 503 413 q 506 392 506 397 l 504 375 q 503 371 504 372 q 499 368 503 369 q 488 366 496 367 q 465 365 479 365 q 426 364 450 365 q 353 363 397 364 q 340 360 342 363 q 338 347 338 358 q 339 279 338 314 q 340 272 339 274 q 343 269 340 269 l 349 269 q 397 276 379 274 q 423 281 414 279 q 437 283 432 282 q 444 286 442 285 q 449 290 446 288 l 529 371 q 536 375 533 375 q 543 372 540 375 l 679 279 q 688 272 685 275 q 690 267 690 269 q 686 253 690 261 l 571 15 q 562 3 568 6 q 549 1 556 1 l 331 1 l 331 0 m 268 1000 q 256 1003 258 1000 q 253 1015 253 1006 q 253 1131 253 1126 q 263 1135 254 1135 q 274 1135 272 1135 q 275 1143 275 1136 l 272 1242 q 276 1247 274 1244 q 310 1250 278 1250 q 319 1249 317 1250 q 381 1136 322 1247 q 385 1122 385 1129 q 384 1005 385 1008 q 374 1001 383 1001 l 268 1000 z "},"Ê":{"ha":708,"x_min":31,"x_max":690,"o":"m 331 0 l 106 0 q 100 1 103 0 q 95 6 97 1 q 89 20 93 11 q 78 46 85 29 q 35 151 65 79 q 32 167 32 160 q 35 182 32 175 l 63 244 q 65 261 65 253 l 67 618 q 66 682 67 658 q 64 717 65 706 q 60 736 63 729 q 54 750 58 743 q 40 781 46 764 q 33 796 36 788 q 32 797 33 797 q 31 801 32 800 q 31 806 31 803 q 35 824 31 811 q 54 868 40 838 q 93 964 68 901 q 107 974 97 974 l 557 972 q 564 969 561 972 q 571 960 567 967 q 581 939 575 953 q 592 917 586 929 l 685 722 q 690 708 690 713 q 688 702 690 704 q 679 696 685 700 q 616 653 658 682 q 544 604 574 624 q 535 599 539 599 q 531 601 533 599 q 526 606 529 603 q 481 651 497 635 q 454 678 464 669 q 438 690 444 688 q 424 694 432 693 q 361 703 378 700 q 344 706 350 706 q 340 703 340 706 q 339 694 339 700 q 338 629 338 663 l 338 628 q 340 620 338 622 q 350 617 342 618 q 376 617 358 617 q 419 617 393 617 q 441 615 435 617 q 450 610 447 614 q 454 601 453 607 q 454 599 454 600 q 486 476 475 518 q 499 429 494 446 q 504 405 503 413 q 506 392 506 397 l 504 375 q 503 371 504 372 q 499 368 503 369 q 488 366 496 367 q 465 365 479 365 q 426 364 450 365 q 353 363 397 364 q 340 360 342 363 q 338 347 338 358 q 339 279 338 314 q 340 272 339 274 q 343 269 340 269 l 349 269 q 397 276 379 274 q 423 281 414 279 q 437 283 432 282 q 444 286 442 285 q 449 290 446 288 l 529 371 q 536 375 533 375 q 543 372 540 375 l 679 279 q 688 272 685 275 q 690 267 690 269 q 686 253 690 261 l 571 15 q 562 3 568 6 q 549 1 556 1 l 331 1 l 331 0 m 264 1003 l 260 1004 l 231 1021 q 226 1026 226 1024 l 232 1042 q 300 1163 242 1057 q 317 1172 306 1172 q 351 1171 349 1172 q 394 1100 354 1169 q 435 1026 435 1031 q 425 1017 435 1022 q 397 1004 403 1006 q 335 1106 390 1004 l 329 1113 q 326 1109 326 1111 q 275 1015 325 1107 q 269 1007 271 1011 q 264 1003 267 1003 z "},"Ë":{"ha":708,"x_min":31,"x_max":690,"o":"m 331 0 l 106 0 q 100 1 103 0 q 95 6 97 1 q 89 20 93 11 q 78 46 85 29 q 35 151 65 79 q 32 167 32 160 q 35 182 32 175 l 63 244 q 65 261 65 253 l 67 618 q 66 682 67 658 q 64 717 65 706 q 60 736 63 729 q 54 750 58 743 q 40 781 46 764 q 33 796 36 788 q 32 797 33 797 q 31 801 32 800 q 31 806 31 803 q 35 824 31 811 q 54 868 40 838 q 93 964 68 901 q 107 974 97 974 l 557 972 q 564 969 561 972 q 571 960 567 967 q 581 939 575 953 q 592 917 586 929 l 685 722 q 690 708 690 713 q 688 702 690 704 q 679 696 685 700 q 616 653 658 682 q 544 604 574 624 q 535 599 539 599 q 531 601 533 599 q 526 606 529 603 q 481 651 497 635 q 454 678 464 669 q 438 690 444 688 q 424 694 432 693 q 361 703 378 700 q 344 706 350 706 q 340 703 340 706 q 339 694 339 700 q 338 629 338 663 l 338 628 q 340 620 338 622 q 350 617 342 618 q 376 617 358 617 q 419 617 393 617 q 441 615 435 617 q 450 610 447 614 q 454 601 453 607 q 454 599 454 600 q 486 476 475 518 q 499 429 494 446 q 504 405 503 413 q 506 392 506 397 l 504 375 q 503 371 504 372 q 499 368 503 369 q 488 366 496 367 q 465 365 479 365 q 426 364 450 365 q 353 363 397 364 q 340 360 342 363 q 338 347 338 358 q 339 279 338 314 q 340 272 339 274 q 343 269 340 269 l 349 269 q 397 276 379 274 q 423 281 414 279 q 437 283 432 282 q 444 286 442 285 q 449 290 446 288 l 529 371 q 536 375 533 375 q 543 372 540 375 l 679 279 q 688 272 685 275 q 690 267 690 269 q 686 253 690 261 l 571 15 q 562 3 568 6 q 549 1 556 1 l 331 1 l 331 0 m 224 996 l 201 997 q 191 999 193 997 q 188 1010 189 1001 l 185 1106 q 185 1119 185 1113 q 196 1128 186 1126 l 276 1129 l 315 1126 q 322 1121 319 1126 q 324 1019 324 1106 q 317 1000 322 1003 q 283 997 313 997 l 224 996 m 393 996 l 372 997 q 362 999 364 997 q 358 1008 360 1001 q 354 1106 357 1014 q 356 1119 356 1113 q 365 1128 357 1126 l 447 1129 l 485 1126 q 492 1121 492 1126 q 493 1063 493 1115 q 488 1001 493 1004 q 454 997 483 997 l 393 996 z "},"Ì":{"ha":406,"x_min":25,"x_max":363,"o":"m 297 -3 l 103 -3 q 82 11 89 -3 q 42 108 54 79 q 28 138 32 128 q 25 153 25 147 q 28 165 25 160 q 48 213 40 196 q 60 240 56 231 q 65 256 64 250 q 65 265 65 261 l 67 485 l 65 703 q 65 712 65 707 q 60 726 64 717 q 49 753 57 736 q 29 800 42 771 q 25 814 25 807 q 30 833 25 821 q 46 871 35 846 q 81 956 58 900 q 90 967 85 964 q 104 971 94 971 l 297 971 q 308 970 306 971 q 313 966 311 969 q 318 956 315 963 q 342 883 333 910 q 358 834 354 849 q 363 814 363 819 q 362 808 363 811 q 360 803 361 806 q 360 803 360 803 q 340 761 347 776 q 328 738 332 746 q 324 726 325 731 q 324 718 324 722 l 322 483 l 324 249 q 329 231 324 239 q 340 208 335 218 q 358 168 353 181 q 363 150 363 156 l 361 140 l 317 11 q 313 1 315 4 q 308 -2 311 -1 q 297 -3 306 -3 m 254 1010 l 147 1011 q 137 1015 138 1011 q 136 1132 136 1018 q 140 1146 136 1139 q 193 1246 168 1196 q 201 1258 199 1257 q 213 1260 204 1260 q 240 1258 229 1260 q 249 1251 247 1258 l 246 1153 q 247 1145 246 1146 q 256 1144 249 1144 q 266 1144 264 1144 q 268 1078 268 1143 q 266 1013 268 1015 q 254 1010 264 1010 z "},"Í":{"ha":406,"x_min":25,"x_max":363,"o":"m 297 -3 l 103 -3 q 82 11 89 -3 q 42 108 54 79 q 28 138 32 128 q 25 153 25 147 q 28 165 25 160 q 48 213 40 196 q 60 240 56 231 q 65 256 64 250 q 65 265 65 261 l 67 485 l 65 703 q 65 712 65 707 q 60 726 64 717 q 49 753 57 736 q 29 800 42 771 q 25 814 25 807 q 30 833 25 821 q 46 871 35 846 q 81 956 58 900 q 90 967 85 964 q 104 971 94 971 l 297 971 q 308 970 306 971 q 313 966 311 969 q 318 956 315 963 q 342 883 333 910 q 358 834 354 849 q 363 814 363 819 q 362 808 363 811 q 360 803 361 806 q 360 803 360 803 q 340 761 347 776 q 328 738 332 746 q 324 726 325 731 q 324 718 324 722 l 322 483 l 324 249 q 329 231 324 239 q 340 208 335 218 q 358 168 353 181 q 363 150 363 156 l 361 140 l 317 11 q 313 1 315 4 q 308 -2 311 -1 q 297 -3 306 -3 m 149 1000 q 136 1003 139 1000 q 133 1015 133 1006 q 134 1131 133 1126 q 144 1135 135 1135 q 154 1135 153 1135 q 156 1143 156 1136 l 153 1242 q 156 1247 154 1244 q 190 1250 158 1250 q 200 1249 197 1250 q 261 1136 203 1247 q 265 1122 265 1129 q 265 1005 265 1008 q 254 1001 264 1001 l 149 1000 z "},"Î":{"ha":406,"x_min":25,"x_max":363,"o":"m 297 -3 l 103 -3 q 82 11 89 -3 q 42 108 54 79 q 28 138 32 128 q 25 153 25 147 q 28 165 25 160 q 48 213 40 196 q 60 240 56 231 q 65 256 64 250 q 65 265 65 261 l 67 485 l 65 703 q 65 712 65 707 q 60 726 64 717 q 49 753 57 736 q 29 800 42 771 q 25 814 25 807 q 30 833 25 821 q 46 871 35 846 q 81 956 58 900 q 90 967 85 964 q 104 971 94 971 l 297 971 q 308 970 306 971 q 313 966 311 969 q 318 956 315 963 q 342 883 333 910 q 358 834 354 849 q 363 814 363 819 q 362 808 363 811 q 360 803 361 806 q 360 803 360 803 q 340 761 347 776 q 328 738 332 746 q 324 726 325 731 q 324 718 324 722 l 322 483 l 324 249 q 329 231 324 239 q 340 208 335 218 q 358 168 353 181 q 363 150 363 156 l 361 140 l 317 11 q 313 1 315 4 q 308 -2 311 -1 q 297 -3 306 -3 m 143 1000 l 139 1001 l 110 1018 q 106 1024 106 1021 l 111 1039 q 179 1160 121 1054 q 196 1169 185 1169 q 231 1168 228 1169 q 274 1097 233 1167 q 314 1024 314 1028 q 304 1014 314 1019 q 276 1001 282 1003 q 214 1103 269 1001 l 208 1110 q 205 1106 206 1108 q 154 1013 204 1104 q 148 1004 150 1008 q 143 1000 146 1000 z "},"Ï":{"ha":406,"x_min":25,"x_max":363,"o":"m 297 -3 l 103 -3 q 82 11 89 -3 q 42 108 54 79 q 28 138 32 128 q 25 153 25 147 q 28 165 25 160 q 48 213 40 196 q 60 240 56 231 q 65 256 64 250 q 65 265 65 261 l 67 485 l 65 703 q 65 712 65 707 q 60 726 64 717 q 49 753 57 736 q 29 800 42 771 q 25 814 25 807 q 30 833 25 821 q 46 871 35 846 q 81 956 58 900 q 90 967 85 964 q 104 971 94 971 l 297 971 q 308 970 306 971 q 313 966 311 969 q 318 956 315 963 q 342 883 333 910 q 358 834 354 849 q 363 814 363 819 q 362 808 363 811 q 360 803 361 806 q 360 803 360 803 q 340 761 347 776 q 328 738 332 746 q 324 726 325 731 q 324 718 324 722 l 322 483 l 324 249 q 329 231 324 239 q 340 208 335 218 q 358 168 353 181 q 363 150 363 156 l 361 140 l 317 11 q 313 1 315 4 q 308 -2 311 -1 q 297 -3 306 -3 m 81 999 l 58 1000 q 48 1002 50 1000 q 44 1013 46 1004 l 42 1108 q 42 1122 42 1115 q 53 1131 43 1129 l 133 1132 l 172 1129 q 179 1124 176 1129 q 181 1022 181 1108 q 174 1003 179 1006 q 140 1000 169 1000 l 81 999 m 250 999 l 229 1000 q 219 1002 221 1000 q 215 1010 217 1004 q 211 1108 214 1017 q 213 1122 213 1115 q 222 1131 214 1129 l 304 1132 l 342 1129 q 349 1124 349 1129 q 350 1065 350 1118 q 345 1003 350 1007 q 311 1000 340 1000 l 250 999 z "},"Ð":{"ha":828,"x_min":18,"x_max":788,"o":"m 335 0 l 43 0 q 29 3 32 0 q 26 15 26 6 q 28 153 28 85 q 28 162 28 160 q 32 165 29 164 q 42 167 35 167 q 94 168 69 168 l 100 168 q 103 169 103 168 q 104 176 104 171 l 107 390 q 106 395 107 394 q 101 396 106 396 l 36 396 q 22 399 24 396 q 19 413 19 401 q 18 533 19 474 l 19 553 q 22 557 19 556 q 28 559 24 558 q 43 560 33 560 l 100 560 q 106 560 104 560 q 108 562 108 560 q 108 567 108 564 l 106 788 q 105 794 106 793 q 99 794 104 794 q 65 794 79 794 q 41 795 49 794 q 31 798 33 796 q 29 804 29 800 l 29 947 q 31 960 29 957 q 39 963 32 963 l 635 958 q 653 947 646 958 q 740 814 711 857 q 767 773 757 788 q 781 751 776 758 q 786 739 785 743 q 788 731 788 735 l 785 435 l 786 226 q 785 220 786 224 q 780 210 785 217 q 766 188 775 203 q 740 150 757 174 q 653 18 713 107 q 650 14 651 15 q 644 6 646 8 q 638 2 642 3 q 629 1 635 1 l 335 1 l 335 0 m 531 219 q 538 221 535 219 q 542 225 540 222 q 569 271 561 257 q 577 285 575 281 q 580 291 579 289 q 581 297 581 293 l 582 617 q 582 644 582 633 q 582 660 582 654 q 581 669 582 665 q 580 674 581 672 q 578 676 579 675 q 578 676 578 676 l 543 733 q 531 742 539 742 l 335 740 q 333 740 333 740 q 332 735 332 739 q 331 726 332 732 q 331 710 331 721 q 331 685 331 700 l 331 561 q 331 559 331 560 q 334 558 332 558 q 342 557 336 557 l 414 557 q 429 554 426 557 q 432 540 432 551 l 432 411 q 431 401 432 406 q 424 396 431 396 l 338 396 q 331 395 332 396 q 331 389 331 394 l 331 229 q 331 224 331 226 q 333 222 331 222 q 338 221 335 221 q 531 219 433 221 z "},"Ñ":{"ha":767,"x_min":31,"x_max":726,"o":"m 293 0 q 160 1 203 1 q 118 2 133 1 q 97 3 103 3 q 88 7 90 4 q 83 14 85 10 q 83 14 83 14 q 49 108 61 76 q 35 147 39 135 q 31 165 31 158 q 32 171 31 168 q 35 176 33 174 q 57 224 47 200 q 63 238 60 231 q 65 249 64 242 q 65 271 65 256 l 65 647 q 65 690 65 674 q 65 713 65 706 q 63 724 64 721 q 61 731 63 728 q 61 732 61 732 l 33 799 q 31 811 31 806 q 35 831 31 818 q 49 871 39 843 q 81 958 60 900 q 81 960 81 958 q 84 965 82 963 q 92 969 86 968 q 110 971 97 971 q 144 971 122 971 l 299 971 q 307 970 304 971 q 312 967 310 969 q 315 960 314 965 q 318 953 317 957 l 436 644 q 438 650 438 647 q 439 654 439 653 l 442 717 q 440 732 442 726 q 436 743 439 738 l 407 806 q 403 819 403 813 q 406 832 403 825 q 435 925 426 897 q 444 953 440 944 q 450 963 447 961 q 457 965 453 965 l 658 971 q 668 970 665 971 q 672 967 671 969 q 675 960 674 965 l 719 829 q 721 818 721 824 q 718 806 721 813 l 690 756 q 690 756 690 756 q 688 750 689 753 q 687 742 688 747 q 685 728 686 738 q 685 703 685 719 q 685 663 685 688 l 685 249 q 685 240 685 244 q 690 227 686 235 q 701 205 693 219 q 722 165 708 190 q 726 151 726 158 l 724 140 q 696 63 706 90 q 681 24 686 36 q 673 8 676 11 q 663 6 669 6 l 657 6 q 592 6 621 6 q 542 6 564 6 q 505 6 521 6 q 478 7 489 7 q 460 7 467 7 q 449 8 453 7 q 443 8 444 8 q 442 8 442 8 q 374 179 407 93 q 322 307 347 243 q 318 283 318 296 q 322 260 318 269 q 361 157 340 207 q 361 157 361 157 q 363 152 363 154 q 364 147 364 150 q 361 135 364 143 q 350 110 358 128 q 313 13 339 82 q 293 0 308 0 m 296 1004 l 267 1004 q 263 1007 264 1006 q 260 1044 261 1008 q 264 1078 261 1075 l 289 1114 q 301 1122 293 1122 l 331 1122 l 331 1124 l 358 1124 q 369 1118 365 1124 l 414 1068 q 428 1063 419 1063 l 444 1063 q 453 1068 451 1063 q 463 1100 463 1082 q 465 1130 463 1128 q 485 1132 467 1132 q 504 1131 503 1132 q 507 1092 506 1129 q 503 1062 507 1069 q 478 1021 500 1054 q 461 1013 472 1013 l 413 1013 q 394 1019 403 1013 l 351 1068 q 340 1074 347 1074 l 322 1072 l 319 1072 q 314 1069 315 1072 q 309 1061 313 1065 q 305 1053 306 1057 q 304 1011 304 1050 q 296 1004 304 1006 z "},"Ò":{"ha":776,"x_min":19,"x_max":742,"o":"m 519 -3 l 294 -3 q 243 -2 261 -3 q 217 -1 225 -1 q 204 1 208 -1 q 197 4 200 3 q 196 6 197 6 l 31 125 q 22 132 25 129 q 19 138 19 135 l 24 150 q 46 194 38 179 q 56 216 53 208 q 60 228 60 224 q 61 238 61 232 l 65 708 q 65 735 65 725 q 65 749 65 744 q 63 757 64 754 q 60 761 61 760 q 60 763 60 763 l 24 824 q 19 835 19 831 q 29 847 19 840 q 60 871 33 851 q 125 916 88 890 q 194 964 163 942 q 196 965 196 964 q 202 969 199 967 q 210 972 206 971 q 226 972 215 972 q 254 972 236 972 l 378 972 l 378 975 l 488 975 q 523 975 510 975 q 542 974 536 975 q 551 973 549 974 q 557 969 554 972 q 557 969 557 969 l 731 854 q 732 854 731 854 q 739 849 736 851 q 742 844 742 847 q 738 836 742 842 q 713 793 724 815 q 697 765 706 779 q 689 736 689 753 q 690 413 690 515 q 690 334 690 365 q 691 285 690 303 q 692 259 692 268 q 693 245 692 250 q 696 236 694 240 q 697 235 697 236 l 731 150 q 735 138 735 142 q 732 131 735 133 q 722 124 729 128 q 701 110 711 117 q 621 57 653 78 q 570 24 589 36 q 542 6 551 11 q 528 -1 532 0 q 519 -3 524 -3 m 406 246 q 419 247 417 244 q 421 261 422 250 l 425 483 q 425 501 425 493 q 425 569 425 549 q 425 599 425 589 q 426 622 425 610 q 426 652 426 632 q 428 708 426 672 q 404 732 428 732 l 351 732 q 318 697 317 731 l 324 271 q 349 246 324 247 l 406 246 m 417 1001 l 310 1003 q 299 1006 300 1003 q 299 1124 299 1010 q 303 1138 299 1131 q 356 1238 331 1188 q 364 1250 361 1249 q 375 1251 367 1251 q 403 1250 392 1251 q 411 1243 410 1250 l 408 1144 q 410 1137 408 1138 q 419 1136 411 1136 q 428 1135 426 1136 q 431 1069 431 1135 q 428 1004 431 1007 q 417 1001 426 1001 z "},"Ó":{"ha":776,"x_min":19,"x_max":742,"o":"m 519 -3 l 294 -3 q 243 -2 261 -3 q 217 -1 225 -1 q 204 1 208 -1 q 197 4 200 3 q 196 6 197 6 l 31 125 q 22 132 25 129 q 19 138 19 135 l 24 150 q 46 194 38 179 q 56 216 53 208 q 60 228 60 224 q 61 238 61 232 l 65 708 q 65 735 65 725 q 65 749 65 744 q 63 757 64 754 q 60 761 61 760 q 60 763 60 763 l 24 824 q 19 835 19 831 q 29 847 19 840 q 60 871 33 851 q 125 916 88 890 q 194 964 163 942 q 196 965 196 964 q 202 969 199 967 q 210 972 206 971 q 226 972 215 972 q 254 972 236 972 l 378 972 l 378 975 l 488 975 q 523 975 510 975 q 542 974 536 975 q 551 973 549 974 q 557 969 554 972 q 557 969 557 969 l 731 854 q 732 854 731 854 q 739 849 736 851 q 742 844 742 847 q 738 836 742 842 q 713 793 724 815 q 697 765 706 779 q 689 736 689 753 q 690 413 690 515 q 690 334 690 365 q 691 285 690 303 q 692 259 692 268 q 693 245 692 250 q 696 236 694 240 q 697 235 697 236 l 731 150 q 735 138 735 142 q 732 131 735 133 q 722 124 729 128 q 701 110 711 117 q 621 57 653 78 q 570 24 589 36 q 542 6 551 11 q 528 -1 532 0 q 519 -3 524 -3 m 406 246 q 419 247 417 244 q 421 261 422 250 l 425 483 q 425 501 425 493 q 425 569 425 549 q 425 599 425 589 q 426 622 425 610 q 426 652 426 632 q 428 708 426 672 q 404 732 428 732 l 351 732 q 318 697 317 731 l 324 271 q 349 246 324 247 l 406 246 m 318 1000 q 306 1003 308 1000 q 303 1015 303 1006 q 303 1131 303 1126 q 313 1135 304 1135 q 324 1135 322 1135 q 325 1143 325 1136 l 322 1242 q 326 1247 324 1244 q 360 1250 328 1250 q 369 1249 367 1250 q 431 1136 372 1247 q 435 1122 435 1129 q 434 1005 435 1008 q 424 1001 433 1001 l 318 1000 z "},"Ô":{"ha":776,"x_min":19,"x_max":742,"o":"m 519 -3 l 294 -3 q 243 -2 261 -3 q 217 -1 225 -1 q 204 1 208 -1 q 197 4 200 3 q 196 6 197 6 l 31 125 q 22 132 25 129 q 19 138 19 135 l 24 150 q 46 194 38 179 q 56 216 53 208 q 60 228 60 224 q 61 238 61 232 l 65 708 q 65 735 65 725 q 65 749 65 744 q 63 757 64 754 q 60 761 61 760 q 60 763 60 763 l 24 824 q 19 835 19 831 q 29 847 19 840 q 60 871 33 851 q 125 916 88 890 q 194 964 163 942 q 196 965 196 964 q 202 969 199 967 q 210 972 206 971 q 226 972 215 972 q 254 972 236 972 l 378 972 l 378 975 l 488 975 q 523 975 510 975 q 542 974 536 975 q 551 973 549 974 q 557 969 554 972 q 557 969 557 969 l 731 854 q 732 854 731 854 q 739 849 736 851 q 742 844 742 847 q 738 836 742 842 q 713 793 724 815 q 697 765 706 779 q 689 736 689 753 q 690 413 690 515 q 690 334 690 365 q 691 285 690 303 q 692 259 692 268 q 693 245 692 250 q 696 236 694 240 q 697 235 697 236 l 731 150 q 735 138 735 142 q 732 131 735 133 q 722 124 729 128 q 701 110 711 117 q 621 57 653 78 q 570 24 589 36 q 542 6 551 11 q 528 -1 532 0 q 519 -3 524 -3 m 406 246 q 419 247 417 244 q 421 261 422 250 l 425 483 q 425 501 425 493 q 425 569 425 549 q 425 599 425 589 q 426 622 425 610 q 426 652 426 632 q 428 708 426 672 q 404 732 428 732 l 351 732 q 318 697 317 731 l 324 271 q 349 246 324 247 l 406 246 m 314 997 l 310 999 l 281 1015 q 276 1021 276 1018 l 282 1036 q 350 1157 292 1051 q 367 1167 356 1167 q 401 1165 399 1167 q 444 1094 404 1164 q 485 1021 485 1025 q 475 1011 485 1017 q 447 999 453 1000 q 385 1100 440 999 l 379 1107 q 376 1103 376 1106 q 325 1010 375 1101 q 319 1001 321 1006 q 314 997 317 997 z "},"Õ":{"ha":776,"x_min":19,"x_max":742,"o":"m 519 -3 l 294 -3 q 243 -2 261 -3 q 217 -1 225 -1 q 204 1 208 -1 q 197 4 200 3 q 196 6 197 6 l 31 125 q 22 132 25 129 q 19 138 19 135 l 24 150 q 46 194 38 179 q 56 216 53 208 q 60 228 60 224 q 61 238 61 232 l 65 708 q 65 735 65 725 q 65 749 65 744 q 63 757 64 754 q 60 761 61 760 q 60 763 60 763 l 24 824 q 19 835 19 831 q 29 847 19 840 q 60 871 33 851 q 125 916 88 890 q 194 964 163 942 q 196 965 196 964 q 202 969 199 967 q 210 972 206 971 q 226 972 215 972 q 254 972 236 972 l 378 972 l 378 975 l 488 975 q 523 975 510 975 q 542 974 536 975 q 551 973 549 974 q 557 969 554 972 q 557 969 557 969 l 731 854 q 732 854 731 854 q 739 849 736 851 q 742 844 742 847 q 738 836 742 842 q 713 793 724 815 q 697 765 706 779 q 689 736 689 753 q 690 413 690 515 q 690 334 690 365 q 691 285 690 303 q 692 259 692 268 q 693 245 692 250 q 696 236 694 240 q 697 235 697 236 l 731 150 q 735 138 735 142 q 732 131 735 133 q 722 124 729 128 q 701 110 711 117 q 621 57 653 78 q 570 24 589 36 q 542 6 551 11 q 528 -1 532 0 q 519 -3 524 -3 m 406 246 q 419 247 417 244 q 421 261 422 250 l 425 483 q 425 501 425 493 q 425 569 425 549 q 425 599 425 589 q 426 622 425 610 q 426 652 426 632 q 428 708 426 672 q 404 732 428 732 l 351 732 q 318 697 317 731 l 324 271 q 349 246 324 247 l 406 246 m 293 1004 l 264 1004 q 260 1007 261 1006 q 257 1044 258 1008 q 261 1078 258 1075 l 286 1114 q 299 1122 290 1122 l 328 1122 l 328 1124 l 356 1124 q 367 1118 363 1124 l 411 1068 q 425 1063 417 1063 l 442 1063 q 450 1068 449 1063 q 460 1100 460 1082 q 462 1130 460 1128 q 482 1132 464 1132 q 501 1131 500 1132 q 504 1092 503 1129 q 501 1062 504 1069 q 475 1021 497 1054 q 458 1013 469 1013 l 410 1013 q 392 1019 400 1013 l 349 1068 q 338 1074 344 1074 l 319 1072 l 317 1072 q 311 1069 313 1072 q 306 1061 310 1065 q 302 1053 303 1057 q 301 1011 301 1050 q 293 1004 301 1006 z "},"Ö":{"ha":776,"x_min":19,"x_max":742,"o":"m 519 -3 l 294 -3 q 243 -2 261 -3 q 217 -1 225 -1 q 204 1 208 -1 q 197 4 200 3 q 196 6 197 6 l 31 125 q 22 132 25 129 q 19 138 19 135 l 24 150 q 46 194 38 179 q 56 216 53 208 q 60 228 60 224 q 61 238 61 232 l 65 708 q 65 735 65 725 q 65 749 65 744 q 63 757 64 754 q 60 761 61 760 q 60 763 60 763 l 24 824 q 19 835 19 831 q 29 847 19 840 q 60 871 33 851 q 125 916 88 890 q 194 964 163 942 q 196 965 196 964 q 202 969 199 967 q 210 972 206 971 q 226 972 215 972 q 254 972 236 972 l 378 972 l 378 975 l 488 975 q 523 975 510 975 q 542 974 536 975 q 551 973 549 974 q 557 969 554 972 q 557 969 557 969 l 731 854 q 732 854 731 854 q 739 849 736 851 q 742 844 742 847 q 738 836 742 842 q 713 793 724 815 q 697 765 706 779 q 689 736 689 753 q 690 413 690 515 q 690 334 690 365 q 691 285 690 303 q 692 259 692 268 q 693 245 692 250 q 696 236 694 240 q 697 235 697 236 l 731 150 q 735 138 735 142 q 732 131 735 133 q 722 124 729 128 q 701 110 711 117 q 621 57 653 78 q 570 24 589 36 q 542 6 551 11 q 528 -1 532 0 q 519 -3 524 -3 m 406 246 q 419 247 417 244 q 421 261 422 250 l 425 483 q 425 501 425 493 q 425 569 425 549 q 425 599 425 589 q 426 622 425 610 q 426 652 426 632 q 428 708 426 672 q 404 732 428 732 l 351 732 q 318 697 317 731 l 324 271 q 349 246 324 247 l 406 246 m 274 1007 l 251 1008 q 241 1010 243 1008 q 238 1021 239 1013 l 235 1117 q 235 1131 235 1124 q 246 1139 236 1138 l 326 1140 l 365 1138 q 372 1132 369 1138 q 374 1031 374 1117 q 367 1011 372 1014 q 333 1008 363 1008 l 274 1007 m 443 1007 l 422 1008 q 412 1010 414 1008 q 408 1019 410 1013 q 404 1117 407 1025 q 406 1131 406 1124 q 415 1139 407 1138 l 497 1140 l 535 1138 q 542 1132 542 1138 q 543 1074 543 1126 q 538 1012 543 1015 q 504 1008 533 1008 l 443 1007 z "},"×":{"ha":389,"x_min":28,"x_max":361,"o":"m 290 258 q 275 272 286 258 q 193 385 196 383 l 113 272 q 97 260 103 260 q 83 264 93 260 q 32 288 36 285 q 28 294 28 290 q 33 303 31 300 q 85 376 35 306 q 137 447 136 447 q 138 449 138 447 q 142 456 142 454 l 139 461 q 28 618 28 615 q 40 626 28 621 q 99 651 88 651 q 108 644 103 651 l 193 526 q 199 533 197 529 q 275 638 236 586 l 278 640 q 292 651 282 651 q 326 638 294 651 q 360 619 360 626 q 340 588 360 615 q 250 463 285 513 q 247 459 249 461 q 244 454 244 457 l 249 449 q 361 292 361 297 q 349 283 361 286 q 313 267 331 274 q 303 263 307 265 q 290 258 299 260 z "},"Ø":{"ha":781,"x_min":18,"x_max":740,"o":"m 404 246 q 418 247 415 244 q 419 261 421 250 l 424 483 q 424 501 424 493 q 424 569 424 549 q 424 599 424 589 q 425 622 424 610 q 425 652 425 632 q 426 708 425 672 q 403 732 426 732 l 350 732 q 317 697 315 731 l 322 271 q 347 246 322 247 l 404 246 m 619 926 l 729 854 l 731 854 q 738 849 735 851 q 740 844 740 847 q 736 836 740 842 q 711 793 722 815 q 696 765 704 779 q 688 736 688 753 q 689 413 689 515 q 689 334 689 365 q 690 285 689 303 q 690 259 690 268 q 692 245 690 250 q 694 236 693 240 q 696 235 696 236 l 729 150 q 733 138 733 142 q 731 131 733 133 q 721 124 728 128 q 700 110 710 117 q 619 57 651 78 q 569 24 588 36 q 540 6 550 11 q 526 -1 531 0 q 518 -3 522 -3 l 253 -3 q 244 -8 250 -7 q 226 -10 239 -10 l 82 -10 q 63 -7 67 -10 q 60 7 60 -4 l 60 18 q 72 63 60 42 l 82 86 l 29 125 q 21 132 24 129 q 18 138 18 135 l 22 150 q 44 194 36 179 q 55 216 51 208 q 59 228 58 224 q 60 238 60 232 l 64 708 q 64 735 64 725 q 63 749 64 744 q 61 757 63 754 q 58 761 60 760 l 58 763 l 22 824 q 18 835 18 831 q 28 847 18 840 q 59 871 32 851 q 124 916 86 890 q 193 964 161 942 q 194 965 194 964 q 201 969 197 967 q 209 972 204 971 q 224 972 214 972 q 253 972 235 972 l 376 972 l 376 975 l 464 975 l 479 1010 q 486 1024 483 1021 q 497 1026 489 1026 l 622 1022 q 637 1021 633 1022 q 640 1014 640 1019 l 640 1007 q 625 939 640 971 l 619 926 z "},"Ù":{"ha":776,"x_min":19,"x_max":739,"o":"m 263 0 q 233 1 243 0 q 216 2 222 1 q 207 4 210 3 q 201 7 204 6 q 200 8 201 8 q 26 136 114 74 q 21 140 22 139 q 19 144 19 142 l 22 154 q 46 206 38 189 q 56 227 53 219 q 60 240 58 235 q 61 253 61 246 l 58 715 q 57 731 58 724 q 50 753 56 739 q 33 796 44 768 l 31 806 q 35 826 31 811 q 53 879 40 842 q 79 956 63 908 q 83 964 81 961 q 88 967 85 967 q 96 968 90 968 l 290 971 q 304 969 300 971 q 310 963 308 968 q 317 949 313 958 q 349 868 338 896 q 362 835 358 846 q 365 818 365 824 q 365 813 365 815 q 363 807 364 810 q 326 732 343 771 q 326 731 326 732 q 323 724 324 728 q 322 715 322 721 q 321 693 321 708 q 322 615 321 669 q 326 285 324 526 q 330 269 326 276 q 339 257 333 263 q 344 249 342 253 q 346 248 344 249 q 349 247 347 247 q 353 246 350 246 q 363 246 357 246 q 378 246 369 246 q 401 246 388 246 q 407 247 404 246 q 411 249 410 247 q 417 257 414 253 q 426 271 422 264 q 431 289 431 278 q 432 415 431 331 q 434 583 433 500 q 436 710 435 665 l 436 715 q 433 731 436 722 q 422 759 431 740 q 394 813 413 778 q 394 814 394 813 q 392 817 393 815 q 392 822 392 819 q 396 839 392 828 q 411 878 400 850 q 444 963 422 907 q 444 964 444 963 q 449 969 446 967 q 459 973 451 972 q 485 974 467 974 l 661 971 q 671 970 668 971 q 675 967 674 969 q 678 960 676 965 q 701 889 692 917 q 721 833 715 850 q 726 808 726 817 q 725 803 726 806 q 722 797 724 800 q 706 753 711 776 q 699 691 700 731 q 697 579 697 651 l 697 256 q 701 232 697 243 q 715 201 706 221 q 735 158 722 185 l 739 149 q 736 144 739 146 q 728 138 733 142 q 600 43 639 72 q 574 24 585 32 q 558 13 564 17 q 548 6 551 8 q 543 3 544 4 q 539 3 542 3 l 263 0 m 428 1004 l 321 1006 q 310 1009 311 1006 q 310 1126 310 1013 q 314 1140 310 1133 q 367 1240 342 1190 q 375 1253 372 1251 q 386 1254 378 1254 q 414 1253 403 1254 q 422 1246 421 1253 l 419 1147 q 421 1140 419 1140 q 430 1139 422 1139 q 440 1138 438 1139 q 442 1072 442 1138 q 440 1007 442 1010 q 428 1004 438 1004 z "},"Ú":{"ha":776,"x_min":19,"x_max":739,"o":"m 263 0 q 233 1 243 0 q 216 2 222 1 q 207 4 210 3 q 201 7 204 6 q 200 8 201 8 q 26 136 114 74 q 21 140 22 139 q 19 144 19 142 l 22 154 q 46 206 38 189 q 56 227 53 219 q 60 240 58 235 q 61 253 61 246 l 58 715 q 57 731 58 724 q 50 753 56 739 q 33 796 44 768 l 31 806 q 35 826 31 811 q 53 879 40 842 q 79 956 63 908 q 83 964 81 961 q 88 967 85 967 q 96 968 90 968 l 290 971 q 304 969 300 971 q 310 963 308 968 q 317 949 313 958 q 349 868 338 896 q 362 835 358 846 q 365 818 365 824 q 365 813 365 815 q 363 807 364 810 q 326 732 343 771 q 326 731 326 732 q 323 724 324 728 q 322 715 322 721 q 321 693 321 708 q 322 615 321 669 q 326 285 324 526 q 330 269 326 276 q 339 257 333 263 q 344 249 342 253 q 346 248 344 249 q 349 247 347 247 q 353 246 350 246 q 363 246 357 246 q 378 246 369 246 q 401 246 388 246 q 407 247 404 246 q 411 249 410 247 q 417 257 414 253 q 426 271 422 264 q 431 289 431 278 q 432 415 431 331 q 434 583 433 500 q 436 710 435 665 l 436 715 q 433 731 436 722 q 422 759 431 740 q 394 813 413 778 q 394 814 394 813 q 392 817 393 815 q 392 822 392 819 q 396 839 392 828 q 411 878 400 850 q 444 963 422 907 q 444 964 444 963 q 449 969 446 967 q 459 973 451 972 q 485 974 467 974 l 661 971 q 671 970 668 971 q 675 967 674 969 q 678 960 676 965 q 701 889 692 917 q 721 833 715 850 q 726 808 726 817 q 725 803 726 806 q 722 797 724 800 q 706 753 711 776 q 699 691 700 731 q 697 579 697 651 l 697 256 q 701 232 697 243 q 715 201 706 221 q 735 158 722 185 l 739 149 q 736 144 739 146 q 728 138 733 142 q 600 43 639 72 q 574 24 585 32 q 558 13 564 17 q 548 6 551 8 q 543 3 544 4 q 539 3 542 3 l 263 0 m 336 1000 q 324 1003 326 1000 q 321 1015 321 1006 q 322 1131 321 1126 q 331 1135 322 1135 q 342 1135 340 1135 q 343 1143 343 1136 l 340 1242 q 344 1247 342 1244 q 378 1250 346 1250 q 388 1249 385 1250 q 449 1136 390 1247 q 453 1122 453 1129 q 452 1005 453 1008 q 442 1001 451 1001 l 336 1000 z "},"Û":{"ha":776,"x_min":19,"x_max":739,"o":"m 263 0 q 233 1 243 0 q 216 2 222 1 q 207 4 210 3 q 201 7 204 6 q 200 8 201 8 q 26 136 114 74 q 21 140 22 139 q 19 144 19 142 l 22 154 q 46 206 38 189 q 56 227 53 219 q 60 240 58 235 q 61 253 61 246 l 58 715 q 57 731 58 724 q 50 753 56 739 q 33 796 44 768 l 31 806 q 35 826 31 811 q 53 879 40 842 q 79 956 63 908 q 83 964 81 961 q 88 967 85 967 q 96 968 90 968 l 290 971 q 304 969 300 971 q 310 963 308 968 q 317 949 313 958 q 349 868 338 896 q 362 835 358 846 q 365 818 365 824 q 365 813 365 815 q 363 807 364 810 q 326 732 343 771 q 326 731 326 732 q 323 724 324 728 q 322 715 322 721 q 321 693 321 708 q 322 615 321 669 q 326 285 324 526 q 330 269 326 276 q 339 257 333 263 q 344 249 342 253 q 346 248 344 249 q 349 247 347 247 q 353 246 350 246 q 363 246 357 246 q 378 246 369 246 q 401 246 388 246 q 407 247 404 246 q 411 249 410 247 q 417 257 414 253 q 426 271 422 264 q 431 289 431 278 q 432 415 431 331 q 434 583 433 500 q 436 710 435 665 l 436 715 q 433 731 436 722 q 422 759 431 740 q 394 813 413 778 q 394 814 394 813 q 392 817 393 815 q 392 822 392 819 q 396 839 392 828 q 411 878 400 850 q 444 963 422 907 q 444 964 444 963 q 449 969 446 967 q 459 973 451 972 q 485 974 467 974 l 661 971 q 671 970 668 971 q 675 967 674 969 q 678 960 676 965 q 701 889 692 917 q 721 833 715 850 q 726 808 726 817 q 725 803 726 806 q 722 797 724 800 q 706 753 711 776 q 699 691 700 731 q 697 579 697 651 l 697 256 q 701 232 697 243 q 715 201 706 221 q 735 158 722 185 l 739 149 q 736 144 739 146 q 728 138 733 142 q 600 43 639 72 q 574 24 585 32 q 558 13 564 17 q 548 6 551 8 q 543 3 544 4 q 539 3 542 3 l 263 0 m 310 1000 l 306 1001 l 276 1018 q 272 1024 272 1021 l 278 1039 q 346 1160 288 1054 q 363 1169 351 1169 q 397 1168 394 1169 q 440 1097 400 1167 q 481 1024 481 1028 q 471 1014 481 1019 q 443 1001 449 1003 q 381 1103 436 1001 l 375 1110 q 372 1106 372 1108 q 321 1013 371 1104 q 315 1004 317 1008 q 310 1000 313 1000 z "},"Ü":{"ha":776,"x_min":19,"x_max":739,"o":"m 263 0 q 233 1 243 0 q 216 2 222 1 q 207 4 210 3 q 201 7 204 6 q 200 8 201 8 q 26 136 114 74 q 21 140 22 139 q 19 144 19 142 l 22 154 q 46 206 38 189 q 56 227 53 219 q 60 240 58 235 q 61 253 61 246 l 58 715 q 57 731 58 724 q 50 753 56 739 q 33 796 44 768 l 31 806 q 35 826 31 811 q 53 879 40 842 q 79 956 63 908 q 83 964 81 961 q 88 967 85 967 q 96 968 90 968 l 290 971 q 304 969 300 971 q 310 963 308 968 q 317 949 313 958 q 349 868 338 896 q 362 835 358 846 q 365 818 365 824 q 365 813 365 815 q 363 807 364 810 q 326 732 343 771 q 326 731 326 732 q 323 724 324 728 q 322 715 322 721 q 321 693 321 708 q 322 615 321 669 q 326 285 324 526 q 330 269 326 276 q 339 257 333 263 q 344 249 342 253 q 346 248 344 249 q 349 247 347 247 q 353 246 350 246 q 363 246 357 246 q 378 246 369 246 q 401 246 388 246 q 407 247 404 246 q 411 249 410 247 q 417 257 414 253 q 426 271 422 264 q 431 289 431 278 q 432 415 431 331 q 434 583 433 500 q 436 710 435 665 l 436 715 q 433 731 436 722 q 422 759 431 740 q 394 813 413 778 q 394 814 394 813 q 392 817 393 815 q 392 822 392 819 q 396 839 392 828 q 411 878 400 850 q 444 963 422 907 q 444 964 444 963 q 449 969 446 967 q 459 973 451 972 q 485 974 467 974 l 661 971 q 671 970 668 971 q 675 967 674 969 q 678 960 676 965 q 701 889 692 917 q 721 833 715 850 q 726 808 726 817 q 725 803 726 806 q 722 797 724 800 q 706 753 711 776 q 699 691 700 731 q 697 579 697 651 l 697 256 q 701 232 697 243 q 715 201 706 221 q 735 158 722 185 l 739 149 q 736 144 739 146 q 728 138 733 142 q 600 43 639 72 q 574 24 585 32 q 558 13 564 17 q 548 6 551 8 q 543 3 544 4 q 539 3 542 3 l 263 0 m 272 1004 l 250 1006 q 240 1008 242 1006 q 236 1018 238 1010 l 233 1114 q 234 1128 233 1121 q 244 1136 235 1135 l 325 1138 l 364 1135 q 371 1129 368 1135 q 372 1028 372 1114 q 366 1008 371 1011 q 332 1006 361 1006 l 272 1004 m 442 1004 l 421 1006 q 410 1008 413 1006 q 407 1016 408 1010 q 403 1114 406 1022 q 405 1128 404 1121 q 414 1136 406 1135 l 496 1138 l 533 1135 q 541 1129 540 1135 q 542 1071 542 1124 q 537 1009 542 1013 q 503 1006 532 1006 l 442 1004 z "},"Ÿ":{"ha":661,"x_min":-1,"x_max":650,"o":"m 222 0 q 211 1 215 0 q 206 3 207 1 q 204 7 206 4 q 204 7 204 7 q 172 90 192 50 q 160 121 165 106 q 151 142 156 133 q 146 160 146 153 q 150 172 146 165 q 172 216 164 200 q 183 240 179 232 q 187 253 186 249 q 188 261 188 257 l 190 353 q 190 367 190 363 q 186 378 189 372 q 114 554 142 486 q 71 658 86 621 q 47 715 56 696 q 31 746 38 735 q 17 771 25 757 q 6 789 13 778 q -1 811 -1 800 l 0 824 q 22 922 17 892 q 29 951 26 942 q 35 962 32 960 q 46 964 39 964 l 229 967 q 242 965 238 967 q 251 951 246 963 q 268 918 257 940 q 304 843 281 892 q 310 824 310 833 q 308 813 310 818 l 300 775 l 299 767 q 303 753 299 760 q 310 739 306 746 q 324 711 314 725 q 339 742 333 731 q 347 758 344 753 q 349 765 349 763 l 336 818 l 336 824 q 339 839 336 832 q 353 867 344 850 q 371 903 363 885 q 385 933 379 921 q 392 946 392 946 q 399 960 396 956 q 406 965 401 964 q 417 967 410 967 l 597 964 q 612 962 608 964 q 618 949 615 960 q 649 814 632 881 l 650 808 q 647 799 650 806 q 638 782 644 793 q 618 750 631 771 q 607 732 614 742 q 607 731 607 732 q 604 726 606 729 q 600 718 603 724 q 592 701 597 713 q 579 669 588 689 q 558 618 571 650 q 460 378 529 546 q 456 368 457 372 q 456 354 456 364 l 458 258 q 460 251 458 256 q 465 238 461 246 q 476 215 468 231 q 497 172 483 199 q 499 167 499 169 q 500 161 500 165 q 497 147 500 157 q 485 115 493 138 q 446 19 472 86 q 426 7 442 7 q 269 1 317 4 q 222 0 238 0 m 240 999 l 218 1000 q 208 1002 210 1000 q 204 1013 206 1004 l 201 1108 q 202 1122 201 1115 q 213 1131 203 1129 l 293 1132 l 332 1129 q 339 1124 336 1129 q 340 1022 340 1108 q 334 1003 339 1006 q 300 1000 329 1000 l 240 999 m 410 999 l 389 1000 q 378 1002 381 1000 q 375 1010 376 1004 q 371 1108 374 1017 q 373 1122 372 1115 q 382 1131 374 1129 l 464 1132 l 501 1129 q 509 1124 508 1129 q 510 1065 510 1118 q 505 1003 510 1007 q 471 1000 500 1000 l 410 999 z "},"Ý":{"ha":661,"x_min":-1,"x_max":650,"o":"m 222 0 q 211 1 215 0 q 206 3 207 1 q 204 7 206 4 q 204 7 204 7 q 172 90 192 50 q 160 121 165 106 q 151 142 156 133 q 146 160 146 153 q 150 172 146 165 q 172 216 164 200 q 183 240 179 232 q 187 253 186 249 q 188 261 188 257 l 190 353 q 190 367 190 363 q 186 378 189 372 q 114 554 142 486 q 71 658 86 621 q 47 715 56 696 q 31 746 38 735 q 17 771 25 757 q 6 789 13 778 q -1 811 -1 800 l 0 824 q 22 922 17 892 q 29 951 26 942 q 35 962 32 960 q 46 964 39 964 l 229 967 q 242 965 238 967 q 251 951 246 963 q 268 918 257 940 q 304 843 281 892 q 310 824 310 833 q 308 813 310 818 l 300 775 l 299 767 q 303 753 299 760 q 310 739 306 746 q 324 711 314 725 q 339 742 333 731 q 347 758 344 753 q 349 765 349 763 l 336 818 l 336 824 q 339 839 336 832 q 353 867 344 850 q 371 903 363 885 q 385 933 379 921 q 392 946 392 946 q 399 960 396 956 q 406 965 401 964 q 417 967 410 967 l 597 964 q 612 962 608 964 q 618 949 615 960 q 649 814 632 881 l 650 808 q 647 799 650 806 q 638 782 644 793 q 618 750 631 771 q 607 732 614 742 q 607 731 607 732 q 604 726 606 729 q 600 718 603 724 q 592 701 597 713 q 579 669 588 689 q 558 618 571 650 q 460 378 529 546 q 456 368 457 372 q 456 354 456 364 l 458 258 q 460 251 458 256 q 465 238 461 246 q 476 215 468 231 q 497 172 483 199 q 499 167 499 169 q 500 161 500 165 q 497 147 500 157 q 485 115 493 138 q 446 19 472 86 q 426 7 442 7 q 269 1 317 4 q 222 0 238 0 m 292 1000 q 279 1003 282 1000 q 276 1015 276 1006 q 277 1131 276 1126 q 287 1135 278 1135 q 297 1135 296 1135 q 299 1143 299 1136 l 296 1242 q 299 1247 297 1244 q 333 1250 301 1250 q 343 1249 340 1250 q 404 1136 346 1247 q 408 1122 408 1129 q 408 1005 408 1008 q 397 1001 407 1001 l 292 1000 z "},"Þ":{"ha":549,"x_min":31,"x_max":549,"o":"m 213 7 l 47 10 q 33 12 36 10 q 31 18 31 14 l 31 26 q 32 114 31 71 l 32 824 q 32 824 32 824 q 34 835 32 833 q 46 838 36 838 l 219 840 q 228 837 226 839 q 231 828 231 835 l 232 679 q 233 672 232 674 q 235 669 233 669 q 240 668 236 668 l 358 668 q 370 667 365 668 q 385 659 375 665 q 414 639 394 653 q 532 557 447 615 q 549 528 549 547 q 548 467 549 503 q 547 397 547 432 q 547 338 547 363 q 547 314 547 314 l 547 311 q 544 300 547 304 q 536 292 540 296 q 418 210 451 235 q 385 188 396 194 q 370 179 375 181 q 358 178 365 178 q 325 178 344 178 q 285 179 306 179 q 252 179 265 179 q 239 179 239 179 q 234 179 236 179 q 231 177 232 179 q 231 172 231 175 q 231 119 231 136 q 231 87 231 101 q 229 46 231 72 q 229 24 229 36 q 226 10 229 13 q 213 7 224 7 m 289 339 l 289 340 l 325 340 q 344 342 339 340 q 363 353 350 344 q 390 369 371 358 q 392 373 392 371 q 393 378 393 375 q 393 446 393 426 q 394 463 394 456 q 394 471 394 468 q 392 474 393 474 q 390 476 392 475 q 390 476 390 476 q 371 489 379 483 q 353 499 360 496 q 344 505 347 503 q 338 507 340 507 l 240 507 q 235 506 236 507 q 235 499 235 504 l 233 411 l 235 347 q 235 342 235 343 q 237 340 235 340 q 242 339 239 339 l 289 339 z "},"ß":{"ha":725,"x_min":40,"x_max":692,"o":"m 88 0 q 62 0 71 0 q 49 1 53 0 q 44 4 44 3 q 43 8 43 6 l 42 19 l 40 782 q 53 804 40 797 q 206 922 165 890 q 233 945 224 938 q 249 956 243 953 q 258 960 254 960 q 267 961 261 961 l 453 961 q 467 960 463 961 q 474 958 472 960 q 479 956 476 957 q 481 954 479 954 l 676 804 q 686 782 686 797 q 686 746 686 778 q 687 674 686 714 q 688 602 688 633 q 689 565 689 571 q 688 553 689 558 q 681 542 686 547 q 619 481 649 513 l 614 476 l 681 401 q 688 389 686 394 q 690 376 690 383 l 690 360 q 692 242 690 301 l 692 239 q 691 231 692 235 q 687 222 690 228 q 676 206 683 217 q 654 178 668 196 q 575 71 629 144 q 551 58 567 58 l 376 58 l 344 60 q 339 61 340 60 q 336 67 338 63 q 335 85 335 72 q 335 119 335 97 l 335 200 q 337 215 335 213 q 351 217 339 217 l 469 215 q 483 221 478 215 q 507 253 500 243 q 516 264 513 260 q 520 271 519 268 q 521 278 521 274 l 521 308 q 520 318 521 315 q 515 324 519 321 l 376 449 q 374 453 375 451 q 372 455 372 454 q 371 457 371 456 l 376 464 q 439 539 406 496 q 490 604 458 565 q 490 604 490 604 q 492 607 492 606 q 494 611 493 608 q 494 619 494 614 q 494 635 494 625 l 494 701 q 493 708 494 706 q 489 713 492 711 q 440 749 456 738 q 427 759 432 756 q 419 764 422 763 q 415 766 417 765 q 413 767 414 767 l 338 767 q 322 767 328 767 q 313 766 315 767 q 308 765 310 765 q 306 763 307 764 q 306 763 306 763 q 258 726 274 738 q 244 716 249 719 q 237 710 239 713 q 234 706 235 707 q 233 701 233 704 l 244 19 q 244 7 244 11 q 241 2 243 3 q 236 1 239 1 l 88 0 z "},"à":{"ha":694,"x_min":1,"x_max":689,"o":"m 458 0 q 448 3 451 0 q 442 11 444 6 q 423 60 433 33 q 406 106 413 86 q 396 129 399 124 q 389 147 392 142 q 385 156 386 153 q 385 164 385 160 q 385 171 385 167 q 389 183 386 175 q 392 193 390 188 l 393 201 q 391 205 393 204 q 383 206 389 206 l 346 207 l 307 206 q 307 206 307 206 q 299 204 301 206 q 297 201 297 203 l 299 194 q 301 188 300 190 q 306 167 306 179 q 297 135 306 154 q 254 28 263 54 q 247 9 250 15 q 242 1 244 3 q 233 0 239 0 l 39 3 q 29 4 32 3 q 25 8 26 6 q 24 18 24 11 q 13 92 17 63 q 4 143 7 126 q 1 167 1 160 q 3 173 1 171 q 6 178 4 175 q 6 178 6 178 q 58 322 47 244 q 133 675 114 590 q 146 733 142 714 q 150 763 150 753 q 149 771 150 767 q 146 779 147 775 q 139 796 142 788 q 132 813 136 804 q 129 824 129 818 q 133 838 129 831 q 176 910 161 883 q 194 942 188 931 q 206 958 201 953 q 214 964 211 963 q 222 965 217 965 l 471 965 q 481 963 476 965 q 490 950 485 960 q 507 922 496 940 q 556 839 522 894 q 561 824 561 831 q 558 811 561 818 l 543 776 q 543 775 543 776 q 541 770 542 772 q 540 764 540 768 q 546 726 540 754 q 567 629 551 699 q 592 511 576 583 q 626 349 614 404 q 638 288 633 310 q 646 256 643 267 q 651 241 649 246 q 656 232 653 236 q 663 218 660 225 q 679 188 674 199 q 687 173 685 178 q 689 165 689 168 l 689 161 q 686 144 688 153 q 667 18 678 82 q 665 8 667 11 q 660 4 664 6 q 650 3 657 3 q 458 0 554 3 m 401 397 q 408 399 407 397 q 410 404 410 401 l 408 414 l 347 689 l 343 689 l 281 403 q 285 399 281 400 q 304 397 290 397 l 401 397 m 413 1003 l 306 1004 q 295 1008 296 1004 q 294 1125 294 1011 q 299 1139 294 1132 q 351 1239 326 1189 q 360 1251 357 1250 q 371 1253 363 1253 q 399 1251 388 1253 q 407 1244 406 1251 l 404 1146 q 406 1138 404 1139 q 415 1138 407 1138 q 424 1137 422 1138 q 426 1071 426 1136 q 424 1006 426 1008 q 413 1003 422 1003 z "},"á":{"ha":694,"x_min":1,"x_max":689,"o":"m 458 0 q 448 3 451 0 q 442 11 444 6 q 423 60 433 33 q 406 106 413 86 q 396 129 399 124 q 389 147 392 142 q 385 156 386 153 q 385 164 385 160 q 385 171 385 167 q 389 183 386 175 q 392 193 390 188 l 393 201 q 391 205 393 204 q 383 206 389 206 l 346 207 l 307 206 q 307 206 307 206 q 299 204 301 206 q 297 201 297 203 l 299 194 q 301 188 300 190 q 306 167 306 179 q 297 135 306 154 q 254 28 263 54 q 247 9 250 15 q 242 1 244 3 q 233 0 239 0 l 39 3 q 29 4 32 3 q 25 8 26 6 q 24 18 24 11 q 13 92 17 63 q 4 143 7 126 q 1 167 1 160 q 3 173 1 171 q 6 178 4 175 q 6 178 6 178 q 58 322 47 244 q 133 675 114 590 q 146 733 142 714 q 150 763 150 753 q 149 771 150 767 q 146 779 147 775 q 139 796 142 788 q 132 813 136 804 q 129 824 129 818 q 133 838 129 831 q 176 910 161 883 q 194 942 188 931 q 206 958 201 953 q 214 964 211 963 q 222 965 217 965 l 471 965 q 481 963 476 965 q 490 950 485 960 q 507 922 496 940 q 556 839 522 894 q 561 824 561 831 q 558 811 561 818 l 543 776 q 543 775 543 776 q 541 770 542 772 q 540 764 540 768 q 546 726 540 754 q 567 629 551 699 q 592 511 576 583 q 626 349 614 404 q 638 288 633 310 q 646 256 643 267 q 651 241 649 246 q 656 232 653 236 q 663 218 660 225 q 679 188 674 199 q 687 173 685 178 q 689 165 689 168 l 689 161 q 686 144 688 153 q 667 18 678 82 q 665 8 667 11 q 660 4 664 6 q 650 3 657 3 q 458 0 554 3 m 401 397 q 408 399 407 397 q 410 404 410 401 l 408 414 l 347 689 l 343 689 l 281 403 q 285 399 281 400 q 304 397 290 397 l 401 397 m 318 997 q 306 1000 308 997 q 303 1013 303 1003 q 303 1128 303 1124 q 313 1132 304 1132 q 324 1133 322 1132 q 325 1140 325 1133 l 322 1239 q 326 1244 324 1242 q 360 1247 328 1247 q 369 1246 367 1247 q 431 1133 372 1244 q 435 1119 435 1126 q 434 1002 435 1006 q 424 999 433 999 l 318 997 z "},"â":{"ha":694,"x_min":1,"x_max":689,"o":"m 458 0 q 448 3 451 0 q 442 11 444 6 q 423 60 433 33 q 406 106 413 86 q 396 129 399 124 q 389 147 392 142 q 385 156 386 153 q 385 164 385 160 q 385 171 385 167 q 389 183 386 175 q 392 193 390 188 l 393 201 q 391 205 393 204 q 383 206 389 206 l 346 207 l 307 206 q 307 206 307 206 q 299 204 301 206 q 297 201 297 203 l 299 194 q 301 188 300 190 q 306 167 306 179 q 297 135 306 154 q 254 28 263 54 q 247 9 250 15 q 242 1 244 3 q 233 0 239 0 l 39 3 q 29 4 32 3 q 25 8 26 6 q 24 18 24 11 q 13 92 17 63 q 4 143 7 126 q 1 167 1 160 q 3 173 1 171 q 6 178 4 175 q 6 178 6 178 q 58 322 47 244 q 133 675 114 590 q 146 733 142 714 q 150 763 150 753 q 149 771 150 767 q 146 779 147 775 q 139 796 142 788 q 132 813 136 804 q 129 824 129 818 q 133 838 129 831 q 176 910 161 883 q 194 942 188 931 q 206 958 201 953 q 214 964 211 963 q 222 965 217 965 l 471 965 q 481 963 476 965 q 490 950 485 960 q 507 922 496 940 q 556 839 522 894 q 561 824 561 831 q 558 811 561 818 l 543 776 q 543 775 543 776 q 541 770 542 772 q 540 764 540 768 q 546 726 540 754 q 567 629 551 699 q 592 511 576 583 q 626 349 614 404 q 638 288 633 310 q 646 256 643 267 q 651 241 649 246 q 656 232 653 236 q 663 218 660 225 q 679 188 674 199 q 687 173 685 178 q 689 165 689 168 l 689 161 q 686 144 688 153 q 667 18 678 82 q 665 8 667 11 q 660 4 664 6 q 650 3 657 3 q 458 0 554 3 m 401 397 q 408 399 407 397 q 410 404 410 401 l 408 414 l 347 689 l 343 689 l 281 403 q 285 399 281 400 q 304 397 290 397 l 401 397 m 308 994 l 304 996 l 275 1013 q 271 1018 271 1015 l 276 1033 q 344 1154 286 1049 q 361 1164 350 1164 q 396 1163 393 1164 q 439 1092 399 1161 q 479 1018 479 1022 q 469 1008 479 1014 q 442 996 447 997 q 379 1097 435 996 l 374 1104 q 370 1101 371 1103 q 319 1007 369 1099 q 313 999 315 1003 q 308 994 311 994 z "},"ã":{"ha":694,"x_min":1,"x_max":689,"o":"m 458 0 q 448 3 451 0 q 442 11 444 6 q 423 60 433 33 q 406 106 413 86 q 396 129 399 124 q 389 147 392 142 q 385 156 386 153 q 385 164 385 160 q 385 171 385 167 q 389 183 386 175 q 392 193 390 188 l 393 201 q 391 205 393 204 q 383 206 389 206 l 346 207 l 307 206 q 307 206 307 206 q 299 204 301 206 q 297 201 297 203 l 299 194 q 301 188 300 190 q 306 167 306 179 q 297 135 306 154 q 254 28 263 54 q 247 9 250 15 q 242 1 244 3 q 233 0 239 0 l 39 3 q 29 4 32 3 q 25 8 26 6 q 24 18 24 11 q 13 92 17 63 q 4 143 7 126 q 1 167 1 160 q 3 173 1 171 q 6 178 4 175 q 6 178 6 178 q 58 322 47 244 q 133 675 114 590 q 146 733 142 714 q 150 763 150 753 q 149 771 150 767 q 146 779 147 775 q 139 796 142 788 q 132 813 136 804 q 129 824 129 818 q 133 838 129 831 q 176 910 161 883 q 194 942 188 931 q 206 958 201 953 q 214 964 211 963 q 222 965 217 965 l 471 965 q 481 963 476 965 q 490 950 485 960 q 507 922 496 940 q 556 839 522 894 q 561 824 561 831 q 558 811 561 818 l 543 776 q 543 775 543 776 q 541 770 542 772 q 540 764 540 768 q 546 726 540 754 q 567 629 551 699 q 592 511 576 583 q 626 349 614 404 q 638 288 633 310 q 646 256 643 267 q 651 241 649 246 q 656 232 653 236 q 663 218 660 225 q 679 188 674 199 q 687 173 685 178 q 689 165 689 168 l 689 161 q 686 144 688 153 q 667 18 678 82 q 665 8 667 11 q 660 4 664 6 q 650 3 657 3 q 458 0 554 3 m 401 397 q 408 399 407 397 q 410 404 410 401 l 408 414 l 347 689 l 343 689 l 281 403 q 285 399 281 400 q 304 397 290 397 l 401 397 m 285 1007 l 256 1007 q 251 1010 253 1008 q 249 1047 250 1011 q 253 1081 250 1078 l 278 1117 q 290 1125 282 1125 l 319 1125 l 319 1126 l 347 1126 q 358 1121 354 1126 l 403 1071 q 417 1065 408 1065 l 433 1065 q 442 1071 440 1065 q 451 1103 451 1085 q 453 1133 451 1131 q 474 1135 456 1135 q 493 1133 492 1135 q 496 1094 494 1132 q 492 1065 496 1072 q 467 1024 489 1057 q 450 1015 461 1015 l 401 1015 q 383 1022 392 1015 l 340 1071 q 329 1076 336 1076 l 311 1075 l 308 1075 q 303 1072 304 1075 q 298 1064 301 1068 q 294 1056 294 1060 q 293 1014 293 1053 q 285 1007 293 1008 z "},"ä":{"ha":694,"x_min":1,"x_max":689,"o":"m 458 0 q 448 3 451 0 q 442 11 444 6 q 423 60 433 33 q 406 106 413 86 q 396 129 399 124 q 389 147 392 142 q 385 156 386 153 q 385 164 385 160 q 385 171 385 167 q 389 183 386 175 q 392 193 390 188 l 393 201 q 391 205 393 204 q 383 206 389 206 l 346 207 l 307 206 q 307 206 307 206 q 299 204 301 206 q 297 201 297 203 l 299 194 q 301 188 300 190 q 306 167 306 179 q 297 135 306 154 q 254 28 263 54 q 247 9 250 15 q 242 1 244 3 q 233 0 239 0 l 39 3 q 29 4 32 3 q 25 8 26 6 q 24 18 24 11 q 13 92 17 63 q 4 143 7 126 q 1 167 1 160 q 3 173 1 171 q 6 178 4 175 q 6 178 6 178 q 58 322 47 244 q 133 675 114 590 q 146 733 142 714 q 150 763 150 753 q 149 771 150 767 q 146 779 147 775 q 139 796 142 788 q 132 813 136 804 q 129 824 129 818 q 133 838 129 831 q 176 910 161 883 q 194 942 188 931 q 206 958 201 953 q 214 964 211 963 q 222 965 217 965 l 471 965 q 481 963 476 965 q 490 950 485 960 q 507 922 496 940 q 556 839 522 894 q 561 824 561 831 q 558 811 561 818 l 543 776 q 543 775 543 776 q 541 770 542 772 q 540 764 540 768 q 546 726 540 754 q 567 629 551 699 q 592 511 576 583 q 626 349 614 404 q 638 288 633 310 q 646 256 643 267 q 651 241 649 246 q 656 232 653 236 q 663 218 660 225 q 679 188 674 199 q 687 173 685 178 q 689 165 689 168 l 689 161 q 686 144 688 153 q 667 18 678 82 q 665 8 667 11 q 660 4 664 6 q 650 3 657 3 q 458 0 554 3 m 401 397 q 408 399 407 397 q 410 404 410 401 l 408 414 l 347 689 l 343 689 l 281 403 q 285 399 281 400 q 304 397 290 397 l 401 397 m 257 1001 l 235 1003 q 224 1005 226 1003 q 221 1015 222 1007 l 218 1111 q 219 1125 218 1118 q 229 1133 219 1132 l 310 1135 l 349 1132 q 356 1126 353 1132 q 357 1025 357 1111 q 351 1006 356 1008 q 317 1003 346 1003 l 257 1001 m 426 1001 l 406 1003 q 395 1005 397 1003 q 392 1013 393 1007 q 388 1111 390 1019 q 390 1125 389 1118 q 399 1133 390 1132 l 481 1135 l 518 1132 q 526 1126 525 1132 q 526 1068 526 1121 q 522 1006 526 1010 q 488 1003 517 1003 l 426 1001 z "},"å":{"ha":694,"x_min":1,"x_max":689,"o":"m 458 0 q 448 3 451 0 q 442 11 444 6 q 423 60 433 33 q 406 106 413 86 q 396 129 399 124 q 389 147 392 142 q 385 156 386 153 q 385 164 385 160 q 385 171 385 167 q 389 183 386 175 q 392 193 390 188 l 393 201 q 391 205 393 204 q 383 206 389 206 l 346 207 l 307 206 q 307 206 307 206 q 299 204 301 206 q 297 201 297 203 l 299 194 q 301 188 300 190 q 306 167 306 179 q 297 135 306 154 q 254 28 263 54 q 247 9 250 15 q 242 1 244 3 q 233 0 239 0 l 39 3 q 29 4 32 3 q 25 8 26 6 q 24 18 24 11 q 13 92 17 63 q 4 143 7 126 q 1 167 1 160 q 3 173 1 171 q 6 178 4 175 q 6 178 6 178 q 58 322 47 244 q 133 675 114 590 q 146 733 142 714 q 150 763 150 753 q 149 771 150 767 q 146 779 147 775 q 139 796 142 788 q 132 813 136 804 q 129 824 129 818 q 133 838 129 831 q 176 910 161 883 q 194 942 188 931 q 206 958 201 953 q 214 964 211 963 q 222 965 217 965 l 471 965 q 481 963 476 965 q 490 950 485 960 q 507 922 496 940 q 556 839 522 894 q 561 824 561 831 q 558 811 561 818 l 543 776 q 543 775 543 776 q 541 770 542 772 q 540 764 540 768 q 546 726 540 754 q 567 629 551 699 q 592 511 576 583 q 626 349 614 404 q 638 288 633 310 q 646 256 643 267 q 651 241 649 246 q 656 232 653 236 q 663 218 660 225 q 679 188 674 199 q 687 173 685 178 q 689 165 689 168 l 689 161 q 686 144 688 153 q 667 18 678 82 q 665 8 667 11 q 660 4 664 6 q 650 3 657 3 q 458 0 554 3 m 401 397 q 408 399 407 397 q 410 404 410 401 l 408 414 l 347 689 l 343 689 l 281 403 q 285 399 281 400 q 304 397 290 397 l 401 397 m 372 1004 q 302 1034 329 1006 q 275 1103 275 1063 q 305 1172 275 1144 q 375 1200 335 1200 q 443 1170 417 1199 q 469 1101 469 1142 q 441 1033 469 1061 q 372 1004 413 1004 m 372 1068 q 396 1078 386 1068 q 406 1103 406 1088 q 396 1126 406 1117 q 372 1136 386 1136 q 349 1126 358 1136 q 339 1103 339 1117 q 349 1078 339 1089 q 372 1068 358 1068 z "}}}
